<?xml version="1.0" standalone="no"?>
<!DOCTYPE svg PUBLIC "-//W3C//DTD SVG 1.1//EN" "http://www.w3.org/Graphics/SVG/1.1/DTD/svg11.dtd" >
<svg>
<metadata>
Created by FontForge 20120731 at Thu Jun 18 10:48:11 2020
 By ffonts
Copyright \(c\) 2018 by Koen van der Bliek. All rights reserved.
</metadata>
<defs>
<font id="Reey-Regular" horiz-adv-x="600" >
  <font-face 
    font-family="Reey"
    font-weight="400"
    font-stretch="normal"
    units-per-em="1000"
    panose-1="0 0 5 0 0 0 0 0 0 0"
    ascent="800"
    descent="-200"
    x-height="419"
    cap-height="961"
    bbox="-893.258 -1863.91 3548 2205.25"
    underline-thickness="50"
    underline-position="-50"
    unicode-range="U+0020-2265"
  />
<missing-glyph horiz-adv-x="650" 
d="M533 1000v-1300h-412v1300h412zM433 913h-215v-43h85v-48h-86v-43h216v43h-86v48h86v43zM347 745h-130v-135h216v44h-86v91zM303 701v-47h-43v47h43zM433 575h-216v-43h86v-48h-86v-43h130v91h86v43zM433 497h-43v-86h-173v-44h216v130zM433 338h-130v-72h44v29h43v-61
h-130v104h-43v-147h216v147zM433 113h-216v-147h216v147zM390 71v-62h-130v62h130zM433 -63h-216v-43h91l-91 -61v-43h216v43h-133l91 61h42v43z" />
    <glyph glyph-name=".notdef" horiz-adv-x="650" 
d="M533 1000v-1300h-412v1300h412zM433 913h-215v-43h85v-48h-86v-43h216v43h-86v48h86v43zM347 745h-130v-135h216v44h-86v91zM303 701v-47h-43v47h43zM433 575h-216v-43h86v-48h-86v-43h130v91h86v43zM433 497h-43v-86h-173v-44h216v130zM433 338h-130v-72h44v29h43v-61
h-130v104h-43v-147h216v147zM433 113h-216v-147h216v147zM390 71v-62h-130v62h130zM433 -63h-216v-43h91l-91 -61v-43h216v43h-133l91 61h42v43z" />
    <glyph glyph-name="A" unicode="A" horiz-adv-x="941" 
d="M1314 531c18 -44 0 -116 -38 -146c-5 -4 -9 -9 -14 -14c-8 -7 -17 -6 -25 -1c-2 18 29 18 19 40l-24 -3c1 8 1 16 2 29l-31 -42c-2 20 8 31 19 41c24 24 30 61 13 94c-1 3 -4 6 -6 9c-2 2 -5 3 -8 6c-2 -2 -4 -5 -8 -10c-43 19 -86 0 -130 -7c-25 -4 -49 -16 -73 -26
c-46 -19 -92 -39 -137 -59l-25 -13l-15 -82c-23 -136 -46 -272 -70 -408c-21 -118 -43 -235 -66 -352c-6 -33 -16 -66 -23 -99c-4 -19 -7 -39 -9 -58c-7 -63 -21 -124 -38 -185c-1 -6 -3 -11 -3 -17c-9 -97 -36 -191 -60 -286c-3 -11 -12 -22 -4 -35c0 -1 -3 -4 -4 -6
c-4 -11 -12 -23 -10 -33c4 -44 -13 -83 -25 -123c-4 -14 -11 -27 -22 -40c0 5 -1 9 0 13c7 26 20 50 18 77l-12 -23l-29 -54c-7 -11 -18 -18 -30 -24c-21 -10 -41 -22 -64 -35v45c14 10 30 17 39 29c11 15 19 35 24 53c21 88 43 176 61 264c43 217 86 433 128 650
c24 126 45 252 69 377c7 38 19 75 27 112s13 73 19 110l12 53c3 11 5 23 8 41l-48 -24c-198 -103 -371 -237 -518 -404c-41 -48 -78 -99 -117 -149c-6 -8 -11 -20 -12 -30c-2 -17 -14 -26 -25 -36s-24 -14 -39 -5c-3 1 -9 -1 -13 -2c-9 12 -9 12 -7 29l-11 -3
c-1 3 -3 6 -2 8c4 11 5 20 -6 28c-2 1 -4 2 -4 4c-1 7 -3 14 -2 21c4 19 -8 37 4 57c27 44 50 89 75 133c1 3 4 8 6 9c22 7 22 26 27 44c3 11 6 23 12 34c166 293 342 580 541 852c24 32 47 66 79 92c10 8 19 16 35 20c14 3 26 19 38 30c8 6 16 13 24 18c14 10 28 10 42 0
c11 -9 23 -18 35 -27c27 -20 34 -50 34 -82c-2 -44 -5 -88 -8 -132c-8 -105 -24 -209 -43 -313c-4 -20 -6 -41 -9 -65c26 8 51 14 74 23c46 19 93 36 137 59c40 20 83 21 125 26c43 5 105 -38 121 -77zM848 987c2 24 1 48 -10 73c-21 -17 -42 -30 -58 -47
c-24 -25 -45 -52 -66 -79c-72 -93 -144 -186 -215 -279c-23 -29 -44 -59 -57 -96c-30 -79 -71 -153 -116 -224c-4 -5 -9 -9 -15 -16c-12 26 7 41 13 58c8 20 22 38 29 58c6 19 29 29 25 52c-14 -31 -48 -45 -57 -82c-8 -31 -31 -58 -46 -87c-22 -40 -49 -78 -57 -124
c3 -1 6 -1 10 -3c-19 -40 -39 -81 -59 -121c-6 -13 -9 -25 -5 -40l11 11c25 31 50 61 75 91c9 10 19 19 26 30c28 38 63 67 106 86c7 3 15 8 20 14c12 16 28 26 43 37c19 13 36 27 54 40c12 8 23 16 36 22c16 9 32 16 49 24c9 2 19 1 27 5c53 24 105 49 158 74
c8 4 10 11 5 19c-45 -23 -89 -46 -134 -68c-18 -9 -37 -16 -56 -23c7 5 14 12 22 17c18 11 37 21 57 31l119 61c3 16 12 33 9 49c-4 27 2 52 6 78c12 88 25 176 38 265zM728 1040c-6 -10 -10 -17 -13 -23c2 -2 2 -3 3 -4c0 0 1 0 2 1c5 6 13 11 8 26zM1239 444
c11 4 15 12 13 23c-4 -8 -9 -15 -13 -23zM625 -670c0 7 3 14 5 25c-5 6 -9 12 -15 21l-25 -132c8 13 10 30 19 38c16 14 15 30 16 48zM518 -1203c6 9 13 18 7 33c-4 -11 -6 -18 -8 -26c-1 -3 0 -5 1 -7z" />
    <glyph glyph-name="B" unicode="B" horiz-adv-x="2328" 
d="M571 -666c-119 -15 -239 -18 -356 15c-87 24 -166 64 -227 134c-66 78 -82 167 -57 265c4 15 9 30 18 44c-3 -19 -8 -39 -9 -59s-9 -40 1 -60l8 56c4 19 7 38 13 56c22 67 48 132 91 189c8 10 15 20 23 29c47 54 96 106 153 150c96 75 197 144 306 200
c120 62 239 124 364 174c16 6 27 16 34 32l103 207c1 2 3 4 8 11c2 -18 3 -31 5 -44c16 7 11 26 14 43c12 -7 20 -12 28 -16c13 -21 8 -39 -1 -57c-20 -42 -40 -83 -61 -128c51 18 99 34 147 52c40 14 80 27 119 44c51 23 101 49 152 74c27 14 53 30 74 53
c15 16 16 15 24 42c-17 11 -37 13 -56 15c-32 5 -65 9 -98 10c-122 4 -244 1 -366 -8c-63 -5 -126 -8 -189 -14c-70 -7 -140 -16 -210 -25c-44 -5 -89 -13 -134 -18c-37 -5 -74 -7 -112 -10c-6 -1 -13 -2 -19 -4c-72 -21 -144 -42 -216 -64c-22 -6 -45 -12 -66 -19l-5 -38
c-10 5 -19 9 -30 14c4 -10 7 -18 11 -27c-16 -5 -24 4 -30 18c5 11 10 23 16 38c-6 -3 -11 -3 -12 -5c-5 -9 -9 -18 -13 -27c-19 4 -25 17 -30 32c7 22 23 34 42 43l101 47c50 24 102 39 156 51c10 2 20 4 30 7c71 25 145 32 218 43c38 6 77 9 115 11c22 1 45 -3 67 -4
c9 -1 18 -1 27 4c-8 1 -17 3 -26 4c11 11 25 11 38 13c73 6 146 12 219 19c117 9 233 15 350 13c64 0 128 -1 191 -15c19 -5 38 -11 55 -19c19 -9 30 -23 32 -46c0 -13 11 -25 18 -37c-12 -72 -61 -116 -120 -152c-15 -10 -31 -18 -45 -32c8 0 15 -1 22 0c27 1 53 4 79 4
c74 -1 148 -6 222 -5c113 2 223 -13 332 -41c45 -12 89 -28 130 -53c88 -55 142 -173 86 -288c-34 -70 -83 -127 -138 -181c-87 -85 -184 -158 -286 -224c-49 -32 -102 -58 -153 -88c-26 -15 -50 -33 -75 -49c-7 -5 -14 -10 -22 -14c-247 -134 -504 -245 -774 -322
c-46 -13 -94 -20 -140 -33c-55 -15 -110 -24 -166 -30zM1279 573l132 19l-13 7l9 11c-28 4 -54 -4 -81 -8c-19 -3 -30 -17 -47 -29zM678 -588c27 10 52 20 73 28c6 10 9 17 13 23c25 5 49 9 73 15c38 9 78 14 114 30c21 10 43 19 65 27c30 10 61 18 91 27c22 7 45 11 66 19
c63 25 125 50 187 76c55 23 110 47 165 70c27 11 54 21 79 35c26 13 49 30 73 46c3 2 6 4 6 5c-1 24 20 28 34 37c78 50 157 99 235 151c77 51 150 110 214 178c51 54 98 112 108 190c5 38 -4 72 -37 94c-26 17 -54 30 -83 42c-49 22 -103 32 -152 57c-3 2 -10 -1 -16 -2
c4 -4 6 -6 10 -9c-10 0 -16 -1 -22 0c-59 6 -118 11 -177 18c-27 3 -54 1 -80 12c-12 5 -29 4 -43 2c-74 -11 -149 -11 -223 -16c-20 -1 -41 0 -61 -4c-40 -7 -80 -16 -121 -24l-125 -21c6 -10 12 -18 17 -25c-7 -21 -7 -21 -26 -28l-26 14c-2 7 -3 14 -6 23
c-39 4 -73 -13 -110 -17c1 -2 2 -5 3 -9c-25 -12 -25 -12 -39 -36c-16 -32 -34 -63 -50 -95c-21 -42 -40 -84 -61 -126c-26 -50 -42 -104 -60 -153c2 -9 3 -15 5 -20c4 -11 0 -19 -8 -24c-9 -5 -18 -4 -27 3c-12 9 -18 21 -13 37c5 17 13 34 17 52c5 24 16 45 26 67
c12 26 27 51 31 77c9 49 30 91 50 134c6 12 12 24 18 38c-19 -8 -35 -13 -51 -20c-29 -13 -58 -27 -87 -41c-127 -63 -254 -126 -372 -205c-139 -94 -260 -206 -339 -357c-20 -38 -35 -77 -40 -120c-2 -16 -4 -32 -6 -44c4 -14 6 -26 9 -37c5 -15 7 -30 14 -43
c9 -16 18 -33 36 -43c19 -10 37 -21 55 -32c0 -2 -1 -4 -1 -5h-30c80 -60 117 -63 166 -58c-10 5 -18 9 -27 13c2 1 3 3 4 2c3 0 5 -1 8 -1c113 -25 226 -31 341 -14c19 3 42 9 58 1c20 -8 36 -3 54 -1c0 -4 0 -6 1 -13zM1678 -220c26 15 47 26 68 38
c-20 -2 -39 -13 -68 -38zM-29 -342c12 28 16 56 8 86c-3 -29 -5 -58 -8 -86z" />
    <glyph glyph-name="C" unicode="C" horiz-adv-x="1716" 
d="M1732 807l4 -16l-17 -29c-25 -10 -30 -5 -47 19c-3 -1 -7 -2 -13 -3c-7 13 -13 27 -20 41c-19 11 -39 13 -60 14c-56 4 -111 -3 -165 -15c-91 -19 -180 -49 -267 -81c-22 -9 -45 -12 -67 -20c-28 -11 -55 -24 -82 -36c-55 -26 -107 -58 -159 -89
c-231 -138 -444 -298 -624 -498c-57 -64 -110 -132 -152 -207c-27 -50 -48 -102 -57 -158c-5 -33 -7 -66 2 -98c8 -31 26 -53 57 -65c38 -14 78 -21 119 -22c101 -4 200 13 298 40c74 21 147 46 220 70c9 3 18 6 27 10l9 -16c119 49 239 96 348 169
c-45 -11 -81 -44 -126 -55c-1 2 -2 4 -3 5c4 3 8 6 12 8c81 42 156 91 231 142c60 41 118 85 175 132c21 17 39 37 64 50c4 2 9 8 11 12c8 20 25 33 39 48c31 34 62 68 92 103c8 9 14 20 21 31c-12 6 -22 1 -31 -2l-30 -9c-10 17 -20 32 -28 46c1 39 26 47 53 53
c28 5 53 1 75 -20c7 -7 13 -13 13 -24c0 -7 5 -14 9 -26c-3 -19 -8 -43 -9 -67c-1 -10 -4 -17 -9 -25c-21 -38 -50 -70 -80 -102c-116 -120 -245 -225 -382 -320c-25 -18 -55 -28 -82 -41c-8 -4 -15 -8 -22 -13c-73 -54 -151 -98 -235 -133l-106 -45c-17 -7 -35 -10 -55 -5
l81 34c-8 3 -16 5 -22 8c-27 -8 -52 -17 -78 -23c-22 -5 -35 -21 -50 -37c7 2 14 5 23 7c3 -3 5 -6 10 -12c-8 -4 -15 -8 -21 -10c-66 -24 -132 -44 -202 -53c-24 -3 -49 -5 -75 -3c-13 0 -28 -2 -41 -7c-104 -34 -200 -12 -292 40c-31 17 -55 42 -66 79c2 -2 4 -3 12 -7
c-6 12 -7 24 -13 29c-10 6 -10 15 -14 23c-22 49 -13 99 0 149c18 73 51 141 94 204c23 34 49 66 77 96c18 18 37 34 52 54c7 11 12 23 19 34c7 12 14 25 23 35c20 22 41 45 63 64c24 21 51 39 76 58l10 -7c19 25 50 37 65 67l-7 15c123 96 245 195 386 264
c59 29 120 53 180 79c8 4 16 7 23 12c94 59 194 105 303 132c33 7 66 12 101 10c18 -1 38 9 54 18c10 5 20 11 31 12c45 6 90 7 134 -4c50 -13 100 -64 113 -113zM908 651l38 25l-14 4c1 5 2 10 4 15c-2 1 -4 3 -5 4c-100 -57 -199 -113 -292 -183c4 1 8 1 12 3l54 28
c34 18 66 40 105 45c5 0 9 3 13 6c28 17 57 35 85 53zM1406 21c-66 -51 -131 -102 -197 -154c73 43 139 93 197 154zM561 -463v-3c8 1 16 1 24 2c0 1 0 2 -1 3c-7 0 -15 -1 -23 -2zM447 -476c-16 -3 -27 4 -35 -6c15 -3 16 -3 35 6zM409 -483c-24 2 -48 0 -70 -12
c24 2 48 -1 70 12z" />
    <glyph glyph-name="D" unicode="D" horiz-adv-x="1748" 
d="M-519 -362c-16 2 -31 10 -46 14c-11 3 -23 4 -34 5c2 6 -7 12 -9 9c-8 -12 -17 -4 -24 -1c-17 6 -33 14 -46 32c23 -3 34 -31 61 -24c-27 22 -51 44 -78 63c-29 21 -36 42 -24 77c22 65 62 117 119 156c48 33 96 66 147 95c156 88 317 167 483 237c66 28 133 53 199 79
c15 5 24 15 34 27c24 29 40 64 64 93c30 35 37 79 56 118c10 21 20 42 29 63c6 11 10 23 17 32c18 25 37 50 60 80c-1 -12 -1 -18 -2 -23c10 0 17 17 29 4c4 5 7 10 10 16h-12c1 4 1 7 2 10c4 12 11 23 26 21c8 -1 17 -5 25 -9c3 -2 3 -8 4 -12c-6 -5 -12 -9 -21 -16
c10 -1 16 -1 24 -1c0 -10 -3 -18 -11 -26c-15 -14 -32 -28 -42 -45c-54 -93 -107 -188 -160 -282c-1 -1 -1 -3 -1 -8c4 0 10 -3 14 -2c41 6 81 13 121 20l107 18c-3 4 -7 8 -11 12c40 9 74 3 122 -21c-5 -13 -9 -27 -14 -40l-25 -3c-9 3 -18 15 -35 6c5 -4 9 -6 13 -9
c3 -4 6 -8 10 -12c-25 3 -49 6 -73 8c-34 4 -68 -4 -102 -12c-48 -11 -97 -26 -145 -40c-7 -2 -12 -7 -19 -11c-8 1 -13 -2 -13 -11c-24 -23 -35 -53 -49 -82c-43 -85 -83 -172 -125 -259c-5 -10 -9 -21 -15 -30c-9 -13 -14 -14 -34 -7c-1 13 -3 26 -5 42l-24 -14
c-4 17 3 30 8 42l111 238c5 9 9 18 16 33c-23 -10 -41 -17 -58 -24c-154 -69 -308 -137 -456 -217c-76 -41 -153 -80 -222 -134c-36 -27 -71 -56 -95 -95c-4 -8 -8 -17 -12 -24c4 -16 16 -22 27 -29c40 -25 86 -33 132 -38c91 -9 182 -2 273 9c18 2 37 6 56 7
c9 1 18 -1 27 -2c1 -1 3 -2 5 -2c-5 -3 -9 -7 -18 -13c23 2 41 2 59 6c40 9 80 18 121 22c14 1 23 8 25 20c44 11 87 20 129 33c10 3 21 5 31 9c11 5 23 10 35 14s25 7 38 11c12 3 25 7 38 10c12 4 25 8 38 11c12 4 25 8 38 11l37 12c13 3 26 7 38 11c97 31 194 60 289 95
c153 56 303 118 450 188c104 48 201 106 296 170c54 36 103 78 143 131c17 23 32 48 39 77c9 33 4 62 -21 88c-35 38 -79 63 -125 86c-26 13 -55 19 -79 38c-5 4 -16 2 -26 3c0 3 1 6 2 13l-29 6c-38 7 -76 14 -114 22c-66 14 -132 29 -197 44c-16 3 -31 8 -47 12
c-28 7 -57 9 -86 11c-69 4 -138 11 -208 18c-109 10 -219 11 -329 11c-137 0 -273 -6 -409 -19c-102 -10 -203 -25 -303 -48c-22 -5 -44 -12 -65 -20c-13 -5 -26 -14 -36 -20c-5 -19 12 -34 -5 -50c-4 6 -8 11 -13 20c-7 -11 -14 -19 -19 -29c-3 -1 -6 -1 -10 -3
c-11 19 -26 36 -30 59c-2 17 1 31 13 44c23 25 51 42 82 54c70 29 143 46 218 54c24 2 48 10 72 13c75 8 151 16 227 22c133 12 267 13 400 10c144 -2 288 -12 430 -32c55 -8 109 -20 164 -30c20 -3 37 -17 58 -16c9 0 18 -4 27 1c6 3 15 0 22 -2c80 -18 159 -38 236 -66
c24 -8 47 -20 70 -31c26 -12 52 -25 76 -40c22 -13 42 -28 62 -43c45 -35 65 -81 63 -138c0 -26 3 -51 -4 -77c-14 -56 -46 -99 -84 -138c-57 -57 -122 -103 -190 -146c-141 -87 -290 -158 -443 -223c-68 -28 -136 -54 -204 -81c-4 -1 -8 -2 -12 -1l18 12c-6 1 -10 3 -12 2
c-19 -10 -38 -20 -57 -29c-16 -8 -31 -19 -47 -25c-203 -72 -409 -135 -619 -184c-64 -15 -128 -29 -193 -40c-30 -6 -61 -6 -91 -9c-2 7 -4 11 -5 15c-27 -9 -53 -19 -80 -26c-87 -23 -175 -21 -263 -11zM1002 926c-4 3 -6 6 -8 6c-60 7 -119 15 -179 20c-26 2 -52 0 -83 0
c26 -10 242 -31 270 -26zM326 -199c23 3 46 7 68 13c88 25 175 51 263 77c10 2 20 4 30 8c33 16 67 33 100 50c1 0 1 2 2 4h-20c4 6 8 10 11 15c-3 0 -7 2 -9 1c-146 -62 -292 -122 -445 -168zM-223 -317l39 13c-18 5 -30 2 -39 -13z" />
    <glyph glyph-name="E" unicode="E" horiz-adv-x="1446" 
d="M1845 1279c48 -25 48 -25 61 -56c-5 -16 -12 -34 -19 -54c-12 -1 -22 -2 -38 -4c-15 -18 -35 -38 -52 -60c-101 -131 -194 -268 -272 -415c-37 -71 -63 -147 -74 -227c-1 -11 -4 -22 -7 -33c0 -2 -3 -4 -5 -6c-12 18 -12 18 -39 22c0 11 -1 22 -2 36
c-6 -12 -12 -21 -17 -30c11 116 44 223 102 323c-33 8 -33 8 -37 37c29 25 70 34 98 72c-26 -6 -38 -23 -55 -32s-32 -21 -51 -33l-4 19c13 18 31 29 49 41c25 16 50 34 73 53c29 23 29 24 39 59c-26 17 -55 20 -85 12c-44 -11 -88 -23 -132 -34c-44 -12 -88 -24 -128 -46
c40 11 79 22 119 34c39 10 78 18 119 20c-123 -23 -241 -61 -355 -110c-47 -20 -94 -39 -138 -64s-86 -54 -120 -92c-20 -22 -24 -36 -23 -63c12 -9 23 -23 43 -13c3 2 10 -2 15 -4c43 -13 84 -28 127 -37c28 -6 58 -2 87 -3c21 20 44 3 65 4c22 0 45 -5 66 -12
c12 -3 20 -17 29 -25c0 -41 -9 -52 -47 -58c-83 -13 -166 -23 -247 -45c-43 -11 -86 -20 -127 -36c-50 -19 -98 -42 -146 -66c-168 -83 -319 -191 -462 -311c-77 -65 -146 -138 -217 -210c-6 -6 -12 -12 -18 -17c-1 -1 -3 -1 -9 -2l99 120c-4 3 -8 7 -15 12
c-86 -107 -179 -208 -257 -324c-13 -1 -22 -9 -29 -23c-7 -15 -16 -29 -24 -44c-3 -4 -4 -10 -6 -15c12 2 24 4 39 6c-10 -22 -17 -41 -26 -60c-20 -40 -27 -84 -37 -126c-7 -34 21 -103 68 -116c38 -11 77 -19 116 -19c42 0 85 5 127 15c3 1 5 2 13 6c-15 -1 -25 -2 -34 -3
c0 2 -1 3 -1 4l64 15l258 60c32 8 65 14 97 21c8 2 17 7 25 11c18 8 36 17 54 23c173 57 340 127 508 197c43 18 88 32 132 47c8 3 17 4 25 5c22 3 42 12 58 26c31 27 71 35 108 49c10 4 21 6 31 10c24 11 47 23 75 23c12 -1 25 7 37 12c18 8 35 18 53 26c9 4 19 6 29 9
c14 4 26 11 37 26c-13 4 -20 -1 -28 -4c-51 -20 -101 -41 -152 -61c-28 -11 -56 -21 -84 -29c92 46 185 93 272 137c18 24 19 55 53 57l38 -40c-11 -41 -29 -76 -73 -96c-40 -19 -76 -46 -115 -68c-24 -13 -48 -26 -73 -35c-135 -50 -261 -117 -391 -178
c-142 -66 -286 -123 -433 -176c-137 -49 -275 -93 -416 -125c-30 -7 -61 -10 -92 -15c-20 -4 -40 -10 -60 -13c-27 -4 -53 -6 -80 -9c-1 2 -1 4 -2 6c3 2 7 5 10 8l-4 1c-10 -2 -21 -2 -30 -5c-57 -18 -111 -16 -162 17c-9 6 -19 8 -29 12c-50 16 -82 49 -98 100
c-9 29 -10 58 -4 88c4 17 5 35 9 52c4 16 10 30 16 45c4 10 9 20 12 31c13 43 35 82 59 119c8 13 20 24 30 35c5 5 9 11 13 16c15 19 29 39 43 57c2 8 3 17 6 23c5 10 12 19 20 28c47 53 93 108 142 160c29 30 62 57 94 85c8 8 18 14 28 19s15 13 19 23c-4 11 7 15 13 21
c50 41 99 83 150 123c29 23 59 43 89 64c8 5 18 6 24 12c10 10 26 8 34 25c4 12 23 17 36 26c69 44 141 81 215 115c22 10 43 23 70 18c8 -1 17 5 31 9l-10 -12c-2 -2 -4 -3 -8 -5c26 1 43 10 97 47c-2 2 -4 3 -8 7c8 5 14 9 20 12c-2 3 -2 5 -3 5c-28 8 -54 21 -79 36
c-17 11 -35 19 -49 34c-31 33 -33 71 -6 107l12 -24c-1 -6 0 -11 -1 -17c-2 -23 10 -39 28 -55c2 29 5 55 5 81c0 22 8 41 21 57c26 32 59 57 94 77c67 38 134 75 206 103c-3 3 -5 6 -8 8c18 0 34 11 50 18c43 18 86 40 130 58c48 20 99 32 152 31c46 0 92 -2 137 -5
c12 -1 24 -5 39 -8c48 91 128 159 191 240zM1009 850c14 4 25 4 32 16c-13 3 -21 -3 -32 -16zM470 281c1 0 1 1 0 2c0 1 -1 1 -4 4c-57 -42 -115 -85 -173 -127c1 -2 2 -4 3 -5c4 2 8 3 11 5c55 40 109 81 163 121zM186 71c8 5 15 12 23 18c-1 1 -2 2 -2 3l-33 -21
c5 0 9 -2 12 0zM-151 -820v-6c16 -2 31 -5 43 -7l8 24h66v9c-35 -2 -69 -5 -105 -7c5 -2 10 -4 17 -8c-12 -2 -20 -3 -29 -5z" />
    <glyph glyph-name="F" unicode="F" horiz-adv-x="866" 
d="M2631 1251c14 -19 19 -46 4 -67c-2 -2 -6 -3 -9 -5c-7 11 -13 21 -19 32c-1 -1 -3 -2 -4 -2c4 -11 8 -21 12 -33c-12 -8 -21 0 -25 8c-18 32 -47 40 -79 42c-43 4 -86 6 -129 8c-56 2 -111 3 -166 8c15 3 30 7 45 10c-1 3 -1 5 -1 7c-57 -2 -113 -3 -172 -5l12 -18
c-97 -13 -192 -13 -287 -19h24v-2c-246 -21 -492 -43 -740 -65c-6 -10 -20 -15 -20 -31c0 -2 -2 -5 -4 -6c-18 -10 -24 -29 -33 -44c-22 -38 -42 -76 -63 -113c-3 -4 -6 -9 -6 -13c-3 -46 -27 -85 -41 -127c-28 -85 -57 -169 -92 -251l-3 -12c19 2 36 3 53 5
c34 4 67 8 101 11c8 1 17 1 25 0c15 0 29 0 44 4c23 6 48 8 72 7c15 -2 30 -13 50 -22c12 2 29 6 46 8c30 4 60 6 90 9c11 1 22 4 33 7c45 0 83 -19 115 -47c40 -34 35 -77 3 -114c-17 -19 -33 -16 -47 3l-26 -4c6 11 9 18 13 27c-10 11 -8 27 -2 45c-16 1 -31 3 -46 4
c-77 5 -154 0 -231 -8c-104 -11 -209 -22 -314 -34c-7 -1 -14 -2 -23 -4c-10 -24 -21 -48 -31 -73c-62 -144 -124 -288 -187 -432c-15 -36 -32 -72 -49 -107c-9 -18 -19 -35 -30 -52c-7 -9 -16 -18 -26 -24c-23 -13 -29 -11 -49 10l-37 6c-27 27 -37 65 -48 101
c-2 6 1 14 3 20c16 -36 18 -76 48 -106l-39 114c-28 23 -25 59 -40 89c-39 80 -65 168 -132 233c-11 11 -21 24 -30 34c-39 21 -77 41 -112 71l9 46c4 24 19 38 41 45c29 8 58 16 88 22c79 15 159 30 238 42c27 4 54 1 81 -1c29 -1 56 3 84 9c41 8 84 13 126 20
c13 2 26 6 39 8c85 205 164 411 262 609c-3 2 -5 5 -6 4c-45 -3 -90 -6 -135 -11c-42 -4 -84 -10 -126 -16c-67 -9 -134 -20 -201 -27c-25 -3 -51 -11 -78 -3l45 17c-60 5 -111 -9 -167 -19c7 -4 12 -6 18 -9c-15 -10 -32 -12 -49 -15c-31 -5 -61 -12 -92 -19
c-32 -6 -65 -11 -96 -20c-51 -15 -100 -31 -150 -49c-21 -8 -41 -21 -63 -32c-18 6 -18 6 -23 27c11 7 22 15 33 23l-7 9c-11 -7 -22 -14 -34 -23c-9 12 -6 22 5 28c20 12 39 22 60 32c14 6 29 12 44 17c15 4 31 7 46 10c18 3 35 4 53 7c14 2 27 6 41 8c32 3 63 9 93 18
c4 2 9 2 14 2c18 0 35 6 51 18l-24 4c10 5 14 8 20 9c46 9 92 18 138 25c40 6 80 15 121 13c20 -2 40 3 61 5v-1c2 8 9 11 17 12c14 2 27 6 41 7c85 11 170 21 255 30c20 3 40 0 59 2c30 4 59 11 90 16c17 17 27 43 54 54c16 -13 33 -27 56 -45c4 1 15 2 26 3
c153 13 306 27 459 39c153 11 308 20 461 29c32 2 64 3 96 3c39 -1 77 -3 115 -6c10 -1 19 -6 29 -7c9 -1 18 2 31 4c-11 5 -18 7 -25 10v3c24 0 49 1 73 -1c38 -1 77 -4 115 -7c27 -2 49 -13 65 -35c7 -10 15 -17 22 -26zM1995 1277c7 1 13 5 20 8c-4 14 -12 13 -21 13
c-24 -2 -49 -3 -73 -5c-76 -5 -151 -14 -227 -16c-67 -1 -133 -10 -200 -16c-8 0 -15 -2 -23 -3v-4c52 1 104 -2 155 3c23 2 47 2 71 7c31 6 63 4 94 6c37 1 73 2 110 4h2c31 -7 62 0 92 3zM1632 1214c32 -4 64 3 95 10c-32 0 -64 -1 -96 -1c0 -3 0 -6 1 -9zM593 1162
c16 -1 31 1 46 7c-16 2 -32 6 -47 -3c0 -2 0 -4 1 -4zM688 409c4 8 7 17 11 29c-64 -8 -123 -16 -181 -23c-3 5 -5 8 -7 13c-20 -4 -40 -8 -60 -11c-42 -6 -84 -11 -125 -16c-17 -2 -34 -2 -50 -6c-45 -9 -90 -19 -134 -29c-5 -1 -9 -5 -13 -8c5 -4 9 -4 13 -4
c11 3 22 7 32 9c32 7 64 13 95 19c5 1 9 0 14 0v-3c-43 -12 -86 -23 -136 -36c14 -10 23 -16 32 -22c25 -18 50 -36 66 -64c13 -21 25 -43 41 -61c30 -33 47 -72 62 -112c5 -13 9 -26 12 -40c12 -51 23 -103 36 -161l4 33c1 0 2 1 4 1c8 -21 15 -42 24 -65
c17 12 24 29 32 44c28 57 56 113 81 171c50 113 98 228 147 342zM617 171c3 6 4 13 7 25c-17 -19 -44 -80 -55 -119c-14 -19 -20 -42 -25 -65c12 20 23 40 27 63c3 3 7 6 9 10c13 28 25 57 37 86zM529 -65c-14 8 -3 17 -1 25c3 12 7 24 11 36c-2 0 -3 1 -5 1l-81 -179
c11 -5 16 3 22 9c26 27 39 62 52 97c2 3 3 10 2 11z" />
    <glyph glyph-name="G" unicode="G" horiz-adv-x="1138" 
d="M1824 528c6 -23 10 -40 14 -57c-14 -25 -14 -25 -38 -33c-6 4 -15 8 -21 15c-49 50 -110 74 -178 82c-90 11 -179 10 -268 2c-84 -7 -168 -19 -252 -28c-18 -2 -35 0 -53 0c0 2 1 4 1 8h-16c-5 0 2 -9 2 -13c-9 -12 -22 -19 -31 -38c19 8 25 27 45 24
c1 -14 -4 -27 -14 -34c-19 -16 -31 -36 -42 -57c-30 -58 -60 -117 -91 -175c-25 -45 -50 -90 -76 -135c-2 -4 -6 -7 -9 -10l33 67c2 4 3 8 5 12c-2 1 -4 3 -6 5c-2 -6 -5 -11 -8 -18c-2 4 -4 6 -3 6c9 22 18 43 29 64l87 168c1 1 1 3 2 10c-6 -7 -10 -9 -12 -13
c-24 -46 -49 -91 -73 -137c-12 -23 -23 -45 -35 -67c-1 -5 -2 -9 -4 -13c-8 -19 -20 -38 -33 -55c-3 -7 -7 -13 -11 -20c-29 -52 -59 -103 -90 -154c-29 -47 -58 -93 -89 -138c-11 -16 -29 -27 -41 -43c-16 -21 -31 -43 -42 -68c17 12 34 25 52 38c10 -16 1 -24 -5 -33
c-27 -38 -54 -77 -83 -114c-51 -67 -103 -134 -155 -200c-6 -8 -12 -16 -13 -25c-3 -19 -14 -34 -26 -49c-125 -168 -253 -334 -396 -489c-46 -50 -95 -98 -146 -144c-40 -35 -79 -70 -124 -98c-26 -17 -54 -31 -82 -44c-47 -20 -96 -19 -143 -3c-41 14 -72 40 -76 88
c-2 16 -8 32 -10 47c-8 67 7 131 27 194c32 102 78 197 132 289c96 160 195 318 310 465c40 52 85 100 128 149c13 15 30 26 45 40c20 18 46 25 72 26c11 1 23 -5 34 -11c9 1 18 2 30 4l19 -26c-16 -3 -28 -4 -44 -7c13 -5 23 -10 38 -17c-10 -4 -17 -9 -24 -10
c-38 -7 -69 -26 -95 -53c-38 -39 -77 -77 -111 -120c-72 -89 -141 -180 -211 -271c-24 -30 -47 -60 -70 -91c-12 -17 -23 -34 -25 -55c-1 -12 -7 -23 -13 -34c-50 -90 -95 -183 -133 -279c-22 -59 -36 -121 -31 -185c1 -14 3 -28 7 -41c10 -33 33 -47 67 -40
c12 2 23 7 36 11c0 5 1 9 1 15c99 46 176 122 255 195l4 -3c1 -1 0 -2 0 -3s-1 -3 -1 -9l23 18c2 -3 5 -5 7 -7c41 27 68 68 94 107c18 26 32 55 48 83c7 11 14 22 23 32c11 13 22 29 36 39c25 17 44 40 66 62c-1 -5 -2 -10 -2 -15h4c20 25 40 48 53 79c10 22 29 41 44 61
c21 27 41 55 62 82c15 19 31 36 46 54c10 12 19 25 28 37c21 26 42 53 62 79c4 5 7 11 8 18c-20 -18 -35 -40 -52 -61c-18 -22 -36 -43 -58 -63c2 4 3 9 6 13l77 104c48 67 96 135 145 201c33 44 69 87 103 130c13 18 25 36 36 55c11 20 14 44 29 63c10 12 18 26 26 40
c-2 -2 -4 -3 -6 -4c-29 -20 -58 -38 -88 -55c-12 -7 -25 -10 -37 -15c-10 -4 -20 -8 -30 -14c-44 -27 -91 -43 -142 -50c-38 -5 -75 -11 -112 -3c-48 11 -92 31 -126 65c-34 33 -45 76 -46 123c-2 38 5 75 9 111c2 26 10 52 19 77c24 62 50 124 86 180c4 6 6 14 11 17
c20 11 24 31 32 50c7 16 16 30 26 44c51 73 107 143 172 205c25 24 54 45 82 67c5 5 13 8 20 10c17 4 28 16 40 27c-2 3 -3 5 -5 7c-10 -5 -20 -10 -30 -16l-3 5c10 10 21 20 32 30c66 54 136 103 210 147c22 13 45 22 69 33c7 3 15 6 24 1c2 -2 8 2 14 4c-1 4 -3 8 -5 14
c7 5 15 10 23 13c38 16 74 33 113 46c41 14 84 26 126 36c13 3 28 -1 47 -2c-9 -7 -13 -11 -22 -17l185 30c43 -10 86 -36 122 -76c17 -19 21 -45 21 -69c0 -29 -4 -58 -25 -81c-24 -6 -24 -6 -36 19l-12 -6c-12 10 -8 21 -4 33c8 28 10 44 6 69c-7 4 -16 11 -25 14
c-40 15 -81 21 -124 19c-150 -10 -286 -64 -416 -133c-85 -44 -163 -98 -237 -158c-31 -25 -63 -50 -96 -76l-6 9c-11 0 -20 -6 -27 -15c-42 -50 -85 -100 -126 -151c-40 -48 -75 -99 -108 -152l-20 -30c-3 2 -5 5 -9 9c-15 -29 -30 -58 -45 -88c5 -2 8 -3 11 -5
c3 -3 4 -6 8 -10l-26 -71c-18 -48 -23 -99 -29 -149c-4 -38 10 -70 30 -101c4 -6 12 -12 19 -15c20 -6 40 -12 60 -14c67 -5 132 5 195 32c2 1 5 1 9 -1c-17 -9 -33 -18 -50 -25c-18 -8 -36 -15 -55 -22c-18 -6 -37 -13 -56 -18c-18 -4 -38 -7 -59 -11c23 -17 46 -11 69 -4
c24 6 48 13 72 21c19 7 41 12 55 25c19 17 40 30 59 46c6 5 8 14 13 23c87 50 176 101 239 178c1 28 -20 32 -31 44c5 16 9 33 14 53c12 -9 21 -16 32 -25c8 8 18 3 28 -4c5 -4 10 -9 14 -14c10 16 20 32 28 49c12 21 21 44 32 66c26 50 53 99 80 151c-14 -2 -28 -2 -40 -7
c-21 -10 -46 -11 -63 -29c-13 4 -22 -6 -33 -8c-27 -6 -55 -12 -82 -20c-36 -10 -71 -23 -107 -35c-19 -7 -19 -7 -38 5c86 36 174 58 263 78c-92 -3 -178 -31 -263 -62c-2 3 -5 7 -7 12c-3 4 -7 9 -9 13c15 20 34 28 53 36c74 31 153 47 231 62c53 10 106 14 159 21
c12 2 24 5 36 7c31 5 64 4 93 15s59 13 88 17c91 11 182 19 273 15c15 -1 29 -6 44 -9c28 -5 57 -11 86 -14c9 -1 20 6 31 11c66 -11 119 -49 167 -85zM802 993c-8 -5 -16 -9 -23 -14c1 -1 2 -3 3 -5l24 13zM764 968c-35 -18 -68 -38 -96 -65c34 19 67 39 96 65zM276 531
c-6 -9 -18 -13 -19 -33l24 29c-2 1 -3 3 -5 4zM445 -467c8 22 28 36 39 55l6 -3c-14 -19 -27 -37 -40 -56c-2 1 -4 3 -5 4zM-576 -1267h-5l6 39h4c-1 -13 -3 -26 -5 -39z" />
    <glyph glyph-name="H" unicode="H" horiz-adv-x="1549" 
d="M769 -999l-51 3c1 7 3 12 5 18c-4 2 -7 3 -12 6c1 11 0 24 3 34c10 29 22 56 34 84c23 55 49 110 70 166c22 60 42 120 61 181c5 14 17 22 21 35l42 166c0 3 -1 6 -2 10l-9 -3c10 72 15 144 13 216c-3 73 -29 139 -46 209c39 -37 59 -81 66 -133c6 -47 6 -93 5 -139
c0 -14 -3 -28 -5 -42c0 -5 -3 -9 -2 -14c3 -43 -4 -86 -8 -128c-3 -31 -8 -62 -10 -93c12 54 29 106 32 162c3 47 10 95 11 142c0 32 -8 65 -10 97c-2 31 -7 60 -17 90c-9 25 -20 49 -35 72c2 -11 3 -22 4 -33c-21 70 -62 128 -119 174c-28 23 -59 44 -96 51
c27 -20 55 -37 80 -59s46 -48 65 -76c-16 14 -32 30 -50 43c-18 14 -37 28 -57 40c-19 12 -40 23 -61 35c-5 -9 -9 -14 -11 -20c-34 -85 -67 -170 -91 -258c-8 -29 -19 -57 -30 -85c-7 -17 -11 -18 -34 -15l-14 24c-6 -4 -11 -8 -16 -11c-1 0 -2 1 -2 2c0 0 1 1 1 2
c6 74 37 141 58 211c15 51 36 101 54 151c3 8 6 16 9 26c-18 5 -34 10 -50 13c-61 11 -122 22 -183 31c-29 4 -60 1 -89 2c-62 2 -123 5 -184 8c-21 1 -43 2 -64 6c-13 3 -26 9 -43 15c15 15 -6 24 2 39c6 11 5 26 8 42c20 6 39 13 58 15c66 9 132 16 199 24
c86 9 172 17 258 26c61 6 123 13 187 20c4 9 9 18 13 27c32 70 63 140 96 210c14 29 30 56 46 84c6 10 14 18 21 27c16 -8 30 -16 44 -24c4 -9 7 -16 11 -27c-2 -6 -3 -14 -8 -21c-43 -57 -68 -123 -98 -187c-12 -26 -24 -53 -36 -82c7 -1 13 -3 19 -3c25 2 51 3 75 8
c57 9 112 20 168 30c10 2 22 6 30 -7c1 -3 9 -2 13 -2c50 4 100 5 149 16c37 8 75 12 112 18c7 1 14 3 22 5c10 24 20 46 29 70c10 24 22 47 36 69c11 19 26 36 23 61c-1 10 6 20 10 30c44 109 89 219 133 329c12 29 23 58 33 87c10 25 19 51 23 78c7 41 30 77 48 116
l48 -25c-5 -55 -26 -105 -23 -161c-2 -1 -6 -2 -14 -4l-38 -99c-1 47 13 90 32 136c-27 -8 -28 -29 -34 -44c-14 -29 -33 -55 -36 -90c-2 -25 -16 -49 -25 -74c-5 -16 -8 -32 -12 -48c0 -4 1 -7 2 -13c5 9 8 17 14 29c-34 -149 -98 -282 -154 -422c40 4 74 7 108 11l216 21
c70 6 139 11 208 17c12 1 25 2 37 0c33 -4 65 -1 98 -1c19 0 32 14 52 14c31 -1 63 6 95 7c117 6 235 13 352 8c22 -1 43 -5 64 -9c13 -2 26 -4 33 -18c2 -4 10 -8 15 -8c23 -2 31 -22 42 -38c2 -3 4 -9 3 -13c-3 -16 -5 -33 -16 -49c-6 9 -10 16 -13 22l-50 -6
c-3 43 -38 36 -63 40c-23 3 -47 1 -71 1h-81l-163 -6c-33 -2 -66 -1 -98 -7c-37 -6 -75 -7 -111 -16c-53 -13 -106 -16 -159 -21c-151 -16 -301 -30 -452 -45c-22 -2 -43 -1 -65 -2l-21 -3c-11 -21 -21 -42 -31 -62c-17 4 -15 -10 -20 -18c4 -3 6 -6 9 -8
c-14 -37 -27 -74 -42 -111c-101 -249 -202 -498 -304 -747c-15 -37 -33 -73 -53 -109c7 27 15 55 23 82c-2 0 -3 1 -5 1c-14 -33 -30 -65 -42 -98c-9 -25 -12 -51 -18 -77c-16 -65 -37 -129 -64 -192c-21 -47 -41 -94 -70 -137c-12 -18 -23 -36 -27 -58
c-3 -19 -18 -33 -33 -44zM992 -386c26 53 44 109 57 166c7 30 13 61 23 91c10 32 25 62 38 93c11 26 24 51 33 77c9 27 30 50 32 80c0 3 4 6 5 9c5 9 9 18 13 28c10 23 21 47 30 71c14 36 27 73 40 109c6 17 10 35 16 51c23 56 46 112 71 171c-10 2 -16 4 -22 3
c-25 -2 -51 -5 -76 -10c-49 -9 -99 -19 -150 -17c-25 1 -50 -2 -75 -5c-21 -3 -42 -9 -63 -13c-36 -6 -73 -11 -109 -16c-31 -4 -63 -7 -95 -11l-47 -113c11 -6 19 -11 27 -13c34 -10 63 -29 90 -50c15 -12 27 -28 40 -42c18 -20 32 -43 52 -59c12 -10 23 -20 30 -33
c14 -27 28 -55 39 -84c22 -57 33 -117 34 -179c1 -52 1 -105 -2 -157c-2 -29 -11 -58 -17 -85c0 3 -2 8 -3 13c-4 -13 -1 -26 -2 -38c0 -12 -6 -24 -9 -37zM351 487c22 3 44 6 67 8c37 4 74 9 111 10c39 2 78 -1 118 -1c12 0 25 3 37 5l7 20c-4 1 -6 3 -9 3
c-26 -4 -51 -8 -77 -11c-40 -4 -81 -8 -122 -11c-39 -3 -79 -5 -118 -6c-17 -1 -33 -5 -48 -14c12 -3 23 -4 34 -3zM642 409c19 33 26 56 26 76c-20 3 -39 0 -58 -4c-21 -5 -42 -10 -63 -12c-45 -5 -90 -9 -140 -14c45 -7 84 -13 122 -21c39 -7 76 -17 113 -25zM684 394
c10 26 19 49 28 71l-6 3c-9 -21 -19 -41 -28 -62c0 -2 3 -6 6 -12zM567 388c3 0 6 3 12 6c-7 2 -11 4 -15 5c12 0 24 -3 36 -3c12 -1 22 -13 37 -2c-66 19 -132 29 -198 36c-32 4 -63 8 -95 10c-24 2 -48 1 -72 1v-8c9 -1 18 -1 26 -1c43 -5 85 -9 128 -13
c38 -3 75 -9 112 -22zM1262 197c16 29 28 59 40 89c5 14 8 28 12 42c9 11 18 21 12 37c-4 -12 -8 -24 -13 -36c-22 -32 -35 -67 -45 -104zM648 301c4 10 6 17 9 24c-11 -9 -11 -9 -9 -24z" />
    <glyph glyph-name="I" unicode="I" horiz-adv-x="933" 
d="M-540 -382l-11 34l24 14l-4 20c51 20 105 32 159 44c53 12 106 21 158 31c3 -4 3 -4 3 -5s-1 -1 -2 -2c0 -1 0 -3 -1 -5c20 1 39 3 59 4c12 1 22 5 27 16c3 9 9 12 16 13l80 12c17 2 33 5 50 6c16 1 31 0 47 0c9 0 18 -1 27 0c24 4 47 10 71 14c-11 12 -30 -8 -43 10
c29 5 57 9 84 13c64 8 129 17 193 24c25 2 39 13 49 35c32 76 64 152 98 228l294 653c7 15 13 30 20 47c-25 6 -47 13 -71 9c-51 -7 -101 -16 -150 -30c-52 -14 -106 -23 -159 -34c-8 -2 -16 -6 -24 -8c-25 10 -25 10 -20 34c-5 6 -20 3 -15 20c19 22 46 34 76 39
c63 10 126 20 189 28c69 9 138 16 209 24c10 20 18 38 27 55l31 -11l-9 -24c15 -8 29 -13 46 -12c57 2 115 3 172 6c-10 2 -21 3 -31 4c69 5 138 15 213 1c-11 -1 -15 -3 -20 -2c-40 10 -80 -2 -121 -4c-15 -1 -31 -7 -46 -13h23c46 4 91 3 137 -1c30 -3 61 -7 91 -12
c12 -2 24 -10 37 -15c-8 -19 -26 -22 -38 -34c-49 20 -99 11 -148 9c-59 -3 -118 -10 -177 -15l-110 -6c-6 0 -12 -2 -21 -3c-32 -71 -63 -142 -95 -213c-33 -71 -66 -142 -98 -213c-32 -70 -62 -141 -94 -211c-31 -71 -63 -141 -99 -210c4 15 9 29 13 44c-2 0 -4 1 -5 2
c-21 -31 -37 -64 -47 -99c-5 -19 -9 -38 -3 -58c2 -5 -3 -12 -5 -21c14 0 28 -1 42 1c28 2 57 5 85 10c32 5 64 13 96 19c17 19 41 18 64 20c156 10 312 20 468 18c30 0 60 -1 90 -2c16 0 32 -2 46 -10c5 -17 0 -30 -13 -41c2 -5 4 -10 7 -15c7 -12 2 -22 -7 -30
c-4 -3 -10 -6 -15 -8c-43 -16 -88 -28 -137 -24c-8 22 -25 37 -54 52c-14 0 -40 6 -62 -1c-24 -8 -47 -7 -71 -10c-8 -1 -16 2 -24 7c19 1 39 2 65 4c-17 13 -32 12 -45 13c-23 3 -47 5 -70 2c-16 -2 -33 -9 -46 -18c-14 -9 -28 -14 -44 -15c-75 -6 -149 -11 -223 -17
c-61 -5 -122 -6 -182 -19c-47 -9 -94 -6 -141 -13c-126 -20 -252 -37 -377 -54c-33 -5 -65 -8 -98 -12l-8 -2c-80 -26 -163 -36 -244 -57c-30 -8 -60 -16 -90 -22c-11 -2 -22 -9 -35 0c-6 4 -21 -5 -33 -8zM361 -163c13 -3 28 -8 41 3zM-159 -277l19 16
c-23 -5 -23 -5 -19 -16z" />
    <glyph glyph-name="J" unicode="J" horiz-adv-x="1328" 
d="M1628 1130c0 -37 1 -75 -15 -111c-30 -72 -66 -142 -106 -208c-56 -91 -115 -181 -172 -271c-8 -13 -14 -26 -23 -39c-24 -35 -48 -70 -72 -106c-6 -9 -12 -19 -18 -29c-11 -20 -21 -42 -34 -61c-67 -103 -136 -205 -205 -307c-13 -20 -28 -38 -42 -56
c-6 -8 -12 -15 -17 -23c-44 -81 -101 -154 -154 -229c-52 -73 -107 -143 -162 -214c-13 -17 -30 -30 -44 -47c-15 -17 -29 -36 -43 -55c-45 -62 -99 -116 -153 -169c-79 -78 -165 -149 -260 -207c-42 -26 -86 -43 -134 -57c-47 -14 -92 -14 -139 -9c-32 4 -59 17 -79 44
c-4 6 -10 12 -16 16c-21 11 -32 30 -40 52c-10 31 -15 62 -18 94c-14 140 23 270 77 397c20 48 44 95 70 141c12 23 30 42 45 63c13 0 14 14 22 19c2 -4 5 -8 9 -14c19 30 42 55 51 87c-6 -6 -11 -12 -16 -19l-33 -37l33 60l25 46c7 14 12 30 22 42c71 92 143 182 215 272
c14 18 31 33 47 49c3 3 5 7 8 7c31 9 45 37 63 59c29 37 55 77 95 103c17 11 33 21 51 29c19 9 58 0 71 -21c3 -6 8 -12 13 -20c-2 -11 -3 -23 -7 -35c-8 -27 -33 -44 -61 -37c-21 6 -33 -1 -47 -14c-73 -71 -140 -148 -203 -227c-68 -84 -133 -170 -200 -256
c-14 -17 -29 -33 -43 -51c-23 -29 -45 -59 -69 -91c0 0 -2 1 -6 2c-6 -8 -12 -16 -17 -24c2 9 5 19 8 28c2 6 5 12 7 18c1 5 2 11 4 16c-14 -24 -35 -44 -42 -71c5 -2 8 -3 10 -3c-3 -13 -7 -27 -11 -40l4 -3c9 10 17 20 27 31c2 -12 -5 -20 -10 -28
c-32 -60 -62 -122 -85 -187c-24 -65 -41 -130 -51 -199c-7 -50 -4 -97 7 -145c7 -25 17 -48 36 -65c6 -6 15 -12 23 -14c17 -4 38 -2 51 -11c17 -11 32 -3 47 -3c17 1 34 8 51 14c68 22 126 64 183 106c55 40 106 86 154 135c25 26 45 54 55 89c2 6 6 12 11 16
c72 78 139 160 204 244c3 4 7 7 10 10c-5 -12 -10 -23 -16 -35c1 0 2 -1 3 -2c27 33 54 65 83 99c3 -4 6 -6 9 -9c-9 -16 -16 -31 -24 -45c-7 -16 -15 -32 -22 -48c-6 -15 -20 -26 -18 -50c8 10 14 15 17 21c13 27 25 55 40 82c16 31 39 57 49 91c2 6 6 12 10 17
c29 36 52 78 83 113c1 2 0 7 -1 16c-9 -11 -15 -19 -21 -25c-44 -41 -78 -89 -116 -134c-7 -8 -15 -14 -23 -20l75 105c99 142 198 285 297 426c34 48 70 93 104 140c15 19 26 40 36 62c14 29 32 56 51 81c21 27 37 56 55 85c54 82 109 164 159 249c43 72 79 148 117 222
c2 3 3 7 5 12c-5 2 -9 3 -13 4c-99 17 -197 11 -295 -5c-228 -36 -455 -74 -682 -112c-26 -4 -52 -10 -78 -12c-24 -2 -42 -8 -47 -31c-19 0 -36 -1 -53 1c-18 2 -35 7 -49 23c5 14 -2 32 11 45c7 6 14 12 22 16c13 5 26 9 40 12c20 5 39 10 58 18c19 9 42 10 63 14
c49 8 99 11 147 23c30 7 59 10 89 8c24 -3 46 2 64 15c14 10 29 13 44 15c121 19 242 39 363 56c71 10 143 16 216 9c46 -4 92 -7 136 9c17 -12 33 -24 50 -37zM1498 1098c19 1 38 -12 59 5c-22 9 -40 -2 -59 -5zM1360 633c7 13 24 22 23 45c-22 -27 -43 -48 -51 -79
c9 11 21 21 28 34zM1115 243c9 14 18 28 28 42l-7 3c-8 -14 -22 -25 -21 -45zM1021 115c4 5 6 11 9 17c-2 1 -3 2 -4 4c-4 -4 -9 -7 -12 -11c-37 -47 -73 -93 -108 -140c-12 -16 -21 -34 -23 -61c50 66 88 133 138 191zM823 -200c22 26 40 49 51 79c-30 -10 -47 -28 -55 -54
c2 -7 3 -14 4 -25z" />
    <glyph glyph-name="K" unicode="K" horiz-adv-x="1001" 
d="M2210 -1570c3 -19 1 -36 -14 -49c-6 -6 -10 -14 -15 -21c-20 -21 -56 -22 -72 -2c-1 2 -1 6 -2 9c-5 2 -10 3 -15 5c1 6 3 11 3 16l-3 17l31 41c-8 18 -15 39 -26 57c-37 57 -73 114 -113 169c-31 44 -66 86 -99 129c-8 11 -14 23 -21 34c-13 23 -26 45 -51 59
c-10 5 -17 17 -25 27c-44 50 -87 101 -131 151c-9 9 -14 19 -15 31c2 0 5 0 6 -1c22 -26 44 -52 66 -77c14 -17 28 -33 42 -49c-44 77 -100 143 -165 202h-16c-1 1 -3 1 -5 2c-11 8 -13 23 -26 31c-13 7 -22 20 -33 30c-10 10 -21 19 -31 28l-33 32c-7 7 -16 13 -22 21
s-10 17 -15 26c-35 32 -72 64 -107 97c-38 36 -74 74 -113 108c-23 19 -48 34 -71 51c-100 77 -200 154 -300 229c-142 108 -291 204 -444 296c-7 4 -14 7 -23 12c-22 -43 -44 -85 -66 -126c-15 -28 -31 -56 -48 -83c-22 -34 -36 -38 -75 -25l-30 10c6 6 9 10 12 13l-6 9
c0 2 0 4 1 5c1 2 3 5 6 6c31 13 41 43 54 70c21 43 44 85 66 128l16 32c-8 5 -14 10 -21 14c-55 28 -109 55 -163 84c-30 16 -58 35 -85 51v48l34 40c34 -2 64 -3 95 -6c19 -1 37 1 55 6c78 17 153 46 227 76c17 7 29 19 38 35c61 112 123 223 184 334c7 12 16 23 24 36
c18 -10 34 -19 50 -29c-27 -42 -54 -84 -81 -125c-19 -29 -40 -57 -47 -94c-7 -31 -21 -60 -33 -93c8 2 14 3 19 6c102 51 205 99 305 153c109 59 215 123 323 185c36 21 74 40 111 59c4 2 8 5 11 4c22 -5 36 11 53 20c13 8 26 15 42 20c18 4 37 16 47 41
c-30 -8 -51 -27 -80 -29l54 34c151 96 301 192 452 289c10 7 19 16 29 25v1c6 13 26 12 30 27c-39 5 -67 -15 -92 -39c-4 -3 -4 -9 -6 -14v1c-2 -1 -5 -2 -9 -3c-1 5 -3 10 -5 15c-7 1 -16 0 -18 11c17 64 139 112 190 91l23 -34c-2 -6 -6 -13 -9 -22c1 -5 2 -13 5 -19
c10 -19 4 -35 -10 -48c-21 -18 -44 -35 -70 -49c3 4 5 9 8 15c-13 0 -21 -7 -29 -14l-112 -97c-13 -11 -27 -22 -41 -31c-59 -39 -119 -78 -180 -116c-24 -15 -49 -27 -79 -43c-5 -6 -15 -15 -24 -25l-14 10c-128 -77 -250 -164 -387 -225c16 -16 31 4 49 -1
c-17 -10 -31 -19 -46 -27c-109 -64 -219 -129 -335 -180c-68 -30 -136 -59 -203 -89c-38 -16 -69 -40 -87 -79c-21 -44 -45 -87 -67 -131c-3 -5 -5 -12 -8 -20c64 -40 127 -80 190 -121c0 -1 -1 -3 -2 -4l-37 16c-13 6 -26 11 -41 14c3 -3 6 -7 9 -9c40 -27 79 -53 119 -79
c18 -12 38 -23 56 -36c31 -22 61 -46 91 -69c52 -39 104 -77 155 -117c26 -20 48 -44 72 -67l39 -36c3 -2 7 -1 12 -1c-1 23 -22 31 -36 52c11 -7 17 -11 22 -15c45 -33 89 -67 134 -98c57 -38 104 -87 155 -130c29 -25 55 -52 82 -77c67 -62 126 -130 187 -196
c70 -76 138 -154 203 -234c31 -38 64 -74 94 -113c32 -39 62 -79 91 -120c25 -35 47 -72 70 -108c17 -26 33 -52 51 -79c6 14 -12 21 -7 35c4 -6 8 -10 12 -15l60 -99c16 -29 26 -60 30 -93zM1959 1344c-24 -20 -48 -40 -71 -60c-5 -4 -8 -8 -13 -12c4 0 9 -1 13 1
c22 13 44 26 65 42c23 18 43 39 65 58l-3 6c-6 -2 -14 -2 -19 -6c-13 -9 -25 -19 -37 -29zM1873 1270l-26 -15c2 -2 3 -3 4 -5c8 5 15 12 22 20zM621 666c4 30 66 145 84 160c2 2 6 1 13 2c-34 -56 -65 -107 -97 -162zM1021 732c-39 -14 -70 -32 -105 -54
c25 -1 88 32 105 54zM907 674c-31 5 -43 -15 -59 -28c19 6 39 10 59 28zM533 581l-36 -49c25 6 29 28 36 49zM331 380c20 -10 36 -5 55 18c-17 -6 -35 -11 -55 -18zM397 323c-5 -8 -12 -18 -1 -28l16 22l-7 -36c23 34 44 69 43 113c-35 -13 -36 -47 -51 -71zM328 269
c17 34 33 65 49 96c-2 1 -3 3 -4 4c-44 -12 -83 -37 -128 -48v-6c27 -15 53 -29 83 -46zM825 -134c9 -5 19 -9 31 -15c-1 6 -1 9 -2 9c-31 23 -62 47 -94 68c-65 45 -130 90 -196 133c-27 17 -52 42 -93 40c14 -11 24 -19 36 -26c50 -33 101 -65 151 -98
c56 -37 108 -79 167 -111zM446 -245c0 -5 2 -9 5 -13c11 -20 5 -37 -10 -51c-12 -12 -25 -24 -38 -35c-18 8 -28 14 -16 30c-8 11 2 19 7 26c-15 20 -36 25 -57 29c-47 9 -95 13 -143 12h-48c24 10 46 -2 67 16c-60 3 -114 -10 -172 -20c-2 9 -3 18 -4 29c-4 3 -16 0 -13 15
c19 26 44 38 80 33c37 -5 75 0 113 -2c43 -3 85 -8 127 -20c21 -6 41 -14 59 -29c5 -5 12 -8 23 -14c-4 18 -10 28 -23 33c-25 9 -51 18 -77 26c-21 5 -44 8 -66 16c7 0 13 1 20 1c38 -3 76 -8 113 -21c29 -10 52 -26 53 -61zM1500 -729c2 -12 6 -22 21 -23
c-7 8 -14 16 -21 23z" />
    <glyph glyph-name="L" unicode="L" horiz-adv-x="925" 
d="M1828 -24c19 -64 0 -109 -51 -123c-15 8 -31 16 -49 25c16 14 32 25 31 48c-6 -2 -11 -4 -20 -8c9 12 15 21 23 32c-8 5 -16 13 -25 15c-25 6 -51 13 -77 13c-143 1 -285 -13 -426 -33c-38 -6 -76 -10 -115 -14l19 9c-20 -6 1 13 -9 15c-13 -3 -26 -5 -41 -8l32 -15
l-109 -24l-58 -9c-26 -5 -49 3 -78 9c-11 -4 -27 -8 -43 -13c1 -2 1 -4 1 -6c7 1 14 1 23 2c-2 -2 -3 -4 -4 -4c-66 -19 -131 -38 -197 -58c-58 -17 -115 -33 -172 -52c-208 -69 -365 -136 -561 -233c-73 -36 -143 -75 -211 -120c-18 -12 -36 -26 -55 -40
c18 -25 -10 -32 -13 -48c-37 5 -49 10 -69 27c-3 41 11 76 45 101c35 25 70 51 107 73c72 45 148 85 225 121c26 12 47 34 60 61c26 53 52 105 77 157c19 39 37 78 56 117c3 6 8 11 12 17c3 11 6 21 11 31c78 168 157 337 236 505c15 31 33 61 48 93c36 76 71 152 105 229
c14 31 24 64 38 96c39 92 80 184 117 277c22 55 40 112 57 168c4 12 16 17 15 33l13 -32c8 15 3 36 18 48c8 -5 14 -10 21 -14c12 -19 7 -38 2 -57c-23 -87 -55 -172 -91 -254c-93 -212 -187 -423 -283 -633c-73 -161 -148 -320 -224 -480c-46 -98 -94 -195 -143 -295
c23 -5 38 15 59 14c2 -3 4 -6 7 -12c27 14 53 27 79 41l-1 -1c44 13 86 30 125 54c3 1 3 8 5 14c109 39 221 73 335 103c113 30 228 51 344 71c115 19 231 38 348 44l-52 -18v-3c19 3 37 4 55 8c40 7 80 16 120 23c20 3 40 2 59 1c32 -2 63 -5 95 -10c41 -5 81 -12 117 -39
c0 -23 24 -26 37 -39zM185 55c-11 -16 -19 -30 -28 -44c1 -9 2 -17 4 -25c11 22 22 43 24 69zM1292 7c2 0 3 4 5 8c-15 15 -22 -5 -32 -4c-12 2 -22 -3 -32 -10c20 0 40 3 59 6zM1697 -2l43 -9c-13 10 -26 18 -43 9zM1595 -12c19 0 39 1 58 2c0 3 -1 5 -1 8
c-103 -4 -207 -5 -309 -26c26 1 51 1 77 5c39 5 79 10 119 10c18 0 37 0 56 1zM977 -56c52 -1 100 14 150 24c-53 10 -101 -10 -150 -24zM1813 -84c3 13 5 27 8 40c-10 6 -14 20 -27 12c3 -13 4 -24 8 -35c2 -7 7 -12 11 -17zM153 -55l-15 -31c10 8 20 16 15 31zM1774 -108
c19 20 19 24 7 47c-2 -15 -4 -29 -7 -47zM1809 -113c7 7 10 15 12 22c0 1 -4 3 -7 5c-2 -9 -3 -18 -5 -27zM766 -120c26 -3 50 2 59 13zM244 -291c34 12 68 25 103 38c-22 17 -23 18 -38 4c-14 -14 -30 -22 -48 -28c-7 -2 -14 -6 -23 -9c3 -3 5 -5 6 -5z" />
    <glyph glyph-name="M" unicode="M" horiz-adv-x="1402" 
d="M1464 787c10 -29 10 -60 3 -89c-14 -51 -28 -101 -45 -151c-23 -67 -49 -134 -74 -201c-1 -4 -4 -7 -7 -11c-7 7 -13 15 -8 27c16 39 30 79 45 119c7 20 13 39 19 59l-8 3c-41 -97 -75 -198 -112 -297l-114 -297h-2l6 40c-24 -49 -44 -127 -41 -155c10 24 18 44 27 68
l23 15c0 3 -2 8 -1 9c11 8 11 19 14 29c15 39 27 79 46 116c10 18 16 38 23 58c5 12 8 25 12 37c3 8 11 14 11 26c0 9 10 19 14 29c13 34 25 68 37 102c2 5 7 9 10 13c-2 -11 -4 -22 -7 -33l-189 -523l-5 17h-5c-5 -15 -11 -30 -15 -45c-17 -56 -35 -112 -60 -165
c-17 -37 -24 -77 -26 -119c15 42 29 83 44 124h2l-12 -73c-20 -99 -40 -197 -59 -295c-17 -89 -33 -177 -49 -266l-2 -11c-22 -54 -19 -112 -23 -168c-6 -69 -9 -139 -13 -208c-1 -19 -4 -37 0 -56c7 -24 22 -38 44 -45c4 -1 7 -3 10 -5c1 0 1 -1 1 -5l-35 -3
c9 -20 27 -19 44 -24c2 -6 3 -13 5 -19c-3 -2 -4 -3 -5 -4c-37 -12 -70 -3 -99 21c-21 18 -26 44 -31 70c-14 71 -10 144 -3 216c18 206 56 410 99 613c32 152 69 302 118 449c30 92 61 184 91 275c0 1 0 2 1 3c32 62 44 131 71 195c26 64 50 129 74 195
c28 79 54 160 81 240c5 15 7 30 5 48l-31 -27c-21 -20 -42 -38 -61 -59c-11 -12 -19 -29 -30 -42c-61 -69 -122 -138 -184 -206c-22 -24 -47 -45 -70 -69c-12 -12 -23 -26 -35 -40c-13 -15 -24 -34 -41 -45c-29 -18 -50 -43 -71 -68c-36 -41 -81 -70 -131 -89
c-13 -5 -25 -3 -35 7c-38 3 -51 15 -53 52c-1 19 -1 39 1 59c10 88 30 175 49 262c7 28 12 57 19 90c-9 -6 -14 -8 -18 -12c-21 -23 -41 -47 -63 -69l-129 -137c-11 -12 -21 -26 -30 -40c-29 -45 -64 -83 -99 -122c-71 -78 -142 -156 -214 -232c-23 -25 -49 -47 -76 -68
c-34 -26 -63 -25 -100 2c-9 35 2 68 13 101c48 146 115 284 182 421c40 82 83 162 125 243c7 15 16 29 25 44c11 0 21 1 35 1l11 15c8 -4 15 -7 22 -11c14 -20 12 -37 -4 -56c-16 -17 -27 -38 -38 -59c-89 -171 -175 -343 -249 -521c-9 -21 -17 -43 -22 -68c3 3 6 4 9 7
c28 25 55 51 82 77c26 25 47 54 68 82c35 45 74 88 112 130c56 63 114 124 168 189c25 30 48 61 74 90c20 23 40 44 61 66c6 6 12 13 19 18c17 12 31 30 57 17c30 -15 56 -32 53 -70c-2 -35 -7 -69 -14 -103c-12 -64 -24 -128 -41 -190c-8 -31 -12 -62 -17 -93
c-2 -10 -1 -22 -1 -36c32 16 58 35 80 57c60 58 120 116 177 177c105 110 207 223 311 334c17 19 36 36 55 53c15 12 31 23 48 35c9 -12 17 -21 25 -30c4 1 7 3 11 4c20 6 28 1 35 -19zM880 230c43 5 62 35 85 59l-6 7c-25 -21 -51 -42 -79 -66zM672 164v-24
c10 -7 18 -8 31 3c-11 8 -20 14 -31 21zM725 146c7 4 15 7 26 13c-15 3 -24 3 -26 -13zM29 -1l50 124l-5 3c-18 -35 -35 -70 -47 -107c-1 -4 1 -10 2 -20zM705 98c10 1 19 1 30 2c-16 16 -32 24 -56 17c9 -2 16 -4 23 -5zM941 -1564c-13 23 -13 23 -36 18l17 -26
c7 3 12 6 19 8z" />
    <glyph glyph-name="N" unicode="N" horiz-adv-x="1019" 
d="M1083 674c4 -15 8 -30 5 -44c-15 -80 -38 -158 -63 -236c-45 -142 -113 -274 -175 -408c-65 -144 -134 -286 -199 -430c-46 -103 -90 -208 -128 -315c-31 -89 -52 -182 -77 -273l-15 -46c-1 -5 -3 -10 -4 -16c-10 -70 -19 -140 -29 -211c-6 -44 2 -97 19 -129
c21 -6 42 -2 62 5l6 -9c2 1 4 1 5 1c46 29 88 60 116 108c6 10 18 16 26 24c16 -8 29 -18 32 -36c-19 -38 -36 -78 -70 -107c-33 -30 -69 -55 -112 -67c-65 -18 -128 16 -146 80c-4 16 -6 32 -7 48c-4 56 -3 112 7 168c14 83 20 167 44 248c15 48 32 94 47 141
c5 16 9 31 12 46c25 109 68 211 113 312c38 86 79 171 118 256l137 293c28 61 60 120 85 181c42 100 89 199 115 305c3 12 6 24 8 36c4 21 2 34 -7 58c-10 -2 -21 -4 -31 -8c-43 -16 -82 -41 -120 -67c-31 -21 -60 -44 -91 -66l-83 -57c-9 -6 -19 -10 -29 -15
c-32 -10 -58 -30 -85 -48c-12 -7 -20 -19 -14 -36c5 2 9 3 13 5c5 3 8 7 13 11l24 17c-2 -4 -4 -8 -7 -11c-84 -73 -168 -146 -253 -218c-44 -37 -89 -74 -135 -109c-17 -14 -38 -23 -56 -36c-11 -7 -20 -17 -29 -25c-15 -4 -24 -13 -29 -28l30 26c14 7 28 14 42 22
c-7 -26 -60 -68 -98 -77c-16 7 -32 14 -49 22c-2 36 11 66 27 95c36 63 71 126 109 187c45 70 91 140 139 208c20 29 46 55 71 85c-2 -9 -3 -15 -5 -20c1 -1 3 -2 4 -2l13 18c23 30 45 62 70 91c9 10 7 22 13 32c13 24 23 51 35 76c5 10 13 19 19 29c61 -29 74 -58 47 -100
c-2 5 -3 9 -5 15c-4 -5 -7 -9 -12 -14c-2 4 -4 8 -7 12c-39 -37 -74 -76 -101 -122c-75 -131 -158 -257 -237 -386c-2 -4 -4 -9 -4 -16c22 19 43 39 65 57c20 18 41 35 62 53l55 48c26 23 52 46 78 68c9 8 17 21 33 18c4 0 10 8 15 12l26 23c8 10 15 20 25 29
c91 87 190 164 297 231c31 20 66 36 100 50c26 11 52 10 78 -7c22 -15 45 -28 52 -55zM477 626c-32 -34 -60 -71 -83 -112c4 -2 6 -4 6 -4c30 36 53 76 77 116zM527 404c45 39 94 71 129 119c-4 0 -6 0 -7 -1l-91 -78c-9 -6 -17 -12 -26 -17c-2 -7 -3 -14 -5 -23zM716 -175
c3 6 5 11 7 17l-4 4c-6 -8 -12 -16 -17 -25c-22 -46 -45 -92 -66 -139c-39 -86 -78 -173 -114 -261c-27 -65 -50 -132 -74 -198c-2 -4 -1 -9 -1 -13c4 -1 6 -2 8 -3c-1 -8 -2 -16 -2 -24c10 22 17 44 26 65c14 36 31 72 46 108c15 37 30 76 47 113c10 23 22 45 31 68
c5 12 6 25 9 37c7 26 12 52 23 76c26 59 54 117 81 175zM412 -1072c9 38 14 76 4 115c-14 -83 -48 -162 -56 -247c5 17 11 34 16 51h2c-1 -33 -3 -66 -4 -100h5c4 20 10 41 12 61c4 41 12 80 21 120zM343 -1264c4 14 6 25 10 38c-13 -11 -16 -22 -10 -38zM641 -1359
c-23 -39 -69 -52 -96 -87c7 -2 12 -4 20 -7c32 26 56 59 76 94z" />
    <glyph glyph-name="O" unicode="O" horiz-adv-x="1449" 
d="M1663 1212c33 -53 40 -110 34 -170c-9 -77 -32 -149 -60 -220c-48 -119 -108 -231 -174 -341c-77 -128 -161 -251 -252 -370c-42 -56 -86 -111 -131 -165s-91 -107 -139 -158c-26 -27 -53 -53 -91 -63c-7 -2 -13 -10 -19 -15c-65 -61 -128 -123 -193 -182
c-51 -45 -108 -82 -169 -112c-12 -6 -26 -11 -38 -17c-12 -5 -24 -10 -36 -16c-2 0 -4 -3 -5 -2c-33 10 -66 -4 -99 -1c-29 4 -56 -9 -86 -21c-33 8 -70 15 -103 35c-47 29 -78 70 -96 121c-24 71 -24 144 -20 217c5 70 20 138 39 205c58 202 149 389 260 567
c51 82 104 162 166 237c44 52 92 101 138 151c7 8 15 18 29 14c2 -1 6 3 9 5c15 12 30 23 45 34c33 26 66 51 98 77c7 6 11 17 19 28c25 12 54 26 87 26c30 0 54 -15 75 -34c12 -11 18 -29 6 -46c-12 5 -25 9 -35 13c-9 -5 -14 -11 -21 -12c-41 -4 -76 -24 -110 -46
c-68 -43 -127 -96 -182 -155c-35 -38 -69 -77 -102 -116c-36 -43 -73 -86 -108 -130c-21 -26 -39 -53 -62 -86l21 11c-1 -4 -2 -7 -3 -9c-45 -80 -91 -159 -136 -240c-18 -32 -31 -68 -48 -101c-8 -17 -18 -32 -27 -49c-7 -11 -15 -23 -20 -36c-18 -55 -33 -110 -43 -168
c-10 -60 -21 -120 -23 -181c-1 -54 6 -106 23 -158c9 -27 24 -51 46 -69c12 -10 27 -17 42 -21c46 -12 92 -7 137 4c80 19 152 58 222 101c24 15 47 29 74 39l-49 -41c20 3 111 70 156 115c10 6 19 12 28 18c20 4 33 17 47 30c26 22 51 44 77 65c40 30 68 72 102 108
c2 3 2 9 4 13c4 9 7 19 13 27c25 37 51 74 77 110c17 24 35 46 50 71c9 13 22 23 23 41c0 6 8 12 12 18c88 116 171 236 248 360c48 78 93 158 133 241c18 37 33 76 53 112c33 63 46 130 53 199c3 28 4 56 -13 82c-6 8 -6 21 -10 35c-27 31 -67 35 -108 33
c-16 -1 -32 -4 -48 -7c-22 -4 -44 -12 -68 -8c-14 3 -28 -3 -39 -13c-45 -39 -89 -80 -134 -119c-59 -51 -110 -109 -153 -173c-32 -48 -63 -98 -74 -157c-12 -68 -11 -136 3 -204c6 -27 15 -52 33 -74c21 -24 45 -29 75 -17c26 10 52 20 80 30c13 -7 28 -14 42 -22
c-6 -16 -13 -32 -19 -48l14 -3c-40 -20 -79 -30 -123 -29c-28 0 -53 8 -78 16c-31 10 -53 32 -68 61c-11 22 -19 46 -26 70c-2 8 0 16 1 24c4 24 -1 47 -7 69c-2 7 -6 14 -6 21c-2 59 1 117 22 172c3 8 3 18 15 19c1 0 2 2 3 4l65 102c1 2 1 6 3 12c-14 -1 -16 -11 -21 -18
c-6 -7 -11 -14 -17 -20c11 31 30 58 49 84c79 108 173 200 293 263c52 28 108 47 169 48c3 1 7 0 11 0c2 0 3 -2 7 -4l-60 -22c0 -1 0 -2 1 -4c13 1 28 0 41 3c19 6 37 1 55 -3c10 -3 21 -2 32 -3c7 0 14 1 19 -2c30 -13 55 -32 73 -60zM778 984c-22 -17 -44 -36 -66 -55
c11 -2 22 0 32 7c25 18 51 36 75 54c-15 8 -24 8 -41 -6zM998 834l27 44c-26 -28 -28 -32 -27 -44zM976 470l-10 25c-3 0 -6 -1 -9 -2c4 -9 9 -17 14 -26zM1041 405c-9 3 -16 6 -23 8c5 -7 9 -17 23 -8zM1316 332c18 10 22 27 24 46c-8 -16 -16 -31 -24 -46zM1307 306
c3 8 13 13 8 24l-13 -22c2 0 4 -1 5 -2zM408 -571v3c-13 -3 -26 -7 -39 -10c0 -1 0 -2 1 -3c12 3 25 7 38 10z" />
    <glyph glyph-name="P" unicode="P" horiz-adv-x="1221" 
d="M-56 -603c-17 -20 -35 -17 -48 6c-10 -5 -18 -4 -23 6c4 11 5 22 10 31c9 17 20 32 30 48c69 119 138 239 208 357c22 38 49 72 73 108l38 63c-35 3 -60 20 -85 39c-32 23 -40 50 -30 88c8 29 23 53 41 76c102 130 223 238 366 321c16 9 28 22 37 37l140 222
c16 25 34 49 52 76c21 -18 44 -27 43 -59l-119 -190c81 24 159 43 240 50c14 -16 -6 -21 -8 -34h39c7 -21 2 -36 -13 -49c-40 -8 -80 -16 -121 -23c-36 -6 -70 -16 -102 -31c-31 -14 -62 -28 -93 -41c-23 -10 -40 -26 -53 -48c-58 -97 -116 -193 -175 -290
c-10 -16 -19 -33 -31 -53c43 1 78 19 122 27c-8 4 -12 5 -16 7c66 24 131 47 194 72c62 25 122 55 184 78c33 12 60 30 89 50c34 23 71 41 106 63c108 66 208 142 293 237c33 37 61 78 82 123c17 39 26 79 19 121c-7 41 -27 71 -67 86c-38 14 -76 24 -115 25
c-48 1 -96 -2 -144 -2c-28 0 -55 -9 -84 -4c-12 2 -27 -5 -40 -9c-94 -27 -188 -53 -282 -81c-32 -10 -62 -25 -94 -38c-10 -3 -21 -5 -33 -3c12 6 24 12 38 18c-6 2 -11 5 -15 7c-63 -35 -124 -70 -187 -104c-38 -21 -78 -39 -117 -60c-35 -18 -69 -37 -99 -62
c-20 -16 -42 -28 -63 -42c-51 -34 -104 -64 -152 -102s-92 -82 -131 -131c-13 -17 -24 -35 -35 -54c-5 -8 -12 -20 -9 -28c5 -12 -9 -13 -7 -23c2 -16 4 -32 14 -45c7 -8 18 -13 13 -26c-1 -1 1 -3 2 -4c5 -7 13 -13 13 -20c1 -7 -5 -15 -10 -24l-30 27
c-7 -3 -15 -6 -23 -10c-3 2 -7 4 -11 7c-36 29 -48 65 -37 110c15 63 50 115 90 164c25 32 53 61 87 83c20 13 39 27 57 43c16 15 28 35 47 48c27 19 51 40 79 59c95 65 195 123 301 169c36 15 72 33 107 49c8 3 16 11 26 1c1 -1 8 2 13 3c10 4 21 8 32 11c29 8 59 13 88 23
c37 14 74 30 110 49c-41 -4 -79 -23 -120 -27c72 31 146 53 218 72c8 -3 14 -9 19 -8c33 8 67 13 98 27c62 26 126 26 190 30c56 3 110 -4 161 -29c20 -10 43 -15 64 -23c1 4 1 6 2 8c1 0 3 0 5 -1c31 -21 57 -48 78 -79c39 -59 40 -119 12 -182c-8 -18 -17 -35 -22 -54
c-18 -59 -51 -108 -91 -154c-73 -85 -158 -155 -249 -218c-158 -109 -329 -193 -508 -260c-49 -18 -99 -33 -149 -50c-11 -3 -22 -5 -34 -8l-18 15c-27 -23 -60 -33 -94 -36c-16 -1 -27 -9 -37 -26v17c-10 6 -16 0 -19 -7c-8 -17 -15 -34 -22 -51c-3 -9 -7 -18 -10 -27
c-27 -80 -75 -148 -116 -221c-27 -48 -57 -95 -85 -143c-26 -44 -50 -90 -76 -134c-5 -10 -11 -20 -18 -29zM214 732c37 -1 51 6 84 42c-31 -16 -57 -29 -84 -42zM660 683c20 29 42 55 54 87c-20 -24 -37 -50 -54 -76c-2 -2 0 -7 0 -11zM631 642c9 5 17 10 14 27
c-6 -13 -10 -20 -14 -27zM301 325c62 38 118 83 172 130c14 13 24 31 36 47c-81 -47 -153 -103 -225 -166h22c-2 -5 -4 -8 -5 -11zM292 99c3 9 7 16 7 23c0 25 13 44 24 65l94 162l14 24c-1 1 -3 2 -4 4c-26 -20 -53 -39 -80 -58c-2 1 -4 3 -10 7
c-54 -47 -102 -98 -141 -156c-10 -16 -17 -34 -11 -57c32 -22 69 -22 107 -14zM331 49c41 8 73 35 110 50c-5 1 -9 3 -13 1c-27 -7 -54 -14 -79 -24c-8 -3 -19 -12 -18 -27zM221 -59c3 8 6 17 10 25c17 10 23 29 31 45c-15 -11 -26 -26 -31 -45c-9 -5 -12 -14 -10 -25z" />
    <glyph glyph-name="Q" unicode="Q" horiz-adv-x="1327" 
d="M1372 -721c8 23 15 44 24 65c11 25 16 50 13 77c0 10 0 21 -2 31c-12 -45 -28 -88 -50 -130c-12 9 -6 20 -4 30c3 20 7 40 12 60c11 46 -1 89 -15 132c-3 9 -9 17 -14 24c-28 36 -62 65 -99 92c-59 42 -126 61 -193 83c-81 26 -165 45 -249 59c-4 0 -9 1 -13 1
c-44 -32 -86 -65 -130 -95c-46 -31 -94 -59 -142 -87c-14 -8 -27 -18 -46 -17c-9 1 -18 -8 -27 -13c-48 -25 -97 -46 -151 -54c-48 -6 -96 -8 -144 11c-27 11 -55 16 -79 35c-48 38 -75 88 -76 150c-1 35 -6 69 -4 104c4 93 30 181 67 266c17 41 42 79 64 120
c-4 2 -7 3 -12 6c20 37 39 75 60 112c65 113 137 220 220 320c5 6 9 13 16 17c25 15 38 39 54 62c13 20 29 38 45 55c51 54 107 105 162 156c79 72 163 136 253 192c66 41 133 77 207 101c34 11 69 20 105 19c32 0 60 -10 87 -28c32 -22 61 -47 75 -85c3 -7 3 -16 5 -23
c4 -13 8 -25 9 -38c-7 11 -13 22 -20 34h-28l31 -54c-17 -5 -23 10 -32 14c-5 -1 -10 -2 -13 -2c-3 3 -6 5 -7 8c-9 17 -17 35 -26 52c-13 23 -33 33 -59 32c-35 -1 -69 -8 -102 -19c-6 -2 -12 -5 -19 -7c-29 -10 -57 -27 -90 -30c-27 -3 -47 -21 -68 -37
c-34 -27 -69 -54 -104 -80c-193 -140 -356 -309 -497 -500c-69 -94 -130 -193 -184 -296c-53 -101 -95 -206 -113 -320c-7 -41 -12 -84 -10 -126c1 -37 17 -74 39 -105c6 -9 18 -14 28 -18c47 -17 95 -15 141 -3c47 12 92 29 137 44c5 1 11 3 18 2l-45 -27
c54 12 99 39 143 71v16l115 78c-48 22 -222 14 -300 -13c-24 7 -24 7 -23 31l-20 14c21 30 50 43 80 51c30 9 62 14 94 17c82 8 165 3 247 -8c23 -2 43 -2 59 16c5 4 11 7 17 10c2 -4 3 -7 5 -10c11 8 21 16 32 25c2 -3 3 -6 6 -11c13 10 28 19 38 31c30 39 64 76 86 120
c21 40 55 65 80 99c26 13 38 41 58 60c3 -3 5 -6 8 -7l43 51c7 22 21 51 41 77c22 29 37 63 55 94c1 3 4 7 4 10c-3 25 11 44 20 64c29 59 50 120 55 185c3 36 0 71 -16 105c-30 65 -66 71 -119 56c-28 -8 -54 -21 -79 -35c-61 -32 -114 -75 -159 -127
c-28 -32 -47 -69 -59 -110c-8 -27 -3 -50 12 -73l13 -21c-2 -3 -3 -6 -5 -8c-6 -4 -14 -8 -22 -13c3 -11 17 -19 12 -38c-8 13 -15 22 -22 33c-5 -4 -11 -8 -18 -13c-30 27 -43 61 -43 102c0 56 19 107 47 154c50 85 122 145 207 191c34 20 72 32 113 29c12 0 26 3 38 6
c30 7 55 -4 79 -20c14 -10 28 -22 41 -34c28 -24 44 -56 49 -92c4 -24 6 -48 9 -73c6 -69 -16 -133 -42 -196c-12 -30 -28 -58 -39 -89c-11 -32 -30 -61 -47 -90c-100 -168 -222 -316 -363 -450c-10 -9 -19 -18 -32 -31c143 -31 279 -65 401 -140c-7 -4 -13 -7 -19 -11
l-27 9c-1 -2 -3 -4 -4 -7l14 -8l70 -39c10 -6 19 -13 27 -20c19 -15 34 -34 53 -49c9 -7 10 -23 14 -35c-5 -27 12 -48 20 -72c5 22 -8 40 -10 61c2 -1 6 -2 7 -4c8 -26 16 -51 14 -79c-2 -22 1 -43 2 -65c2 -39 -7 -76 -21 -113c-8 -20 -12 -23 -44 -34zM1287 1180
c-17 21 -37 31 -63 28c-8 -1 -14 -4 -14 -14l35 -8v3c-2 1 -4 3 -7 5c1 1 2 3 2 4zM1321 883c-19 35 -51 34 -81 37zM116 175c7 19 13 37 19 55c-13 -16 -25 -32 -19 -55zM77 65l9 23c20 4 16 23 24 34c0 1 -1 3 -1 5c-3 0 -5 1 -8 1c1 7 3 14 6 26c-23 -38 -33 -69 -30 -89
zM1206 -244c-11 6 -20 10 -28 14c-2 -1 -3 -1 -3 -2c-1 0 0 -1 0 -2c9 -5 16 -16 31 -10zM18 -334c5 17 -4 28 -16 38c5 -12 11 -25 16 -38z" />
    <glyph glyph-name="R" unicode="R" horiz-adv-x="1072" 
d="M2181 -1359c2 -18 -1 -33 -17 -43c-22 -4 -28 10 -32 25h-11c-1 2 -2 3 -3 4c-1 9 -4 19 -4 28c1 26 -9 48 -28 65c-40 35 -79 71 -121 104c-73 58 -146 116 -221 170c-184 134 -370 265 -555 397c-49 35 -98 72 -148 107c-22 16 -45 30 -67 46c-37 28 -72 58 -108 86
c-41 31 -84 60 -125 90c-87 62 -167 131 -244 205c-33 31 -68 62 -94 100c-10 16 -20 32 -28 49c-19 41 -14 71 22 110c26 30 59 56 100 66c14 3 29 5 43 8c26 6 53 12 78 20c31 11 63 22 91 38c66 37 140 55 209 88c78 38 154 79 221 134c29 24 55 51 75 84
c19 32 28 67 20 105c-6 33 -23 59 -52 77c-51 31 -106 47 -164 57c-82 14 -164 18 -247 9c-65 -7 -130 -17 -195 -26c-18 -2 -36 -3 -53 -6c-77 -15 -148 -48 -217 -82c-62 -31 -119 -68 -170 -114c-36 -33 -64 -71 -82 -117c-13 -33 -4 -67 24 -91c11 -10 24 -19 37 -27
c14 -9 29 -15 45 -23l9 -29l16 -10c5 -18 0 -31 -20 -43c-9 2 -21 4 -33 9c-36 15 -67 39 -95 65c-25 23 -28 56 -33 87c-2 12 -4 24 -5 36c-1 6 -1 13 -1 19c1 11 2 22 1 33c-2 18 1 33 10 49c32 52 72 98 121 135c6 5 12 9 18 13c65 54 136 94 221 109c1 4 2 8 3 15
c10 4 22 9 34 13c53 15 105 30 157 44c9 2 18 0 31 0l-15 -25c-42 0 -80 -18 -122 -26c-8 -14 -22 -21 -39 -26c-27 -9 -53 -19 -86 -31c41 -10 74 2 101 9c5 6 7 10 10 12c30 12 61 25 91 36c21 8 43 14 65 21v15c28 8 56 15 84 22c5 2 11 3 15 6c24 15 50 16 76 13
c27 -3 54 -5 84 -7l-14 9c5 1 8 4 11 4l81 -3c3 0 6 0 8 -1c27 -19 58 -12 87 -15c59 -6 112 -25 161 -55c47 -28 80 -70 101 -119c23 -52 22 -105 -10 -156c-24 -37 -54 -66 -86 -96c-19 -16 -34 -37 -50 -56c-13 -15 -24 -30 -42 -40c-45 -26 -88 -54 -133 -79
c-20 -12 -43 -18 -65 -27c-17 -8 -33 -17 -50 -24c-18 -9 -36 -17 -54 -24c-77 -27 -155 -53 -232 -81c-32 -12 -64 -25 -96 -39c-38 -18 -37 -45 -14 -73c17 -23 36 -44 56 -63c46 -42 91 -85 139 -124c65 -52 133 -101 199 -152c15 -11 27 -25 39 -36
c23 -14 45 -26 65 -41c106 -75 211 -150 316 -226c81 -58 162 -115 242 -175c55 -41 110 -81 159 -128c44 -42 95 -73 142 -109c50 -38 101 -76 151 -115c17 -13 34 -26 52 -38c40 -28 78 -59 112 -94c18 -18 31 -38 34 -66c2 -22 12 -42 14 -65zM134 702c25 21 52 41 78 62
c-66 -26 -113 -75 -153 -131c25 23 49 47 75 69zM618 625c-38 -58 -76 -118 -115 -176c-84 -125 -162 -254 -246 -379c-38 -56 -78 -110 -116 -166c-20 -30 -37 -62 -55 -94l-15 -22c-7 7 -13 12 -22 19c-2 -4 -4 -7 -6 -10c15 1 12 -9 10 -18c-13 2 -11 11 -10 19h-10
c5 9 9 17 14 25l-10 23c30 50 60 100 91 150c18 30 37 59 56 88c12 19 22 38 34 56c4 6 12 11 16 17c11 19 20 40 31 59c15 26 31 51 47 77l250 388c15 23 29 46 54 64c6 -7 11 -14 18 -22c-28 -13 -47 -31 -58 -57c-9 -5 -10 -14 -8 -23c-2 -6 -4 -13 -7 -18
c-20 -36 -42 -71 -62 -106c-6 -10 -14 -20 -7 -36c6 6 10 11 19 20c-4 -14 -7 -23 -9 -31c9 7 13 16 20 23c11 11 5 26 12 38l33 71c5 10 11 20 7 32c11 6 15 17 15 29l42 42l19 -44c-12 -15 -23 -25 -32 -38zM754 289c-28 -9 -54 -22 -85 -36c51 2 94 19 140 40
c-22 -1 -40 1 -55 -4z" />
    <glyph glyph-name="S" unicode="S" horiz-adv-x="1148" 
d="M1217 1033c16 -23 13 -47 2 -70c-16 -34 -39 -63 -73 -82c-25 8 -25 8 -26 35c-3 1 -6 1 -12 3c4 32 31 50 46 79c-14 4 -26 8 -38 11c-64 11 -128 8 -191 -2c-72 -12 -144 -27 -215 -41c-8 -1 -15 -1 -27 -3l19 16c-22 3 -38 -2 -49 -18c-3 -4 -2 -12 -11 -8
c-8 -16 -26 -7 -38 -18c-11 -10 -28 -13 -43 -18c-51 -20 -102 -39 -152 -61c-49 -21 -98 -46 -147 -70c0 2 -2 5 -4 9c-51 -32 -104 -60 -142 -109c16 1 21 18 40 24c-28 -33 -58 -59 -68 -98c22 -42 156 -136 232 -161c0 3 0 6 1 10c8 -3 18 -4 28 -8
c89 -35 178 -70 267 -106c8 -3 17 -7 25 -12c48 -27 101 -43 146 -76c36 -7 63 -32 92 -52c68 -47 109 -113 129 -192c5 -20 5 -43 3 -64c-5 -74 -45 -131 -98 -181c-61 -59 -130 -106 -204 -148c-144 -83 -299 -140 -459 -181c-52 -13 -105 -23 -157 -34
c-5 -2 -11 -3 -16 -2c-36 3 -69 -9 -103 -14c-31 -4 -63 -6 -95 -9c-10 -1 -20 0 -30 -1c-104 -11 -207 -2 -307 26c-20 5 -40 12 -57 23c-22 14 -41 32 -60 50c-11 11 -20 25 -30 38c17 28 1 54 -3 85c17 35 42 69 71 100c59 64 122 124 195 173c67 44 135 85 209 114
c33 13 66 23 101 26c8 1 8 1 18 -9c30 3 61 7 93 9c14 1 29 7 43 -5c1 -2 6 -1 10 0c11 4 14 -3 19 -13c-8 0 -14 1 -24 1c6 -14 11 -28 17 -41c-3 -13 -11 -18 -24 -17c-82 3 -161 -11 -239 -36c-33 -10 -67 -20 -95 -44c-5 -4 -13 -6 -20 -9c0 0 0 1 1 1
c-8 -5 -15 -11 -22 -16c-103 -62 -191 -140 -260 -238c-4 -5 -8 -10 -11 -16c-16 -28 -12 -45 16 -61c35 -20 73 -33 113 -41c68 -13 137 -18 206 -17c23 0 46 4 71 0c-10 -3 -19 -5 -31 -9l13 -3c0 -1 1 -2 1 -4c-33 -4 -66 -9 -104 -15l30 -5l-91 -14c19 -6 78 -11 87 -4
c29 26 66 15 101 23c1 3 1 7 1 12c12 5 24 10 39 17c-8 4 -14 6 -24 11c49 6 94 10 138 17c67 12 133 23 199 39c168 41 330 99 480 188c61 36 118 78 164 132c27 31 46 66 53 107c8 47 -5 87 -38 121c-41 43 -92 74 -144 102c-41 22 -84 41 -127 61c-43 19 -86 37 -129 55
c2 2 3 5 6 10c-10 3 -19 7 -29 9c-40 12 -82 21 -121 35c-49 18 -97 40 -145 61c-38 17 -73 40 -105 66c-8 7 -16 12 -24 19c-14 11 -29 21 -32 41c-10 15 -22 30 -30 47c-14 28 -12 57 2 84c25 51 66 85 112 116c5 3 12 5 18 5c13 -2 19 6 25 13c-2 5 -4 9 -8 15
c30 19 58 38 88 55c136 77 282 131 432 174c7 2 14 2 22 3c2 -4 3 -8 5 -11c-10 2 -18 0 -23 -11c10 0 19 0 23 11c9 -5 17 -4 24 5c24 3 48 10 72 13c34 4 68 19 104 11c17 -4 37 3 55 6c-3 22 -22 10 -35 20c56 4 109 10 162 10c27 1 54 -7 80 -15c19 -5 35 -18 36 -41
c0 -5 2 -9 5 -13zM1005 1066c43 -1 85 -3 134 -5c-48 15 -90 9 -134 5zM659 999h20c-5 5 -8 9 -10 9c-4 0 -7 -3 -11 -5c0 -1 1 -2 1 -4zM49 536l11 -6c-1 6 0 10 -2 15c-1 3 -4 5 -9 11v-20zM1001 20c-8 -28 -8 -28 0 -37v37zM-168 -68c-66 -30 -125 -70 -181 -116
c4 -1 7 1 10 2c35 14 68 31 106 35c6 7 11 14 18 18c35 22 70 43 106 64c1 6 3 12 6 23c-24 -10 -45 -17 -65 -26zM-527 -328c-16 -8 -26 -21 -29 -39z" />
    <glyph glyph-name="T" unicode="T" horiz-adv-x="1012" 
d="M2597 924c9 -22 6 -42 -13 -59c-22 -3 -22 -3 -34 17c-20 1 -20 1 -28 30c-28 12 -58 15 -87 18c-75 7 -150 12 -225 18c-38 3 -77 6 -115 11c-22 3 -43 10 -65 15c-53 11 -107 8 -160 7c-45 -1 -90 -3 -135 -6c-15 -1 -31 -6 -46 -8c-13 -1 -25 -1 -38 -1l-473 -3h-65
l-19 -30c-79 -140 -154 -282 -224 -427c-13 -27 -29 -54 -42 -82c-19 -43 -39 -85 -57 -128c-39 -90 -77 -180 -114 -270c-36 -86 -69 -172 -104 -259c-18 -43 -36 -86 -55 -129c-3 -9 -8 -17 -15 -28c-11 21 -22 38 -16 61c-14 -15 -14 -39 -35 -48c-10 4 -16 11 -15 23
l12 112c15 11 10 28 13 42c2 11 2 21 -4 32c-5 7 -2 19 -3 28c-9 187 -61 356 -202 489c-81 75 -172 136 -274 180c-59 26 -121 47 -181 70c-38 15 -77 30 -116 44c-23 9 -48 15 -71 24c-20 8 -41 15 -59 27c-26 17 -29 34 -19 63c12 30 31 54 62 66c26 11 52 21 79 30
c16 5 32 4 49 -3c9 -3 18 -4 29 0c19 6 40 8 60 13c9 3 18 8 29 13c-5 7 -6 10 -8 14c2 2 4 4 7 5c23 6 45 12 68 16c67 11 134 21 202 20c13 0 26 6 38 10c8 2 16 6 24 9c-4 1 -8 3 -12 4v4c28 2 56 4 84 7c18 2 38 0 51 9c37 22 78 16 117 23c12 2 25 -3 37 -6
c2 -1 3 -6 5 -11c37 8 75 13 110 25c38 13 76 13 114 11c10 -1 19 -1 29 2c-6 2 -12 5 -18 7v5c60 4 121 9 181 14c8 -6 15 -12 21 -17c45 4 88 8 131 11c9 1 17 9 27 1c14 15 34 10 50 17c16 21 31 42 48 62c5 8 12 14 20 20c15 12 25 11 40 0c7 -5 14 -10 22 -17l-8 -8
c3 -4 5 -10 9 -15c3 -4 8 -7 12 -9c-2 -11 -4 -19 -5 -27c4 -1 6 -3 9 -3c20 -1 39 0 59 -1c66 -1 131 -9 195 -21c9 -1 19 -3 27 -2c81 10 161 13 240 -4c10 -2 20 -4 29 -3c29 3 56 -12 86 -5c-3 2 -5 4 -10 8h232l-21 11c11 2 18 4 24 4c39 -1 77 -3 116 -5
c13 -1 26 -5 39 -11c15 -8 34 -11 51 -13c21 -2 42 -2 62 1c33 4 63 -3 93 -12c12 -4 24 -6 41 -10c-9 7 -13 11 -18 15c3 1 5 2 6 2c44 -4 78 -27 105 -60c6 -8 11 -19 15 -29zM2019 993h47c-15 7 -17 7 -47 0zM2069 993c14 -12 29 -9 45 -2c-15 5 -29 11 -45 2zM2122 994
c14 -8 24 -7 35 0h-35zM1003 920c6 11 11 21 18 36c-9 1 -14 1 -19 1c-93 -6 -187 -10 -281 -18c-97 -9 -194 -21 -291 -31c-54 -6 -108 -10 -162 -19c-95 -16 -190 -34 -284 -54c-99 -21 -198 -44 -296 -66c-7 -2 -14 -1 -25 -2l29 19c-35 -9 -68 -21 -103 -40l30 -11
c28 -10 57 -19 85 -29c72 -28 149 -45 216 -87c24 -15 53 -23 80 -34c92 -38 173 -93 248 -157c5 -5 9 -10 14 -14c9 -9 18 -16 27 -24c15 -15 35 -28 45 -46c14 -24 34 -42 51 -63c19 -22 34 -47 35 -75c5 -7 9 -11 13 -17c37 -60 57 -127 66 -197c5 -37 9 -73 13 -110
c14 23 24 47 34 71c22 58 54 112 75 171c20 55 44 109 67 164c95 215 201 426 315 632zM59 891c-25 -5 -49 -12 -74 -19c1 -2 1 -4 2 -6c7 1 16 1 23 3c23 6 45 13 68 8c36 -7 71 6 107 5c13 -1 26 4 39 6v3c-9 3 -19 6 -33 9c22 7 40 13 58 18c28 11 60 10 90 26l-25 9
c-32 -8 -62 -15 -93 -22c1 -3 1 -6 2 -8c-13 -10 -30 -8 -45 -10c-40 -7 -80 -14 -119 -22zM176 450c18 -21 30 -27 50 -28c-28 25 -28 25 -50 28z" />
    <glyph glyph-name="U" unicode="U" horiz-adv-x="1297" 
d="M370 -285c-47 -14 -95 -10 -141 4c-51 16 -84 52 -102 102c-14 38 -19 79 -22 119c-4 51 -1 103 6 154c21 139 57 274 105 405c15 39 32 76 48 115c18 45 34 91 54 135c76 165 160 326 260 478c25 37 52 73 80 108c14 18 32 32 49 46c8 7 20 11 28 15
c12 -6 22 -10 33 -15c-6 -17 -21 -25 -36 -32c-15 -6 -29 -14 -36 -30c9 -5 16 -3 23 3c22 20 48 29 79 33c-1 -9 -3 -18 -4 -28c-34 -13 -63 -33 -83 -64c-8 -13 -20 -24 -31 -37c-12 13 9 33 -14 44l-28 -42c11 -20 -8 -33 -11 -54l26 22c1 0 3 -1 4 -2
c-15 -22 -30 -45 -44 -67c-14 -21 -28 -42 -40 -63c-49 -88 -95 -178 -146 -264c-24 -41 -37 -86 -56 -129c-69 -151 -125 -307 -163 -470c-19 -82 -32 -164 -26 -248c2 -32 10 -63 16 -94c2 -11 8 -21 12 -32c13 -27 34 -41 65 -38c52 3 99 22 144 47
c82 45 153 105 220 169c132 127 246 269 351 418c40 57 77 116 115 174c9 13 15 28 20 43c33 106 68 211 119 310c10 20 22 39 35 58c5 7 13 13 17 17c14 -1 25 -2 38 -4c6 -5 13 -12 21 -19c17 -25 13 -52 5 -79c-19 -63 -45 -121 -78 -178c-9 -15 -13 -32 -22 -47
c-22 -42 -46 -84 -69 -126c-7 -13 -14 -26 -18 -41c-20 -65 -38 -131 -56 -197c-4 -15 -6 -30 -10 -44c-1 -4 -4 -9 -6 -13v16c-14 -33 -29 -67 -15 -108c-12 -52 -18 -110 -15 -168c1 -35 8 -67 32 -93c2 -2 3 -5 5 -8l2 -7c-6 2 -12 3 -22 5c11 -14 19 -24 26 -34
c-15 -16 -29 -18 -43 0c-11 14 -26 21 -41 26c-23 32 -28 68 -29 105c-1 31 -1 61 8 92c6 19 5 41 6 61c1 57 15 112 27 167c1 8 2 16 4 26c-17 -11 -42 -43 -51 -60c-15 -28 -29 -56 -48 -82c-26 -34 -50 -70 -85 -97c-8 -5 -12 -14 -17 -22c-39 -57 -88 -105 -137 -153
c-62 -61 -127 -117 -200 -164c-43 -27 -88 -50 -138 -64zM433 887l20 33c3 -7 5 -10 9 -18c7 17 16 30 19 44c10 41 29 77 45 115c6 12 9 26 13 39c5 6 12 10 14 16c7 21 21 37 32 54c3 4 2 10 3 17c-40 -33 -79 -87 -82 -111c5 3 9 6 14 8c-5 -10 -9 -20 -14 -30
c-10 -20 -21 -39 -30 -60c-12 -25 -22 -51 -33 -77c-4 -10 -9 -19 -13 -29c1 -1 2 -1 3 -1zM133 -104c5 79 10 149 14 220c-18 -70 -22 -141 -14 -220z" />
    <glyph glyph-name="V" unicode="V" horiz-adv-x="941" 
d="M379 -488l-13 16c-3 -4 -6 -9 -10 -14c-3 2 -5 3 -7 5c-2 4 -3 11 -6 12c-11 3 -11 13 -12 20c-1 15 4 32 -3 43c-7 12 -1 25 -9 36c-2 3 1 11 2 16c1 9 3 18 3 27c-11 -19 -11 -19 -11 -38c0 -14 0 -28 -2 -42c-4 39 -20 77 -16 123c5 -14 9 -24 15 -39c5 20 4 33 1 46
c-10 40 -21 78 -35 116c-16 42 -24 85 -36 128l-20 75c-8 -31 12 -53 7 -78c-25 82 -49 163 -73 243c-8 25 -10 52 -20 76c-29 68 -47 140 -69 211c-5 15 -8 31 -11 46c-3 17 -5 34 -17 47c-3 3 -4 8 -6 13l-60 181c-11 31 -3 60 11 88c10 -5 20 -9 28 -14
c14 -10 26 -22 32 -40c15 -49 32 -98 47 -147c11 -35 21 -70 31 -105c0 -2 1 -4 1 -6c-8 -40 21 -68 34 -101c8 -19 13 -39 18 -59c14 -53 28 -107 41 -161c6 -26 10 -53 15 -80c1 -5 4 -9 6 -15l14 11c33 -121 67 -241 102 -366c28 65 53 125 80 184c6 14 17 26 22 41
c14 37 34 70 51 105c11 24 26 47 26 75c13 7 5 21 11 30c6 11 12 22 18 32c60 109 129 212 203 312c12 17 27 33 40 50c17 24 32 48 50 71c23 32 46 64 72 94c53 63 107 126 161 188c13 15 29 27 43 41c22 22 43 45 65 67c1 0 2 -1 3 -2c-7 -9 -14 -17 -22 -26l10 -20
c20 28 40 54 57 82c31 48 68 90 111 128c16 14 30 31 45 46c6 5 6 5 20 0c19 21 39 42 60 62l159 147c39 37 77 74 121 104c22 15 44 29 66 42c31 20 63 20 96 8l14 -3c1 12 -3 21 -12 25c-7 3 -16 5 -24 4c-31 -6 -64 -4 -93 -24c2 3 3 8 5 9c21 11 42 23 64 31
c38 13 54 5 72 -30c1 -2 2 -5 4 -8c8 -4 16 -8 24 -13c3 -2 5 -5 6 -6c8 -37 -6 -62 -36 -80c-16 -10 -31 -23 -48 -35c-6 4 -10 8 -16 13c4 4 7 7 10 11c-2 4 -4 8 -8 18l32 29c0 3 -1 11 -3 23c-12 -3 -22 -4 -31 -7c-32 -11 -59 -31 -86 -51c-40 -29 -77 -60 -116 -91
c-6 -5 -11 -12 -14 -21c7 3 14 6 21 10l2 -3l-9 -12c-174 -153 -334 -319 -490 -489c-25 -27 -52 -52 -77 -78c-4 -4 -9 -8 -12 -13c-23 -44 -61 -78 -91 -118c-58 -78 -118 -155 -177 -233c-20 -27 -40 -54 -63 -79l3 15c-2 1 -3 1 -4 2l-47 -62c-4 -5 -8 -12 -9 -21l37 31
c1 0 2 -1 3 -1l-12 -20c-70 -106 -133 -215 -192 -328c-5 -9 -20 -11 -17 -24c-40 -83 -105 -256 -126 -339c-7 -29 -14 -58 -7 -89c5 -21 3 -43 -6 -63c-2 -5 -6 -9 -11 -15zM1158 977l8 14l-3 3l-8 -14zM566 102c34 84 87 159 129 239c-6 -4 -11 -9 -15 -15
c-20 -33 -38 -68 -60 -99c-19 -29 -36 -60 -51 -91c-5 -10 -7 -21 -10 -31zM207 62c5 27 -5 50 -19 73c7 -24 13 -49 19 -73z" />
    <glyph glyph-name="W" unicode="W" horiz-adv-x="1181" 
d="M2309 2132c6 -6 13 -11 22 -20l-10 -10c-9 8 -16 14 -24 22c-9 -4 -19 -7 -29 -11l-28 19c-36 -11 -56 -41 -79 -67l-45 -45c-12 -10 -27 -17 -28 -35l-10 -10c-19 -17 -40 -32 -58 -51c-20 -21 -38 -44 -57 -67c-19 -17 -33 -37 -44 -59c12 11 22 24 33 36
c4 5 12 8 18 11c-4 -9 -7 -19 -12 -27c-90 -152 -195 -296 -294 -442c-107 -159 -213 -319 -307 -485c-59 -104 -114 -210 -169 -315c-25 -47 -47 -94 -71 -142l-8 14l-47 -90l-84 -165c-8 -14 -16 -27 -12 -44c1 -9 -4 -18 -6 -27c-5 -15 -10 -30 -12 -47
c12 26 25 51 37 76c2 -1 3 -1 4 -2c-7 -19 -15 -37 -22 -56c-51 -139 -102 -277 -154 -415c-8 -22 -17 -43 -27 -64c-17 -32 -33 -33 -58 -6c-4 -2 -8 -3 -11 -4c-16 10 -21 23 -21 39c1 87 1 173 2 259c0 27 4 54 6 82l6 -6c0 38 1 75 0 113c-1 23 -3 46 3 69
c3 10 2 21 1 31c0 32 -5 65 11 99c-4 1 -7 1 -10 1c4 111 8 223 13 338c-19 -9 -24 -24 -33 -37l-12 -21v19c-9 -17 -16 -29 -22 -41c-9 -7 -17 -15 -14 -28l-8 -17c-2 0 -7 1 -8 0c-8 -13 -17 -26 -28 -43c9 3 13 3 16 4l-51 -93l-114 -222l-13 -25c-3 1 -6 3 -9 5
c-4 -6 -9 -12 -15 -19c0 4 -1 6 0 8c25 49 49 99 74 148c3 7 5 13 3 22c-13 -20 -27 -40 -39 -60c-10 -17 -18 -35 -29 -51c-17 -25 -19 -55 -27 -82c-9 -32 -17 -63 -25 -95c1 -6 1 -11 1 -17c-9 -21 -17 -43 -27 -64c-25 -55 -50 -109 -76 -163c-6 -13 -13 -26 -29 -33
c-4 5 -9 9 -15 15c-5 -4 -9 -7 -13 -11c-2 1 -4 3 -7 4c-32 4 -39 27 -40 54c-3 35 -5 71 -6 107c-2 185 -4 370 -4 555c-1 108 2 217 1 326c-1 37 9 70 17 105c3 10 12 18 18 28c36 -10 58 -35 83 -57c-3 -4 -4 -7 -8 -11c2 -5 5 -11 9 -19c1 -19 -16 -26 -45 -16v-33
c0 -162 1 -323 1 -485c0 -64 -6 -129 -6 -193c1 -64 6 -128 10 -191c1 -7 4 -14 7 -23c27 61 52 118 78 175c83 181 171 360 275 530c10 16 20 31 39 42c16 8 25 29 36 45c9 14 17 28 26 43c-1 0 -1 0 -1 1c-1 0 -2 -1 -3 -1h-5c0 2 0 4 1 5c15 16 25 38 54 39
c5 -8 14 -16 14 -23c-1 -17 10 -27 20 -35c16 -11 21 -26 22 -43c3 -27 5 -54 5 -81c0 -13 -4 -25 -6 -38c-2 -20 -7 -40 -6 -59c7 -85 -1 -170 -4 -256c-1 -25 -9 -50 -10 -75c-1 -49 2 -99 2 -148c0 -44 -2 -87 -2 -130c-1 -9 -1 -18 4 -28c15 36 29 73 43 109
c38 96 74 193 114 288c48 110 100 218 151 327c11 24 22 48 36 70c31 49 51 104 81 153c29 50 55 101 83 151c20 36 42 71 63 106c3 5 5 10 9 14c20 19 30 43 43 65c71 123 151 240 233 356c66 94 131 190 199 283c77 107 157 211 246 308c32 36 67 68 102 101
c12 11 28 19 43 27c16 8 33 7 48 -4c15 -12 28 -26 44 -41zM1443 1119c20 25 37 54 37 72l-42 -68c1 -1 3 -2 5 -4zM1378 1021c8 5 17 11 15 27c-6 -12 -11 -20 -15 -27zM1354 939c8 21 14 42 15 64c-85 -146 -167 -293 -244 -444c3 12 7 24 11 36c-30 -42 -51 -88 -62 -143
c6 6 8 7 10 9c14 21 28 42 43 63c11 16 27 31 36 49c25 45 47 90 70 136l10 16c8 14 16 27 23 41c5 9 8 19 13 28c27 47 57 93 75 145zM718 735c9 -2 18 -5 31 -8l-15 18c-7 -4 -12 -7 -16 -10zM553 372c7 6 12 13 10 24c-5 -7 -10 -14 -15 -22c3 -1 5 -3 5 -2zM222 -179
c3 39 6 78 6 118c0 29 -4 59 -5 89c-1 16 -1 32 -1 48c-8 -34 -11 -67 -15 -100c-7 -54 -5 -109 -7 -164c0 -5 3 -10 6 -22c8 15 15 23 16 31zM336 9c2 5 3 9 4 14c-10 -8 -17 -16 -22 -26l-63 -139c-10 -22 -12 -43 -2 -72c7 15 12 25 16 35c5 17 8 35 14 51
c17 46 35 92 53 137zM212 -255c17 6 16 16 13 29c-5 -10 -8 -18 -13 -29z" />
    <glyph glyph-name="X" unicode="X" horiz-adv-x="575" 
d="M1263 -755c-105 11 -204 41 -300 84c-47 20 -93 43 -139 66c-70 36 -132 84 -196 128c-27 19 -57 35 -82 57c-55 49 -108 102 -162 152c-5 5 -9 10 -14 13c-31 17 -52 43 -72 71c-39 54 -72 112 -98 173l-12 25c-44 -40 -70 -90 -101 -136c-30 -45 -58 -92 -89 -142
c-4 0 -13 1 -19 1c-9 18 -6 31 0 44c11 22 26 43 24 70c0 6 5 12 9 18c39 69 85 133 133 196c12 15 15 29 10 47c-27 84 -44 170 -55 258c-8 60 -11 120 -6 180c1 -14 2 -27 4 -40h2c0 31 2 62 0 92c-2 34 -5 67 6 100c10 29 10 61 18 91c3 16 12 31 20 46c6 10 16 17 25 27
l10 -10c-9 -12 -17 -25 -25 -37c1 -1 3 -2 4 -4c8 9 16 18 25 27c10 -3 20 -5 31 -8c3 -6 6 -14 9 -21c-2 -5 -3 -11 -7 -13c-17 -12 -24 -30 -32 -48c-23 -57 -29 -116 -23 -177c4 -43 4 -88 7 -132c5 -84 19 -167 39 -249c3 -10 8 -19 13 -29c27 29 46 59 66 90
c27 42 60 82 91 121c36 46 72 92 111 135c27 28 51 58 77 86c39 41 83 79 113 129c2 4 9 6 12 10c2 3 2 8 -1 15l-69 -74c-2 1 -3 2 -4 3c18 23 36 47 55 69c37 45 76 89 114 132c6 7 13 14 21 19c15 10 20 8 35 -10c-3 -5 -6 -11 -12 -20c13 2 22 4 33 6
c14 -6 12 -20 17 -34c-10 -3 -18 -4 -27 -6c4 -5 8 -10 12 -14c-7 -11 -16 -4 -27 -1c-27 -31 -56 -61 -82 -93c-66 -81 -130 -163 -196 -244c-23 -29 -49 -57 -72 -86c-12 -15 -20 -32 -32 -46c-68 -88 -137 -174 -205 -261c-3 -3 -4 -7 -6 -11c1 -4 1 -9 2 -13
c12 -33 21 -66 36 -97c10 -24 25 -47 40 -68c45 -63 91 -127 152 -177c63 -52 127 -102 191 -152c26 -20 52 -41 80 -57c55 -33 111 -63 168 -93c11 -6 25 -6 36 -11c22 -10 43 -22 65 -33c8 -3 16 -6 24 -8c46 -11 93 -22 139 -31c86 -16 172 -20 258 2c51 12 99 33 144 61
c25 16 49 35 73 53c8 5 15 10 23 16l4 -4l-5 -23c17 9 21 26 32 38c7 -5 14 -11 23 -17c1 -6 3 -13 6 -23c-58 -76 -137 -127 -223 -166c-79 -36 -164 -40 -249 -32zM773 843c22 0 35 5 43 21l-20 6c-7 -8 -13 -16 -23 -27zM714 770c9 9 17 19 25 28l-4 4
c-8 -9 -16 -18 -25 -27c1 -2 3 -3 4 -5zM738 745c23 12 19 35 24 56c-10 -12 -20 -24 -29 -36c4 -4 6 -6 9 -8c-2 -4 -3 -8 -4 -12zM509 484c49 33 69 82 84 133c-28 -43 -55 -86 -84 -133z" />
    <glyph glyph-name="Y" unicode="Y" horiz-adv-x="962" 
d="M940 597c11 -12 13 -25 11 -41c-6 -63 -37 -116 -68 -168c-38 -63 -77 -125 -117 -187c-109 -170 -218 -341 -330 -511c-166 -254 -334 -508 -503 -761c-67 -101 -137 -199 -207 -298c-26 -36 -57 -70 -85 -104c2 7 4 15 6 25c-55 -52 -94 -106 -98 -136c5 5 10 10 14 15
l45 52c-7 -11 -13 -23 -20 -33c-58 -76 -120 -149 -191 -214c-38 -36 -80 -68 -129 -90c-38 -17 -75 -10 -111 5c-35 15 -47 47 -49 83c-3 43 -1 86 10 128c6 24 5 49 12 72c12 41 26 81 41 122c4 10 12 18 19 29c-4 22 4 43 13 64c49 107 97 215 147 323c12 26 31 49 42 76
c31 75 70 145 110 215c29 52 60 102 99 147c14 17 22 38 33 58c3 4 5 10 8 14c46 66 98 126 167 171c16 -7 32 -15 52 -24c-19 -15 -35 -28 -51 -42c1 -2 2 -3 4 -5l51 34c1 -1 2 -2 4 -3l-8 -32c-59 -40 -106 -93 -153 -145c-8 -9 -16 -21 -32 -19
c-87 -130 -160 -268 -234 -407l-6 14c-11 -21 -21 -40 -30 -59c-10 -19 -19 -38 -28 -57c4 -2 7 -4 12 -6c4 -18 0 -34 -8 -51c-45 -94 -90 -188 -134 -282c-7 -13 -14 -26 -11 -42c2 -10 -5 -20 -8 -30c-24 -66 -44 -134 -47 -205c-1 -18 1 -37 3 -56c1 -10 6 -19 10 -30
c30 3 55 9 75 29c15 4 31 8 33 28l45 46c58 53 109 114 160 174c42 51 86 100 127 151c43 53 83 107 124 162c13 16 24 33 35 50c14 24 26 48 40 72c15 24 32 48 48 72c30 48 59 97 91 145c146 221 294 442 441 664c8 12 17 23 27 37c1 -7 1 -10 1 -14c6 0 12 1 17 1
c26 32 44 67 60 103c18 38 39 75 63 110c10 14 15 31 30 41c2 2 4 6 3 8c-7 15 5 24 11 35c45 69 91 138 135 208c37 60 71 121 106 182c6 10 9 21 15 35c-9 -2 -15 -2 -20 -4l-90 -42c-8 -4 -15 -12 -28 -7l24 23c0 1 -1 3 -2 4c-21 -11 -41 -23 -62 -34
c-87 -48 -174 -97 -262 -143c-52 -27 -106 -50 -160 -74c-12 -5 -26 -9 -39 -13c-47 -13 -88 2 -126 27c-28 19 -39 49 -41 83c-3 54 4 108 23 158c29 77 59 154 99 226c5 11 12 21 19 31s14 19 13 33c-1 5 4 12 8 17c55 91 121 175 195 250c11 11 23 21 34 30
c11 8 22 16 38 14c8 -2 17 5 27 8c6 -6 13 -12 20 -18c9 -32 7 -37 -20 -54c-28 -16 -49 -38 -69 -62c-41 -51 -85 -100 -124 -152c-71 -97 -127 -202 -163 -317c-15 -51 -27 -102 -23 -156c1 -10 3 -19 4 -29c20 -10 39 -7 57 -4c60 9 116 32 170 59c90 44 179 91 268 137
c25 12 51 24 78 38c1 -8 2 -11 3 -17c36 15 74 27 95 63c42 23 82 9 112 -23zM674 140l101 159c-2 1 -4 2 -6 4c-32 -46 -65 -91 -98 -136zM618 35c28 22 45 52 42 73c-18 -24 -32 -47 -42 -73zM82 -793c4 5 8 11 11 17c-2 1 -4 2 -6 4c-16 -24 -33 -47 -48 -71
c-10 -15 -17 -31 -25 -47c3 1 6 2 8 4c21 31 40 62 60 93zM-578 -903c-1 -1 1 -3 1 -5l4 -1l9 22c-7 -4 -11 -10 -14 -16zM-8 -924c11 9 20 19 21 32c-13 -6 -17 -19 -21 -32zM-11 -927c-11 -6 -15 -16 -15 -30c6 10 10 20 15 30zM-380 -1445c12 25 22 51 34 76
c-71 -87 -147 -169 -220 -254c20 6 34 21 49 34c14 14 22 35 42 44c3 -4 5 -7 8 -10c12 13 21 28 35 36c14 9 22 19 29 32c7 14 16 27 23 42zM-663 -1721c9 9 18 17 28 25c-17 1 -24 -11 -33 -20z" />
    <glyph glyph-name="Z" unicode="Z" horiz-adv-x="1708" 
d="M-293 -378c-16 -5 -33 -13 -45 6c-10 16 -13 34 5 47c-2 9 -4 15 -7 25c15 10 28 21 44 29c116 62 233 123 350 182c57 29 116 53 174 80c19 9 37 23 56 31c192 89 384 178 576 265c62 29 125 55 188 82c16 7 32 12 48 17c15 6 30 10 45 17c86 41 172 83 258 125
c40 20 80 42 119 63c6 4 12 9 20 14c-7 3 -10 5 -13 5c-59 6 -117 15 -176 16c-43 0 -87 -4 -131 -16c-39 -11 -81 -14 -122 -19c-168 -19 -336 -38 -504 -58c-41 -5 -81 -14 -124 -22l53 -43l-3 -29l-20 -20c-46 13 -87 33 -117 62c-1 27 -3 46 -4 66c36 26 45 28 68 13
c13 3 25 6 39 10l9 27c159 36 322 54 485 70c1 -2 1 -4 1 -6l-43 -13c7 -1 10 -2 20 -5c-37 -5 -65 -20 -97 -21c-16 -14 -39 -2 -56 -14c-24 -3 -48 -5 -73 -7c26 -5 51 -3 75 5c49 0 96 10 144 16c20 3 41 5 61 7c19 2 36 8 53 16c22 10 47 12 71 17c10 3 21 5 32 8
c-3 5 -6 9 -10 14c38 4 73 8 108 10c82 3 163 6 245 7c21 1 43 -4 64 -7c18 -4 31 -13 38 -30c6 -14 13 -27 20 -40c-7 -17 -12 -33 -18 -50c-20 -30 -51 -50 -83 -68c-146 -80 -297 -148 -451 -210c-45 -18 -89 -38 -134 -57c-17 -7 -35 -12 -52 -18
c-70 -25 -133 -62 -198 -98c-39 -21 -81 -38 -122 -58c-183 -87 -365 -175 -548 -263c-9 -5 -18 -10 -27 -16c320 68 642 113 968 132c-23 -5 -36 -27 -59 -33c59 8 117 16 176 22c58 5 117 7 181 11c-11 -6 -17 -9 -27 -15c73 -4 137 18 202 32l-28 -3c-8 -1 -16 -1 -25 -1
c-51 -1 -103 0 -154 0c-5 0 -10 1 -15 4c14 1 27 4 41 4c70 4 139 8 209 11c6 1 13 2 19 0c19 -9 39 -4 58 -2c120 12 240 19 360 21c47 1 94 -2 140 -5c21 -1 41 -9 61 -3l10 4c-11 3 -19 4 -26 6v3c40 2 81 4 121 5c206 2 413 6 620 5c134 -1 268 -10 402 -16
c23 -1 47 0 67 -17c84 2 161 -20 227 -70c8 -18 15 -33 22 -50c-1 -7 -3 -15 -5 -23c-12 0 -15 20 -32 15c8 -7 15 -14 24 -23c-5 -4 -9 -8 -13 -12c-7 3 -13 4 -17 7c-51 35 -107 55 -166 67c-35 6 -70 13 -105 20c-23 4 -46 9 -69 13c-7 1 -15 1 -22 1
c-34 -3 -67 -6 -101 -7c-51 -1 -101 0 -152 2c-26 1 -52 6 -78 8c-23 2 -47 3 -70 3h-426c-32 0 -63 -6 -94 -11c-41 -5 -82 -8 -123 -9c-69 -3 -137 -6 -206 -7c-32 0 -66 0 -98 6c-23 4 -44 1 -66 -3c-88 -15 -177 -21 -266 -19c-20 0 -41 0 -61 -6c-14 -3 -31 0 -46 2
c6 1 12 1 19 1c5 1 10 1 15 3c-27 12 -54 7 -81 1c-78 -19 -158 -25 -238 -25c-47 0 -94 6 -142 9c-24 2 -48 3 -72 -2c-26 -6 -54 -5 -81 -7c-31 -3 -62 -7 -94 -11l-67 -6c-27 -2 -54 -3 -81 -6c-22 -2 -44 -6 -71 -10l19 -12l5 -11c-42 -7 -82 -16 -122 -22
c-189 -29 -376 -70 -562 -117c-22 -5 -43 -13 -66 -10c-10 1 -20 -5 -30 -8zM1264 414c74 18 74 22 111 56c-31 -6 -99 -42 -111 -56zM3115 -63c32 3 63 9 91 13c-25 3 -56 8 -86 8c-56 2 -110 10 -166 8c-72 -2 -143 -10 -215 -14c-1 0 -2 -2 -8 -7c24 2 42 2 60 4
c10 1 19 3 28 3c63 0 126 -1 189 -1c14 0 30 3 41 -11c1 -2 5 -2 8 -2c19 -1 39 -3 58 -1z" />
    <glyph glyph-name="A.ss01" horiz-adv-x="480" 
d="M354 -108c-12 6 -24 13 -38 20c-2 13 -4 28 -6 46h-10c12 106 42 207 65 315c-12 -3 -19 -4 -27 -7c-35 -14 -72 -27 -107 -43c-30 -13 -60 -9 -92 -5c-27 -27 -28 -68 -46 -101c-3 1 -5 1 -9 3c1 -7 2 -13 2 -18c-8 -6 -15 -11 -25 -17c6 -5 11 -8 16 -12
c-20 -6 -20 -6 -28 -19c0 -11 18 -18 8 -33c-18 -5 -36 -5 -53 9c-9 28 -10 57 -1 85c22 69 54 134 87 199c11 21 19 44 31 66c70 138 150 271 238 399c7 10 17 20 24 31c11 15 23 31 33 47c20 33 47 63 73 92c6 7 17 9 27 14c13 -21 26 -39 52 -26c14 -22 23 -44 19 -69
c-10 -57 -19 -113 -33 -169c-19 -77 -42 -154 -64 -230c-2 -10 -6 -18 4 -28c7 4 14 7 23 11c12 -15 41 -4 50 -29c-16 -24 -42 -34 -64 -48c-8 -6 -17 -9 -24 -13c-4 -2 -5 -7 -10 -13c23 4 39 14 54 26c16 12 32 22 48 33c2 -12 -2 -22 -12 -28c-24 -16 -47 -31 -71 -46
c-8 -5 -17 -8 -26 -13c-12 -43 -23 -87 -34 -131c-8 -29 -16 -59 -25 -89c-3 -10 -10 -19 -14 -30c-5 -13 -9 -28 -11 -42c-3 -33 -4 -66 -7 -98c-2 -21 -3 -21 -17 -39zM179 300c8 2 12 2 15 3l181 72c14 5 19 16 22 30c32 128 63 256 95 385c1 6 2 12 2 18
c-119 -159 -225 -326 -315 -508zM171 258c34 -1 63 16 94 25c32 10 62 24 97 37c-7 4 -9 7 -11 6c-61 -21 -123 -36 -180 -68z" />
    <glyph glyph-name="B.ss01" horiz-adv-x="650" 
d="M-189 -219c-21 -5 -41 -6 -61 2c-18 6 -35 13 -42 34c-3 7 -9 14 -13 21c-1 1 0 3 0 5c1 7 11 3 13 14c2 16 31 27 46 19c23 -13 46 -12 70 -5c49 13 94 32 139 55c6 3 12 7 20 13l-36 23c14 10 28 20 43 30c-2 2 -3 4 -4 5c-6 -2 -12 -6 -18 -8c-7 -2 -13 0 -14 11
c25 5 32 27 40 47l24 72c47 141 93 282 140 423c33 101 67 201 101 302c1 5 2 10 5 18l-55 6c-78 6 -157 11 -236 18c-24 2 -48 4 -67 19c-3 18 -5 33 -7 50c18 5 36 7 53 -1c12 16 -14 14 -7 30c10 5 25 1 39 2c4 -5 8 -10 13 -15c116 -9 232 -10 348 -34
c-4 -2 -8 -3 -12 -5c1 -5 1 -11 2 -17c3 0 5 -1 8 -1c22 -1 45 -1 67 -1c55 -1 109 -6 160 -31c4 -2 8 -3 14 -4l13 11c8 -1 8 -1 27 -46c-3 -6 -5 -14 -9 -23c1 -1 2 -4 3 -6c12 -24 7 -44 -13 -60s-39 -34 -60 -47c-53 -32 -107 -62 -161 -93c-3 -1 -6 -4 -13 -9
c17 -5 29 -10 42 -14c52 -16 105 -32 153 -57c39 -22 76 -46 96 -88c7 -15 12 -30 17 -45c1 -6 2 -13 1 -20c-15 -83 -53 -153 -123 -202c-54 -38 -109 -73 -165 -108c-50 -31 -102 -60 -154 -88c-121 -66 -242 -134 -371 -184c-18 -7 -37 -13 -56 -18zM10 937h31v3h-31v-3z
M57 932h46v3h-46v-3zM139 926h53c0 1 1 2 1 3h-54v-3zM47 -30c12 6 22 10 31 15l363 205c46 26 89 55 126 93c19 18 39 35 47 62c2 5 7 10 10 14c1 17 -8 29 -18 38c-17 15 -34 30 -53 42c-38 25 -81 38 -124 52c-12 4 -24 6 -29 20c0 1 -3 1 -5 2h-6c-4 -1 -8 -3 -12 -4
c-4 4 -6 8 -8 9c-12 3 -24 4 -36 7c-27 7 -59 44 -61 71c0 8 4 18 10 25c16 22 38 38 61 52l179 108c14 8 26 18 34 37c-67 25 -137 29 -210 38c-78 -203 -137 -411 -215 -612c-4 3 -8 5 -11 8c-9 -23 -18 -45 -24 -68c-5 -22 -19 -41 -22 -65h13c7 -54 -24 -98 -40 -149z
M299 62c40 -1 85 23 100 53c-35 -18 -65 -34 -100 -53zM225 20c13 6 26 13 38 19c-1 2 -1 4 -2 5c-13 -6 -26 -12 -39 -19c1 -2 2 -4 3 -5z" />
    <glyph glyph-name="C.ss01" horiz-adv-x="580" 
d="M262 -54c-51 2 -101 16 -145 47c-34 25 -58 58 -83 89c-4 4 -7 9 -14 17c2 22 4 47 7 72c4 39 28 68 52 97c2 2 5 3 6 5c21 37 41 73 61 110c9 16 19 32 29 47c25 36 51 72 77 107c18 24 31 50 42 78c4 9 8 20 15 27c59 66 123 127 198 174c16 10 34 16 51 24
c10 5 20 4 29 -3c12 -9 24 -17 34 -25c19 -33 6 -58 -18 -78c-17 -13 -36 -24 -54 -35c-4 -2 -9 -1 -13 -1l-3 5c8 4 16 9 24 15v16h-6c-66 -34 -119 -84 -171 -136c-11 -10 -27 -15 -45 -25c-27 -40 -58 -84 -89 -129c-32 -48 -64 -95 -94 -144c-21 -34 -37 -70 -45 -109
c-5 -26 -6 -52 -8 -78c-1 -24 12 -41 32 -53c25 -15 51 -23 80 -27c74 -9 142 8 202 52c40 28 76 61 102 104c7 12 16 21 26 33c24 -4 40 -17 47 -44c-24 -62 -63 -115 -115 -158c-62 -50 -132 -78 -211 -74zM435 673c16 5 51 34 61 51c-17 -2 -39 -21 -61 -51zM68 83
c-2 15 -4 27 -5 39c-1 16 -9 33 -2 51c2 6 0 14 -1 21c-1 0 -3 0 -4 1c-3 -19 -6 -38 -7 -56c-1 -33 2 -39 19 -56z" />
    <glyph glyph-name="D.ss01" horiz-adv-x="710" 
d="M-49 -128c-24 -8 -35 -1 -40 21c-8 8 -14 14 -20 18c22 38 38 52 84 77l20 -8c14 3 27 5 39 10c18 8 36 19 53 30c17 12 32 26 49 37c50 29 102 56 152 86c101 61 202 123 293 199c47 39 92 81 131 128c32 40 58 84 68 135c4 24 5 49 2 73c-3 35 -22 62 -51 84
c-34 25 -72 45 -113 56c-45 12 -91 21 -137 31c-7 2 -15 0 -24 0c-34 -68 -69 -135 -104 -203c0 1 -1 1 -2 1c1 8 1 16 3 30c-8 -8 -12 -11 -14 -15c-12 -24 -27 -46 -34 -71c-27 -105 -75 -202 -120 -300c-19 -43 -42 -84 -61 -127c-14 -30 -24 -61 -36 -91
c-4 -11 -9 -21 -14 -31c-8 -15 -19 -25 -40 -27c-4 4 -10 9 -17 15c-6 0 -14 1 -24 3c3 9 7 15 7 20c-2 14 3 27 10 36c15 18 22 39 32 59c49 110 98 220 149 329c18 39 41 76 62 114l71 129c1 -10 2 -16 2 -25c29 55 36 113 54 170c-44 -5 -83 -11 -123 -15
c-32 -4 -61 -11 -80 -38c-21 -2 -28 10 -31 27c-15 1 -19 11 -17 26c40 73 110 71 181 73l10 -10l79 -16c16 17 -5 20 -10 29l36 7l100 -18c78 -17 152 -45 216 -95c7 -6 14 -13 20 -20c16 -17 32 -34 47 -52c30 -37 44 -79 31 -127c-2 -7 -2 -13 -2 -20
c0 -62 -17 -118 -51 -169c-44 -68 -103 -119 -164 -170c-98 -81 -205 -149 -315 -212c-108 -60 -216 -119 -324 -178zM738 817c-70 55 -149 69 -230 79c28 -6 56 -12 83 -20c20 -6 41 -13 59 -24c28 -16 59 -31 88 -35zM792 498c21 30 30 55 34 92c-20 -29 -25 -58 -34 -92z
M728 449l22 22l-6 5c-6 -8 -13 -16 -19 -23c1 -2 2 -3 3 -4z" />
    <glyph glyph-name="E.ss01" horiz-adv-x="630" 
d="M189 -44c-68 4 -74 7 -133 47c-3 5 -4 13 -8 17c-24 24 -26 57 -38 86c-9 23 -3 46 7 67c34 68 80 123 141 169c59 44 122 81 188 113c5 3 11 7 19 11c-25 17 -43 37 -56 62c-16 29 -14 55 2 83c33 55 78 98 132 133c53 34 110 60 172 76c23 6 44 8 61 -13
c3 -5 7 -9 12 -11c29 -9 32 -33 33 -59c-5 -9 -11 -18 -17 -28c-22 -3 -22 -3 -34 16c-9 3 -19 5 -33 9c-86 -23 -167 -63 -235 -129c-14 -14 -27 -29 -32 -50c20 -12 42 -18 64 -20c28 -3 45 -22 65 -36c11 -9 11 -12 16 -41c-8 -22 -24 -36 -46 -45
c-41 -18 -83 -36 -123 -56c-70 -35 -137 -76 -195 -129c-17 -15 -34 -33 -48 -51c-9 -11 -16 -25 -22 -39c-17 -48 -4 -73 44 -87c8 -2 15 -4 22 -5c29 -4 58 -8 87 -11c20 -2 40 -4 61 5c14 6 31 4 47 6c54 8 107 20 157 44c29 14 54 32 69 63c5 12 15 21 24 34
c16 -21 41 -30 40 -62c-16 -40 -44 -74 -84 -101c-66 -43 -139 -60 -216 -67c-47 -4 -96 -3 -143 -1zM365 615c15 7 18 18 21 28c-9 -6 -19 -12 -21 -28z" />
    <glyph glyph-name="F.ss01" horiz-adv-x="510" 
d="M113 -24c-8 8 -15 14 -23 21c-4 -1 -9 -3 -14 -4c-2 3 -5 4 -5 6c-3 21 -6 43 -3 65c4 36 -8 69 -21 102c-19 52 -48 98 -80 138c-2 24 -5 45 -5 65c-1 12 3 24 5 35l46 6c16 -16 37 -10 57 -8c23 3 47 7 72 10v12l54 12c0 1 1 2 0 2c0 1 -1 1 -2 2c-2 1 -3 2 -7 5
c29 4 56 7 81 9c47 93 93 185 141 279c-36 0 -70 -8 -104 -12c-35 -4 -70 -9 -104 -13s-68 -6 -101 -11c-34 -5 -67 -12 -103 -19c-1 27 22 35 32 56c-12 -3 -22 -7 -36 -11c-7 4 -16 10 -25 15c11 33 36 42 61 51c41 14 83 14 125 14c35 0 70 7 104 -5c6 -2 14 4 22 7
l-16 10c1 2 2 5 3 5l177 21c23 2 43 8 54 32c4 9 11 17 19 27c7 -7 13 -12 20 -18c-10 -5 -19 -9 -35 -16c17 -6 28 -10 38 -12c17 -3 34 -3 50 -9c37 -14 74 -10 112 -3c31 6 62 14 94 7c9 -1 19 -5 25 -11c20 -21 41 -43 38 -79c-14 -32 -37 -57 -79 -58
c-13 -1 -24 1 -34 12c-8 9 -19 16 -29 24c4 6 7 11 11 16c-3 2 -5 5 -7 5c-30 0 -59 1 -89 -1c-45 -3 -90 -8 -134 -12c-28 -30 -45 -62 -52 -100c-3 -13 -6 -26 -11 -38l-57 -120c-4 -8 -6 -16 -9 -23h231c-68 -24 -134 -23 -197 -36c27 0 54 -3 81 1c47 7 113 11 153 3
c7 -1 18 -4 19 -8c5 -16 19 -15 31 -23c-3 -11 -6 -22 -11 -36c-10 0 -20 -1 -30 0c-27 3 -55 10 -82 9c-78 -2 -156 -8 -234 -12c-2 0 -4 -1 -9 -3c-3 -8 -8 -17 -12 -27c-26 -62 -54 -124 -78 -187c-21 -57 -55 -105 -92 -151c-6 -8 -16 -12 -26 -18zM143 146
c26 74 63 135 84 207c-64 -2 -123 -9 -187 -19c47 -57 78 -117 103 -188z" />
    <glyph glyph-name="G.ss01" horiz-adv-x="610" 
d="M-27 -422c-26 -13 -66 -7 -86 12c-14 13 -17 29 -13 48c2 -6 4 -10 6 -15c8 11 13 23 13 37c2 28 7 56 10 84c1 9 0 18 0 25c27 67 57 131 95 191c8 12 15 24 23 35c25 33 47 69 93 79c-4 11 -7 20 -9 23l-46 40c-5 41 8 74 22 107c3 7 4 15 8 20s11 7 16 12
c29 31 53 65 73 104c23 43 55 81 84 120c17 23 38 42 56 63c15 19 28 39 35 62c2 6 5 12 10 16c75 70 154 133 252 167c15 5 31 8 47 11c48 10 89 -6 125 -36c38 -31 38 -78 20 -115c-8 -18 -25 -16 -42 4l-19 -4c3 13 8 24 7 36c0 11 -6 22 -9 34c-21 5 -41 4 -61 -1
c-56 -11 -105 -37 -150 -69c-35 -24 -68 -51 -101 -77c-16 -14 -31 -30 -52 -37c-5 -1 -10 -5 -13 -9c-51 -65 -103 -130 -152 -196c-22 -29 -39 -62 -57 -94c-10 -18 -17 -38 -23 -57c-5 -19 -8 -39 1 -60c6 1 13 0 19 2c48 15 92 37 132 66c59 42 115 88 173 132
c8 7 17 14 29 23c0 0 1 3 1 7c1 3 2 7 2 10c-12 11 -24 2 -36 3c-12 2 -25 -3 -33 7c0 11 -2 22 0 32s6 20 9 31h61c8 8 15 16 22 24c-11 20 -2 36 13 49c8 7 17 14 27 19c23 12 30 10 46 -12c10 -2 19 -4 26 -6c16 -21 21 -42 14 -66c26 -8 49 2 73 10c8 -2 16 -5 28 -9
c-8 -8 -15 -15 -27 -26c17 5 28 9 40 13c4 -5 8 -10 12 -14c3 -24 -10 -38 -31 -44c-21 -5 -42 -11 -63 -13c-24 -3 -49 -3 -76 -4c-4 -9 -10 -19 -14 -29c-37 -107 -93 -205 -161 -296c-12 -15 -21 -32 -32 -48l-8 -8c-5 -3 -11 -6 -15 -11l-129 -142c-3 -4 -5 -9 -5 -15
c10 5 12 20 28 19c-1 -5 -1 -9 -3 -13c-62 -84 -131 -162 -217 -223c-15 -11 -29 -24 -51 -20c-5 1 -11 -5 -17 -8zM499 667c15 12 31 24 47 35l-5 6c-16 -11 -32 -23 -48 -35zM-53 -348c10 4 18 8 26 12c39 23 73 52 106 83c112 106 208 224 294 352c21 31 40 63 59 95
c-1 2 -3 3 -5 5c-7 -5 -15 -10 -22 -16c-54 -40 -110 -77 -175 -101c-18 -7 -36 -15 -57 -7c-2 2 -7 0 -11 -1c17 -15 20 -32 9 -60c-44 -13 -72 -46 -98 -83c-49 -72 -88 -149 -119 -230c-5 -14 -11 -29 -7 -49zM101 133c6 24 -2 41 -13 63c-3 -25 -4 -45 13 -63zM-62 -393
c1 1 2 2 3 4l-10 19c-4 -4 -7 -6 -14 -13c10 -5 15 -8 21 -10z" />
    <glyph glyph-name="H.ss01" horiz-adv-x="690" 
d="M26 -106c-8 16 1 27 8 38s12 22 18 34l-4 3c-4 -4 -8 -8 -10 -13c-12 -22 -26 -42 -52 -54l-10 5c4 12 1 25 11 36c3 4 0 14 -1 21l179 351c-11 2 -23 5 -34 5c-40 0 -79 -2 -119 -1c-25 1 -49 8 -74 22c3 5 6 8 9 14c-2 2 -4 5 -8 10c5 13 9 27 15 42
c86 -2 170 -15 256 -3l17 29c46 82 92 164 139 245c5 8 11 15 17 22c-1 -2 -1 -5 -2 -11c20 18 25 26 32 47c3 5 5 10 8 16c9 3 17 7 27 11c0 -3 2 -9 2 -9c-19 -11 -23 -32 -33 -49c-17 -30 -31 -62 -47 -93c-1 -3 -2 -7 -1 -12c5 7 11 14 17 22l6 -19c29 67 57 130 86 198
c6 -11 10 -17 12 -23c5 -11 10 -22 13 -30c-10 -14 -19 -25 -26 -37c-37 -60 -72 -121 -111 -180c-25 -38 -40 -79 -63 -120c7 -3 11 -6 16 -7c29 -3 57 -11 86 -3c10 3 21 1 31 1c52 2 103 4 155 10l-26 3v4l70 6l38 57c15 20 33 39 48 59l51 73c11 16 24 31 34 47
c4 8 17 14 9 27c-1 2 1 7 3 10l89 131c2 3 6 6 11 10l32 -17c-7 -14 -13 -28 -21 -40c-50 -75 -100 -149 -151 -224c-2 -4 -4 -9 -7 -12c-38 -23 -49 -65 -72 -99l4 -3l23 24c8 8 18 16 27 23s19 14 32 23c-21 -31 -39 -59 -56 -87c14 -12 40 -6 48 -31c-21 3 -42 5 -63 8
l-12 -18c19 -4 35 -9 52 -12c16 -3 34 5 50 -6c-8 -19 -25 -21 -41 -21c-30 -1 -60 0 -88 0l-121 -179c8 -17 0 -32 -7 -47c-12 -22 -26 -44 -39 -65c-10 -16 -24 -26 -43 -30c-13 4 -27 8 -42 13c-13 19 -18 42 -24 66c-8 38 -21 75 -52 102c-12 9 -20 22 -30 33
c-11 13 -21 25 -40 28c-13 1 -25 12 -38 19c-5 -8 -10 -15 -14 -22c-33 -64 -68 -127 -101 -192c-24 -48 -45 -97 -68 -145c-7 -13 -13 -27 -30 -34zM459 116c21 34 41 66 60 98c10 18 19 36 29 53c13 16 31 29 26 53c1 4 2 9 3 17l-264 -15c6 -7 11 -12 15 -16
c15 -14 31 -25 44 -40c34 -40 60 -86 80 -135c1 -5 4 -9 7 -15z" />
    <glyph glyph-name="I.ss01" horiz-adv-x="410" 
d="M353 -114c-56 26 -116 21 -174 23c-105 3 -209 2 -313 1c-29 0 -58 -6 -87 -9c-8 -1 -16 1 -27 2c4 9 7 14 9 18c-2 16 -4 31 -5 46c19 12 38 11 56 5c24 -8 47 -3 70 3c3 0 5 6 11 13h-54c9 13 18 11 26 11c59 1 118 1 177 2h35c6 10 11 19 16 29c-1 0 -2 0 -3 1
c1 12 0 25 4 37c19 66 40 131 60 197c9 29 20 59 29 88c22 69 57 133 83 200c5 12 9 24 10 38s7 28 12 42c3 11 8 21 13 36c-66 -4 -126 -20 -188 -15c33 14 68 17 102 26c-2 5 -3 9 -4 13c22 5 43 9 67 14c-21 6 -21 6 -59 -1l-61 -12c-20 -4 -40 -9 -62 -13
c0 5 -3 11 -2 13c8 9 16 19 26 25c7 5 18 7 27 7c39 4 78 7 117 11h3v1c-3 1 -7 2 -13 5c27 11 53 4 78 9c7 11 14 23 22 35c11 -2 23 -3 33 -7c11 -5 24 -7 32 -20c7 -11 20 -14 35 -15c43 -3 86 -6 129 -11c17 -2 34 -8 52 -13c5 -27 25 -50 7 -81c-4 -2 -10 -6 -18 -11
c-2 3 -4 6 -9 11c-1 -4 -3 -7 -5 -10c-7 5 -13 12 -21 14c-66 11 -132 24 -202 15c-7 -17 -13 -33 -21 -49c-12 -28 -26 -56 -39 -84c-4 -9 -8 -19 -11 -29c-38 -110 -76 -219 -114 -330c-5 -17 -8 -35 -12 -52c-1 -4 -5 -8 -7 -12l-9 -8c-19 -27 -29 -57 -34 -89
c0 -2 2 -5 4 -8c6 7 9 11 13 14c1 -4 2 -8 4 -12c20 -3 39 -7 65 -11c-11 -4 -15 -5 -22 -8c8 -2 13 -4 19 -5v-3h-68c70 -9 141 -1 208 -11l20 -39l-5 -21c-8 -5 -16 -11 -25 -16zM274 510c21 26 30 64 23 87c-8 -29 -16 -58 -23 -87zM247 413c17 21 19 28 16 47z" />
    <glyph glyph-name="J.ss01" horiz-adv-x="300" 
d="M-177 -397c-60 -10 -112 41 -102 101c4 22 7 44 12 66c4 19 10 38 14 57c6 24 14 47 17 71c3 26 10 52 16 77s14 48 22 72c7 24 15 48 22 72c6 19 11 39 18 59c6 20 15 38 40 53l-17 -27c12 4 19 7 26 10c16 -11 25 -23 26 -42c-35 -70 -63 -144 -87 -219
c-4 -13 -6 -27 -8 -39c-29 -58 -43 -119 -48 -182c-1 -15 -6 -33 10 -47l3 58h3v-61c20 -1 35 5 49 16c86 68 145 156 196 252c99 186 187 377 266 572c12 29 22 58 34 87c-5 -33 5 -66 -8 -100c14 11 29 43 37 78c7 28 12 56 18 89c-51 -10 -99 -18 -146 -27
c-47 -10 -94 -21 -142 -31l-16 -24c-27 -2 -54 -3 -79 14l8 20l-3 48c26 10 52 15 78 7c6 -1 13 3 20 4c15 2 31 6 47 6c27 1 50 13 74 31c-10 0 -18 1 -25 1c51 14 100 29 152 31c6 -6 12 -12 20 -21c-13 -4 -25 -7 -36 -11v-2h49l24 -72c4 10 5 15 7 20
c5 -22 3 -45 -5 -66c-28 -76 -55 -152 -86 -226c-38 -90 -80 -179 -122 -267c-53 -113 -109 -225 -180 -329c-31 -45 -65 -89 -106 -127c-27 -24 -54 -46 -92 -52zM-45 -217c14 8 24 20 27 36c19 17 51 70 52 87l-46 -66c-4 -6 -4 -14 -6 -21c-17 -6 -20 -23 -27 -36z" />
    <glyph glyph-name="K.ss01" horiz-adv-x="490" 
d="M525 -166c-7 1 -16 0 -24 4c-32 13 -54 38 -74 65l-171 221c-16 21 -30 43 -46 64c-6 8 -13 15 -22 24c-20 -16 -39 -31 -58 -47c-4 -4 -8 -11 -11 -16c-18 -50 -37 -99 -55 -148c-1 -3 0 -6 0 -11c27 -10 60 -5 85 -28c0 -5 -1 -12 -2 -21c12 -6 24 -13 37 -20
c-4 -13 4 -27 -12 -38c-7 3 -14 7 -22 10c-4 -2 -9 -5 -14 -9c-29 14 -61 17 -93 15c-43 -2 -86 -1 -127 -16c-14 -6 -21 -1 -30 16c5 12 15 13 26 13c29 1 58 2 87 4c3 0 7 1 10 2c-2 25 -11 28 -37 11c-18 7 -36 7 -54 -1c-4 -2 -8 -3 -13 -3c-13 -2 -26 -4 -45 -6
c20 11 16 32 31 40c24 6 49 -5 72 11l-20 7v4c12 1 25 2 38 4c7 17 12 34 19 50c12 24 25 48 38 71c10 19 21 37 32 55c-6 10 -11 17 -16 25l11 10c-2 3 -5 6 -9 11c8 10 15 23 25 31c24 17 25 16 36 44c-18 18 -36 37 -52 54c2 13 3 23 5 34c3 1 6 3 9 5c3 -2 6 -5 10 -8
c7 5 15 9 22 13c20 -4 18 -26 31 -36c2 1 4 2 5 4c14 32 29 64 43 96c4 9 4 20 7 29c3 12 4 25 9 36c20 41 41 83 62 124c11 23 25 45 27 72c0 2 5 4 7 6c4 6 9 11 13 17c19 9 25 -10 36 -15c14 -22 6 -42 -4 -62c-15 -27 -29 -55 -45 -81c-34 -57 -61 -117 -90 -177
c-10 -21 -15 -44 -25 -70c7 3 11 4 14 6c50 37 100 74 150 110c11 9 24 15 36 22c60 38 122 74 171 128c11 11 21 23 31 36c3 4 2 11 4 20c31 28 65 57 100 88c11 -12 23 -25 39 -44c6 -15 -3 -33 -20 -47c-42 -36 -85 -70 -128 -105c-42 -8 -59 -48 -89 -72
c-15 -11 -27 -26 -41 -37c-66 -54 -132 -107 -197 -160c-7 -6 -14 -12 -21 -19c2 -4 2 -7 4 -9c50 -37 85 -87 123 -135c44 -55 86 -112 128 -168c9 -12 18 -24 28 -35c24 -27 24 -32 6 -68zM493 508c56 33 81 54 92 82c-32 -29 -62 -55 -92 -82zM100 -90c0 2 1 4 1 6
c-16 3 -31 6 -52 11c24 20 52 5 74 23c-21 4 -41 8 -60 11c-9 -14 -17 -28 -25 -42c13 -2 23 -3 33 -4c10 -2 20 -3 29 -5z" />
    <glyph glyph-name="L.ss01" horiz-adv-x="330" 
d="M-89 -134c-13 12 -21 23 -37 18c-4 -1 -11 5 -15 8c4 21 17 29 34 35c38 12 75 25 113 38c5 2 10 5 15 10c-37 1 -70 -10 -103 -27c0 4 -1 7 -2 12c-14 -8 -29 -15 -45 -24c5 19 17 28 31 33c31 12 64 23 96 33c9 3 20 5 29 7c22 30 23 66 34 99c37 115 74 230 112 345
c36 112 74 223 111 334c7 20 10 40 16 63l23 -22c8 5 16 10 24 14c18 -11 21 -21 15 -46c-9 -36 -18 -73 -29 -108c-25 -76 -51 -152 -77 -227c-14 -44 -29 -87 -46 -134c-4 25 -1 45 6 65c16 44 31 89 46 133c1 1 0 3 -2 10c-13 -26 -26 -47 -34 -71
c-48 -140 -95 -282 -142 -423c-2 -6 -3 -12 -5 -18c27 -1 34 9 43 58c3 -8 6 -11 5 -14c-2 -11 -6 -22 -9 -33c-1 -1 1 -3 2 -7c9 0 20 -1 29 0c89 8 179 11 268 9c14 0 29 0 42 -5c40 -15 82 -15 123 -23c24 -5 43 -23 54 -46c5 -8 7 -17 10 -26c-5 -16 -9 -32 -27 -44
c-3 8 -5 14 -6 19h-42l-10 26c-8 1 -17 4 -26 5c-85 5 -169 7 -254 3c-43 -3 -86 -3 -129 -4c-29 0 -37 -1 -67 -13c-5 -12 -10 -24 -16 -36c-2 0 -4 0 -6 1c0 9 -1 18 -2 30c-51 -14 -104 -24 -150 -57zM103 -28c34 -9 60 8 88 16v6l-78 -6z" />
    <glyph glyph-name="M.ss01" horiz-adv-x="750" 
d="M-5 -114l-5 33l-23 -30l2 37l-14 -14c-1 1 -2 3 -1 5c6 32 8 64 18 94c48 147 105 290 164 433c37 89 77 177 114 266c15 36 24 73 35 110c5 16 13 29 31 38l24 -38l17 11c4 -9 10 -19 12 -29c3 -23 5 -47 5 -70c1 -122 0 -245 0 -367c0 -48 0 -96 1 -144
c1 -21 4 -42 7 -63c56 156 122 308 190 458c27 59 53 119 79 178c8 16 16 32 25 47c5 9 13 16 18 23c63 -16 91 -50 92 -107c0 -56 0 -112 -8 -166c-10 -68 -24 -135 -43 -200c-14 -48 -18 -95 -22 -143c-2 -27 -7 -54 -10 -80c-2 -19 -3 -37 4 -55l3 36c1 -1 2 -1 3 -1
c-1 -41 -4 -82 -5 -123c-1 -40 0 -80 0 -120c-26 -14 -26 -14 -47 9c-3 -3 -7 -5 -12 -9l-12 9c0 3 -1 6 0 9c1 8 5 16 5 24c-5 71 1 142 7 213c6 73 13 145 20 217c8 86 18 173 26 260c2 14 2 27 -2 42l-63 -135c-10 -21 -20 -43 -31 -63c-11 -18 -20 -38 -27 -57
c-5 -13 -19 -20 -18 -37c1 -14 -7 -30 -11 -45h-8c-1 -11 7 -27 -11 -31c4 -21 -11 -37 -16 -55c-5 -20 -14 -39 -21 -59c-7 -19 -14 -38 -22 -58c-12 -32 -25 -64 -39 -96c-5 -12 -11 -24 -19 -35c-14 -18 -31 -18 -50 -3c-7 0 -15 -3 -21 0c-7 4 -15 11 -20 19
c-4 7 -6 17 -8 26c-9 41 -11 82 -4 123c8 49 2 97 3 146c1 17 0 35 0 59c-7 -11 -11 -16 -14 -20c-5 39 8 78 5 118c-3 41 -1 81 -6 123c-9 -20 -17 -39 -25 -59c-78 -182 -152 -366 -216 -554c-11 -30 -17 -61 -26 -96c-10 -1 -20 -2 -30 -4zM166 399c23 57 46 113 69 168
l-7 3c-12 -27 -25 -55 -37 -83c-22 -48 -28 -70 -25 -88zM355 68c10 25 -1 42 -4 65c-9 -24 -1 -42 4 -65z" />
    <glyph glyph-name="N.ss01" horiz-adv-x="610" 
d="M24 -117c-7 5 -13 10 -22 17c-1 -1 -5 -4 -10 -7c-4 3 -9 7 -17 12c9 41 15 82 25 121c22 82 44 164 70 244c40 127 83 253 125 380c6 19 9 38 13 58v5c11 26 22 51 32 77c18 -10 33 -19 50 -29c0 -9 3 -20 0 -28c-6 -15 -5 -28 -2 -42c1 -8 2 -17 2 -25
c3 -72 3 -145 7 -217c8 -119 19 -238 50 -353l12 -38c2 -5 5 -10 8 -16c15 -1 26 8 34 17c17 20 34 41 47 63c56 95 99 196 144 297c33 75 61 152 81 231c2 9 4 18 7 29c-3 5 -7 9 -12 16c5 36 14 72 39 105c16 -10 31 -17 44 -28c10 -9 16 -23 15 -38c-1 -13 -2 -27 -5 -39
c-16 -61 -32 -122 -49 -182c-2 -7 -6 -14 -10 -20c-41 -60 -59 -129 -83 -195c-9 -26 -17 -52 -28 -76c-24 -51 -50 -102 -76 -152c-12 -22 -26 -43 -40 -64c-6 -8 -13 -16 -20 -24c-46 -45 -78 -40 -131 -8c-15 9 -26 27 -34 43c-21 41 -31 86 -37 132s-14 92 -16 139
c-1 34 -12 67 -13 102c-1 30 -5 60 -7 90c0 5 -2 10 -2 16h-6c-13 -54 -24 -109 -38 -163c-14 -53 -30 -106 -45 -159l-69 -253c-1 -6 -4 -12 -6 -19c-8 -6 -16 -12 -27 -19z" />
    <glyph glyph-name="O.ss01" horiz-adv-x="450" 
d="M171 -40c-47 -19 -91 -9 -133 13c-25 14 -41 38 -45 68c-9 66 3 130 26 191c19 50 41 99 65 146c39 80 93 150 151 217c10 11 23 19 35 28c3 -1 7 -3 9 -2c8 5 14 11 21 18c10 8 18 22 29 24c33 8 50 32 72 53c17 -3 17 -19 24 -32c7 0 14 -1 21 -2c5 -15 -6 -26 -7 -37
c-3 -2 -5 -4 -6 -4c-25 2 -42 -14 -58 -30c-25 -23 -50 -48 -75 -73c-18 -18 -37 -36 -55 -55c-6 -6 -11 -13 -15 -20c-24 -39 -49 -78 -72 -118c-29 -51 -56 -103 -70 -160c-8 -33 -12 -68 -16 -102c-1 -13 3 -26 5 -38c20 -5 36 0 52 5c45 16 84 43 119 75
c85 75 146 167 183 276c9 29 16 59 23 86v-64c2 0 4 -1 6 -1c4 17 10 33 13 50c4 35 6 70 12 105c7 41 7 82 4 123c-1 9 -2 19 -6 27c-5 15 -16 17 -28 7c-7 -5 -14 -11 -23 -18c-2 24 -4 44 -5 67c8 5 16 11 24 17c-8 6 -19 6 -29 0c-8 -5 -15 -11 -24 -16
c5 18 14 31 30 39c20 10 34 7 46 -12c6 -11 9 -23 14 -35h20c23 -12 28 -37 30 -60c4 -37 8 -74 5 -110c-4 -58 -9 -117 -22 -173c-35 -151 -107 -282 -221 -389c-38 -35 -80 -64 -129 -84zM256 540c0 0 1 0 2 1c13 12 24 28 43 34c3 1 5 5 7 8c6 6 3 11 -3 15
c-17 -19 -40 -31 -52 -55c2 -1 2 -2 3 -3z" />
    <glyph glyph-name="P.ss01" horiz-adv-x="360" 
d="M55 -67l-17 16c-2 -1 -5 -3 -10 -5c-30 19 -42 45 -38 81c9 80 34 156 58 232c50 156 110 308 178 457l14 32c-69 0 -132 -7 -189 -21l-36 -29c-22 3 -37 9 -43 30c-3 9 -11 16 -17 23c24 42 61 60 102 67c67 11 134 27 203 24c5 0 11 2 16 3c9 11 17 23 26 35
c13 -10 24 -18 35 -27c16 -14 36 -15 55 -16c72 -7 142 -21 210 -44c16 -5 33 -13 49 -19c53 -20 76 -65 93 -113c6 -17 -1 -33 -13 -47c-27 -31 -59 -58 -95 -78c-74 -42 -149 -83 -226 -121c-42 -21 -86 -36 -129 -54c-2 -1 -4 -1 -6 -1c-34 -7 -67 -7 -95 27
c-5 -11 -9 -19 -12 -27c-22 -65 -43 -130 -65 -195c-8 -24 -17 -48 -26 -72c-2 -8 -5 -16 -7 -24c-10 -35 -8 -46 11 -79c-10 -7 -20 -15 -30 -23c-8 -12 0 -21 4 -32zM256 445c22 3 44 8 66 14c102 33 199 79 292 133c13 7 25 17 36 26c10 9 17 20 15 39
c-106 65 -226 80 -347 89l-105 -271c6 -24 23 -32 43 -30z" />
    <glyph glyph-name="Q.ss01" horiz-adv-x="640" 
d="M629 -127c-35 8 -70 17 -97 43l-90 93c-12 13 -22 28 -35 44c-15 -9 -30 -17 -44 -25c-49 -27 -101 -48 -156 -57c-60 -11 -113 4 -160 42c-24 18 -36 44 -37 74c0 27 0 54 5 81c26 133 90 248 170 355c18 24 34 49 60 66c7 5 12 12 17 19c44 70 106 121 174 165
c10 7 21 14 30 22c24 19 52 30 81 38c14 5 27 -1 39 -9c10 -6 19 -13 29 -20c6 6 10 10 15 13c11 10 21 7 33 1c50 -26 67 -71 73 -122c2 -17 0 -34 -1 -51l-3 -104c-2 -83 -31 -158 -79 -225c-16 -22 -29 -45 -43 -69c-25 -43 -60 -79 -100 -109c-14 -10 -28 -21 -43 -33
c24 -37 41 -74 75 -99c9 -7 18 -15 25 -23c31 -30 32 -31 73 -23l4 -14c7 1 14 1 21 2c0 -1 0 -2 1 -4l-35 -12c7 -15 7 -15 41 -16c11 -7 17 -16 12 -32c-16 -12 -36 -15 -55 -11zM102 63c91 -17 168 23 246 66l-17 27c-17 25 -36 49 -50 75c-15 26 -25 54 -37 80
c4 11 8 22 12 35l25 -6c6 -1 13 -3 15 -4c12 -26 22 -49 32 -73l11 4c24 -31 49 -61 74 -93c7 5 12 8 16 12c41 32 79 69 114 109c88 100 127 217 120 350c-1 22 -5 44 -7 69c-21 -10 -32 -2 -39 13c-5 -2 -8 -3 -14 -6c-5 8 -11 16 -19 26c-10 -2 -22 -4 -33 -9
c-18 -9 -37 -19 -54 -31c-164 -115 -287 -266 -372 -447c-19 -38 -31 -79 -35 -121c-3 -25 -3 -51 12 -76z" />
    <glyph glyph-name="R.ss01" 
d="M635 -83c-14 -3 -22 3 -31 14c-28 34 -58 65 -92 94c-66 53 -130 108 -194 163c-44 37 -86 77 -128 115l-12 8c-19 -28 -30 -58 -45 -87c-14 -30 -28 -60 -41 -90c-13 -29 -27 -58 -37 -89c-10 -30 -16 -63 -23 -92c-21 -15 -34 -5 -44 11c-4 -2 -8 -3 -12 -3
c-14 7 -16 20 -14 33c6 28 11 56 22 81c25 62 52 123 80 184c59 127 123 251 192 373c21 37 43 73 64 110c7 13 13 26 23 45c-15 -3 -24 -4 -34 -6c-41 -10 -82 -19 -122 -31c-42 -13 -80 -34 -113 -65c10 -18 8 -34 -9 -49c-5 1 -12 0 -17 3c-25 16 -34 26 -47 53
c6 9 13 18 22 31l-2 20c17 28 43 46 71 61c43 24 90 37 138 47c39 9 78 21 117 31c11 3 22 6 33 7c34 3 69 5 100 7c13 4 22 10 33 11c76 9 152 2 226 -18c14 -5 27 -12 37 -24c6 -8 15 -14 22 -21c1 -1 2 -1 2 -2c22 -31 45 -60 55 -97c5 -18 0 -36 -10 -51
c-16 -24 -33 -48 -53 -69c-46 -50 -102 -88 -162 -121c-58 -33 -117 -68 -182 -87c-42 -12 -79 -34 -116 -55c-14 -8 -29 -13 -44 -20l-27 -12c29 -27 54 -53 83 -75c14 -10 30 -17 43 -29c11 -12 21 -25 32 -38l18 -18c51 -43 102 -85 153 -129c9 -8 18 -18 26 -29
c12 -16 24 -33 37 -50c5 -19 -2 -33 -18 -45zM498 890c7 2 15 4 22 5c0 2 0 4 -1 5c-7 -2 -15 -3 -22 -5c0 -2 0 -3 1 -5zM233 418c16 -1 27 3 39 9c11 7 23 13 35 19l227 105c63 30 124 64 178 108c18 15 35 32 50 49c16 20 20 42 10 68c-32 21 -66 29 -102 35
c-62 9 -125 8 -188 1c-10 -1 -21 -1 -30 -5c-9 -3 -17 -11 -25 -17c-1 3 -3 5 -6 11c-49 -80 -96 -157 -142 -231c-2 -16 -2 -29 -6 -41c-8 -26 -18 -52 -28 -78c-3 -11 -7 -21 -12 -33zM129 752c35 3 73 18 130 51c-33 2 -113 -29 -130 -51zM522 459c24 12 45 19 61 37
c-23 -3 -40 -14 -61 -37z" />
    <glyph glyph-name="S.ss01" horiz-adv-x="480" 
d="M127 8c-75 19 -143 53 -202 102c-15 12 -30 23 -36 44l11 17c-2 8 -4 15 -5 23c11 14 15 34 41 27c3 -9 5 -18 7 -29c41 -30 72 -75 124 -91c30 -9 61 -16 90 -23c5 7 8 13 12 14c12 3 24 4 36 7c77 18 127 66 151 140c16 50 8 98 -11 146c-4 11 -6 23 -10 34
c-3 7 -6 14 -10 20c-22 29 -43 57 -66 85c-20 24 -38 50 -51 80c-3 8 -8 14 -13 20c-9 12 -17 24 -27 37c-1 -6 -3 -11 -4 -18c-7 28 7 48 20 68c22 30 51 52 84 69c64 35 132 58 205 68c12 2 24 2 36 1c13 -2 24 -6 31 -21c7 -14 21 -25 31 -36c-2 -33 -3 -34 -31 -37
c-20 13 -20 13 -51 9l16 -4c4 -1 8 -2 12 -5c-45 5 -84 -15 -125 -25c-15 -3 -30 -6 -46 -10c-1 7 -1 12 -2 17c-18 3 -31 -2 -42 -17l-12 -15c-9 -11 -18 -22 -32 -28c-9 -3 -14 -12 -23 -19c14 -18 28 -35 41 -52c-3 -5 -7 -10 -11 -17l28 -25c3 4 4 6 6 8c2 -2 5 -3 6 -5
c17 -21 34 -40 51 -61c35 -44 64 -91 77 -145c23 -91 8 -174 -53 -246c-23 -28 -48 -54 -76 -75c-53 -39 -113 -49 -177 -32zM222 700c21 8 42 12 55 24c23 22 51 32 80 42c35 13 70 22 106 33v4c-17 -2 -34 -1 -50 -5c-30 -9 -59 -20 -88 -30c-18 -7 -36 -14 -54 -23
c-20 -9 -38 -21 -49 -45z" />
    <glyph glyph-name="T.ss01" horiz-adv-x="550" 
d="M1279 867l9 -21l-23 -43c-2 8 -4 12 -6 19c-8 -4 -16 -7 -25 -11l-6 15l-16 -7l-15 25c-36 0 -74 2 -113 -1c-59 -4 -119 -11 -179 -17c-30 -3 -60 -8 -89 -12c-11 -2 -20 -7 -32 -11l-7 10c-25 -37 -46 -74 -70 -112l-14 13c13 10 17 24 21 39c-2 1 -4 1 -5 2l-18 -39
c-7 -10 -15 -19 -20 -29c-38 -73 -76 -145 -112 -218c-33 -69 -64 -138 -99 -206c3 11 6 22 8 32c-23 -37 -43 -76 -61 -116l5 -3c11 9 22 18 32 27c9 -8 12 -16 7 -27c-23 -45 -45 -91 -69 -135c-17 -33 -48 -54 -80 -75c-13 6 -28 12 -42 19c-14 8 -20 22 -24 37
c-7 22 -12 45 -22 66c-7 10 -16 19 -21 30c-32 68 -70 133 -115 193c-7 9 -14 19 -17 29c-5 18 -16 31 -29 42l-4 -11c-26 28 -51 54 -65 88c-7 16 -5 33 -2 50c10 54 41 96 81 132c33 30 71 54 111 76c145 78 300 129 461 162c117 24 235 40 353 54c29 4 58 5 87 7
c31 3 61 -3 92 -10c18 -4 36 -6 55 -6c36 -2 66 -22 78 -57zM797 853l27 17c-1 2 -2 4 -2 6l-38 -8c-1 -1 -1 -5 -2 -8c5 -2 9 -4 15 -7zM693 852c4 0 8 5 16 11c-15 0 -24 1 -33 -1c-37 -6 -75 -13 -112 -21c-20 -3 -40 -8 -61 -12c-45 -12 -91 -23 -127 -56
c28 8 57 15 85 24c76 24 153 44 232 55zM724 767l14 23c-2 2 -4 3 -6 4c-5 -8 -9 -16 -13 -24c1 -1 3 -2 5 -3zM600 669c19 37 41 74 65 116c-14 -2 -23 -3 -32 -5c-62 -16 -124 -32 -185 -49c-10 -2 -19 -7 -28 -7c-38 2 -73 -12 -107 -25c-25 -10 -49 -19 -73 -30
c-36 -17 -72 -36 -108 -54c2 -1 3 -3 5 -5c-6 -9 -11 -21 -18 -29c-19 -18 -39 -35 -58 -53c-14 -13 -24 -29 -23 -52l59 -79c14 -19 27 -39 42 -57c63 -77 118 -158 147 -255c2 -6 6 -12 12 -23c8 13 15 21 20 31c43 84 86 168 128 253c15 30 25 63 40 93
c37 77 75 154 114 230zM79 355l4 3c-16 21 -35 39 -50 61c-16 22 -27 47 -50 64c-6 -14 0 -23 6 -33l36 -62l6 -5c1 3 1 5 3 8z" />
    <glyph glyph-name="U.ss01" horiz-adv-x="730" 
d="M557 -5c-14 -24 -30 -23 -46 2c-7 -2 -15 -11 -24 5c2 12 4 28 10 43c45 107 90 214 136 321c4 10 7 19 7 30c-14 -16 -28 -33 -41 -49c-66 -79 -134 -155 -213 -222c-40 -35 -84 -67 -134 -87c-16 -7 -34 -10 -51 -15c-2 -1 -4 -1 -6 -1c-61 -3 -137 31 -144 108
c-5 61 2 120 19 178c5 18 9 36 13 55c20 86 55 165 94 244c55 112 123 215 196 316c2 3 5 5 7 8c21 -12 48 -1 66 -21l-35 -44c12 -1 17 5 22 12c5 6 10 13 17 21c4 -12 -2 -18 -7 -24c-75 -96 -138 -199 -197 -305c-5 -9 -9 -19 -14 -28c-9 14 -5 28 2 41
c14 27 29 54 43 80c8 15 16 30 20 48c-8 -10 -17 -21 -24 -32c-20 -30 -39 -60 -57 -90c-8 -14 -14 -29 -18 -44c-12 -45 -22 -90 -33 -134c0 -4 0 -7 3 -12c1 3 1 7 3 9c2 4 5 8 10 11l-24 -84c-8 -27 -14 -53 -21 -79c-2 -17 -6 -34 -7 -51c-1 -18 -5 -35 3 -53
c6 -14 7 -30 10 -43c18 -15 35 -7 46 -5c12 9 21 18 31 23c30 17 60 34 91 50c6 3 12 5 18 7c5 2 12 3 15 6c39 34 80 65 111 106c2 2 5 5 5 7c-4 21 13 30 24 41c84 91 156 190 233 286c39 49 71 101 108 151l18 21c12 -15 -3 -25 -3 -39c13 0 27 -1 42 -1
c-34 -83 -86 -155 -127 -232l8 -14c-5 -15 -11 -30 -16 -46c24 26 34 60 57 87c-4 -10 -7 -21 -12 -31c-50 -112 -101 -224 -151 -337c-22 -51 -43 -104 -65 -156c-5 -13 -11 -26 -18 -38zM351 773c10 14 20 27 31 43c-18 -7 -27 -19 -31 -43zM111 62c0 4 1 6 0 7
c-18 32 -12 68 -19 102c-1 4 0 8 0 12c4 30 7 60 11 91c3 23 4 46 9 69c8 33 19 65 29 98c-1 0 -2 1 -3 2c-9 -15 -20 -30 -27 -46c-11 -29 -18 -59 -29 -88c-14 -35 -18 -71 -19 -107c0 -29 6 -59 12 -89c4 -21 16 -38 36 -51z" />
    <glyph glyph-name="V.ss01" horiz-adv-x="400" 
d="M120 -63c-6 2 -12 3 -19 4c-28 3 -38 12 -41 40c-5 42 -9 84 -11 126c-2 47 -2 94 0 141c1 60 5 120 7 180c1 21 -2 43 -2 65c1 34 5 69 6 103c1 66 1 132 -1 197c-1 24 -8 48 -12 71c-4 18 1 34 12 56c10 -14 17 -24 25 -34c1 4 3 7 5 12c22 -2 31 -19 35 -36
c6 -23 11 -48 11 -72c1 -94 1 -188 0 -282c-1 -101 -3 -203 -4 -304v-124c14 6 17 16 22 24c14 19 27 39 40 59c3 4 7 8 7 12c2 25 17 45 28 67l366 708c8 16 17 31 27 48c24 -12 52 -13 65 -43c-2 -5 -5 -13 -9 -20c-26 -43 -51 -86 -76 -129c-10 -19 -20 -38 -27 -58
c-23 -67 -49 -132 -83 -194c-7 -15 -17 -28 -25 -42c-2 2 -5 3 -7 4c9 24 17 48 27 72c9 23 20 45 27 69c-21 -36 -57 -60 -70 -101c-2 -4 -5 -8 -6 -12c-1 -18 -8 -33 -17 -49c-15 -28 -25 -58 -36 -88c-6 -16 -11 -33 -16 -51h9c0 -1 1 -3 1 -5
c-50 -127 -116 -246 -187 -362c-11 -18 -23 -35 -41 -46c-10 -6 -19 -8 -30 -6zM82 207l7 2c-1 30 -3 59 -4 88c-1 0 -2 0 -3 -1v-89z" />
    <glyph glyph-name="W.ss01" horiz-adv-x="700" 
d="M894 912c8 -5 15 -13 23 -21c-10 -25 -19 -50 -30 -73c-37 -81 -69 -162 -97 -245c-20 -60 -47 -119 -75 -177c-36 -77 -75 -152 -116 -227c-18 -33 -41 -64 -64 -95c-19 -26 -39 -51 -60 -76c-8 -9 -19 -15 -25 -20c-18 1 -31 3 -44 3c-23 1 -34 11 -42 43
c9 15 8 30 3 47c-10 32 -2 66 3 100c7 50 14 101 22 152c1 7 3 14 2 23l-18 -27c-43 -71 -87 -141 -139 -207c-7 -9 -13 -19 -20 -28c5 0 10 0 17 -1c-9 -15 -16 -28 -23 -41c21 10 28 31 45 44c-2 -5 -4 -11 -7 -16c-19 -23 -36 -47 -57 -68c-34 -35 -73 -29 -110 -14
c-13 5 -21 16 -19 32c0 6 -2 11 -3 16c-5 24 -13 47 -16 72c-5 51 -5 104 0 156c3 22 -1 43 0 65c3 45 6 90 11 135c6 58 15 116 23 174c1 8 1 16 1 27c11 7 10 19 9 32c-2 20 -3 40 -3 60c-1 7 3 14 5 23c12 -4 22 -8 32 -11c11 -12 3 -27 2 -43c26 -10 25 -35 23 -59
c-2 -53 -4 -105 -11 -158c-11 -84 -11 -167 -12 -250c0 -41 -4 -82 -5 -123c0 -21 3 -42 6 -69c14 13 25 20 32 29c31 42 61 85 91 128c12 17 24 33 37 50c7 10 17 19 15 33c0 5 3 11 6 16l74 120c5 8 12 14 18 22c6 -2 11 -3 16 -4l9 -43h15c9 15 20 28 40 29
c12 -14 10 -31 8 -47c-7 -56 -15 -111 -22 -167c-5 -40 -9 -80 -13 -125c15 14 24 27 32 40c35 54 72 106 102 163c8 15 21 27 32 41c6 8 13 17 18 26c16 33 31 68 48 102c27 56 56 112 83 169c9 18 21 37 25 55c4 23 23 40 23 63c30 47 32 100 52 149c12 13 20 1 28 -4z
M383 411c12 4 19 6 26 9c0 6 0 12 -1 23c-10 -12 -15 -19 -25 -32zM416 148c-2 -26 -16 -52 -13 -80c16 8 16 8 18 18c3 16 6 32 8 47c7 38 15 75 19 112c5 44 7 88 10 131c0 7 -1 13 -1 19c-8 -28 -7 -56 -15 -82c-8 -27 -8 -54 -12 -81c-5 -28 -12 -56 -14 -84zM527 133
c14 35 25 71 37 106c-35 -58 -71 -116 -118 -166l3 -41c10 12 17 20 23 29c9 12 15 30 27 37c16 9 23 22 28 35zM194 54c10 8 22 15 22 29c-11 -8 -19 -17 -22 -29zM475 14c22 15 35 37 43 62l-61 -61c8 -3 14 -4 18 -1zM410 11l20 3l-11 37c-20 -15 -20 -15 -9 -40zM394 1
c1 13 1 24 2 35l-20 5c-1 -18 -2 -33 18 -40z" />
    <glyph glyph-name="X.ss01" horiz-adv-x="450" 
d="M376 -50c-43 14 -45 13 -62 60c-23 68 -44 137 -66 207c-3 9 -3 20 -5 30c-13 -21 -33 -37 -48 -58c-28 -37 -58 -72 -86 -108c-22 -28 -46 -53 -83 -67c-18 -2 -12 15 -11 28l-24 -18c-15 2 -18 12 -15 24c2 15 5 30 9 45c24 73 49 147 72 220c13 43 24 86 35 129
c25 101 34 198 38 294c1 25 8 49 29 74c13 -2 6 -18 12 -25c8 7 17 13 27 21c6 -12 12 -23 18 -33c-6 -17 -7 -33 6 -42c2 -2 4 -4 5 -8c6 -41 11 -82 17 -123c8 -53 18 -106 27 -159c1 -8 4 -16 7 -27c39 45 75 86 111 128l63 72c8 10 18 18 21 31c1 8 11 17 18 26
c45 54 90 109 134 163c24 31 47 63 70 95c6 7 12 15 20 24c13 -10 25 -18 39 -28l-8 -21c-1 -3 -6 -8 -6 -10c5 -27 -18 -48 -35 -70c-86 -107 -173 -213 -259 -320c-48 -59 -96 -118 -144 -178c4 -12 6 -24 10 -36c22 -70 45 -141 68 -211c7 -23 16 -45 42 -54
c15 -4 16 -18 21 -30l-21 -35c-18 -13 -32 -15 -46 -10zM89 169c46 62 88 117 128 170c-13 41 -25 81 -37 120c-1 -1 -3 -1 -4 -2c-11 -32 -21 -64 -31 -95l-27 -93c-9 -31 -23 -63 -29 -100zM68 93l120 149c-45 -34 -113 -119 -120 -149zM34 105l4 1l47 134c-2 0 -4 1 -6 1
l-45 -117c-2 -6 0 -13 0 -19zM35 32c8 15 5 24 -3 31c2 -9 -11 -24 3 -31z" />
    <glyph glyph-name="Y.ss01" horiz-adv-x="310" 
d="M438 769c19 -20 16 -43 6 -65c-10 -24 -18 -48 -31 -70c-37 -66 -64 -136 -93 -205c-29 -70 -62 -139 -88 -210c-40 -113 -85 -223 -131 -333c-11 -27 -24 -52 -42 -74c-11 -14 -17 -31 -25 -46c-11 -1 -18 2 -22 13c-3 -3 -7 -5 -13 -9c-4 3 -9 6 -16 10l16 24
c-4 7 -8 16 -14 26c10 18 20 36 28 56c24 59 46 119 70 178c33 80 66 160 101 239c10 25 16 50 21 81c-22 -10 -41 -18 -59 -27c-22 -11 -44 -13 -65 -2c-20 10 -36 24 -48 43c-22 37 -34 77 -37 120c-3 40 -7 80 -13 120c-2 12 -10 23 -9 37c2 50 2 101 3 152c0 1 2 3 4 8
l31 11c0 15 7 27 28 29c5 -8 13 -15 15 -23c4 -11 9 -25 6 -35c-11 -30 -9 -61 -8 -92c2 -73 6 -146 27 -217c6 -22 14 -43 22 -64c5 -10 12 -18 19 -28c30 4 49 20 67 39c8 8 15 17 22 25c45 47 83 97 106 158c16 39 33 78 50 117c6 13 14 25 23 40c8 -10 13 -18 19 -26
c4 3 6 5 9 8c7 -3 14 -6 21 -8zM12 815c-7 -9 -11 -19 -10 -29c0 -37 2 -75 4 -113c2 -32 4 -65 7 -98c0 -4 3 -10 6 -14c-2 43 -10 85 -1 128c2 10 1 22 0 33c-1 26 -3 52 -5 78c0 5 -1 10 -1 15zM4 554c6 -36 9 -75 32 -107c-1 25 -4 50 -8 75c-2 12 -6 24 -9 36v1
c-5 -2 -10 -4 -15 -5zM70 486c2 1 5 2 7 2l-9 32c-1 0 -3 0 -5 -1c2 -11 5 -22 7 -33zM199 438c7 8 15 15 22 22c-2 2 -3 3 -4 5l-22 -22c1 -2 3 -3 4 -5zM157 405c8 3 15 5 24 9c-13 11 -18 2 -24 -3v-6zM191 237c11 38 21 73 32 108c-2 1 -4 1 -5 2
c-15 -34 -36 -67 -27 -110zM172 171c9 8 13 20 11 34zM155 136c2 -1 4 -2 6 -2l8 33c-9 -8 -13 -20 -14 -31zM14 -219c12 5 18 15 23 27c-4 3 -6 5 -11 8c-5 -12 -9 -24 -12 -35z" />
    <glyph glyph-name="Z.ss01" horiz-adv-x="900" 
d="M48 4c-3 -2 -2 -6 -3 -10c14 4 28 8 43 13c51 17 101 26 151 32c68 9 137 22 205 31c65 8 128 16 189 14c16 -1 31 -5 47 -6c22 0 44 1 67 5l-61 6c64 13 172 10 199 -3c14 -50 14 -50 1 -80c-16 -16 -32 -10 -49 -11c-2 4 -6 8 -10 13c-20 0 -41 2 -63 0
c-108 -9 -217 -19 -325 -29c-19 -1 -38 -1 -56 1c-29 3 -58 -4 -88 -10c-86 -18 -174 -40 -259 -48c-13 -1 -27 -7 -41 -10c-24 -6 -49 -12 -73 -17c-9 -1 -17 1 -28 2c4 8 7 13 10 20c-10 -4 -19 -7 -30 -11c-5 14 -23 20 -15 43c5 6 12 13 21 20c69 55 141 102 214 148
c153 96 306 192 460 288c46 29 93 59 138 87c46 29 92 59 135 93c16 12 31 25 48 38c-21 23 -49 34 -77 43c-5 2 -12 3 -18 2c-44 -11 -85 -10 -127 -12c-86 -4 -172 -6 -258 -7c-37 0 -74 -5 -111 -7c-11 1 -22 1 -33 1c-28 16 -61 8 -95 -4c-14 -4 -28 -10 -39 -15
l-39 -40c-12 5 -15 11 -10 22c2 7 4 13 7 20v1l45 37v4c-10 -5 -21 -9 -30 -12c6 14 18 20 31 27c37 17 76 28 113 33c69 8 138 17 205 21c104 5 208 6 311 6c39 0 77 -6 115 -11c28 -3 33 -8 50 -24l-12 -12l-32 9c10 -16 31 -23 33 -47c2 2 5 3 7 5c21 -19 23 -39 1 -69
c-13 -16 -27 -33 -44 -46c-52 -40 -105 -81 -158 -117c-207 -142 -420 -269 -631 -403c-11 -7 -21 -16 -31 -24zM909 642c-2 -2 -6 -3 -8 -5c2 -7 5 -14 7 -21l7 3zM778 530c-29 -23 -61 -42 -92 -71c17 6 28 9 38 13c20 21 37 39 54 58zM139 127c-16 -12 -36 -17 -45 -38
c68 42 136 85 203 127c0 2 -1 4 -2 6c-17 -10 -35 -20 -51 -30c-19 -11 -37 -22 -54 -33c-18 -11 -35 -20 -51 -32zM17 -16l28 10l-7 7c-7 -5 -14 -9 -22 -14c1 -1 2 -2 1 -3zM-70 -89c0 1 1 2 1 3c-5 3 -10 5 -15 7c-3 -4 -5 -6 -7 -10h21z" />
    <glyph glyph-name="a" unicode="a" horiz-adv-x="483" 
d="M181 256c-37 -26 -62 -63 -91 -97c-8 -10 -13 -23 -23 -40c24 13 43 24 61 38c65 49 130 98 196 147l49 39c6 4 13 6 20 10l15 -34c13 3 23 17 38 7c18 -25 9 -50 0 -75c-6 -16 -14 -31 -22 -46l-84 -169c-3 -6 -7 -12 -11 -19c-9 11 -2 21 1 30c5 12 10 24 16 36
c13 18 24 37 31 58c-14 -17 -32 -33 -31 -58c-13 -6 -17 -19 -23 -31c-7 -15 -14 -30 -23 -48l-16 18c-3 -2 -7 -4 -13 -7c-4 4 -8 8 -13 12c5 18 16 33 11 53c-1 5 4 11 7 17l47 92c2 5 4 11 9 22l-86 -61c-3 0 -6 0 -9 -1c-10 3 -12 2 -20 -11c4 1 10 2 15 2
c8 -3 13 1 17 7c9 4 18 7 32 12c-44 -39 -89 -68 -134 -96c-24 -15 -49 -27 -74 -40c-31 -16 -62 -11 -92 1c-15 6 -21 18 -20 35c1 35 12 67 30 95c22 32 44 63 69 92c53 61 112 116 179 162c24 16 51 27 79 34c12 3 22 11 34 17s24 13 37 16c21 6 35 -8 48 -23
c-4 1 -8 3 -14 5c-1 -5 -3 -10 -4 -17c9 -1 18 -3 26 -4c20 -20 26 -42 14 -69c-22 -10 -24 -9 -37 10c-4 -2 -9 -4 -14 -7c-3 3 -7 5 -10 8c-2 3 -3 6 -6 12c-13 -6 -26 -10 -37 -17c-38 -24 -77 -49 -114 -74c-21 -13 -40 -29 -60 -43zM214 136l-8 -3c1 -1 2 -2 2 -4z
M95 96l-23 -11c6 -2 10 -4 14 -5c2 4 4 8 9 16zM35 65c16 -6 21 -4 18 4c-6 -2 -12 -3 -18 -4z" />
    <glyph glyph-name="aacute" unicode="&#xe1;" horiz-adv-x="534" 
d="M511 935c11 -15 4 -30 -11 -47c-39 -44 -73 -92 -112 -135c-29 -33 -61 -64 -94 -92c-16 -13 -36 -24 -57 -27c-5 -1 -11 1 -17 2c0 10 0 17 1 25c2 17 5 34 19 46c60 47 104 110 150 169l53 72l18 21zM310 649c-8 -6 -16 -13 -24 -20c-1 2 -2 4 -4 5c8 7 16 13 25 20z
M419 440c9 -1 18 -3 26 -4c20 -20 26 -42 14 -69c-22 -10 -24 -9 -37 10c-4 -2 -9 -4 -14 -7c-3 3 -7 5 -10 8c-2 3 -3 6 -6 12c-13 -6 -26 -10 -37 -17c-38 -24 -77 -49 -114 -74c-21 -13 -40 -29 -60 -43c-37 -26 -62 -63 -91 -97c-8 -10 -13 -23 -23 -40
c24 13 43 24 61 38c65 49 130 98 196 147l49 39c6 4 13 6 20 10l15 -34c13 3 23 17 38 7c18 -25 9 -50 0 -75c-6 -16 -14 -31 -22 -46l-84 -169c-3 -6 -7 -12 -11 -19c-9 11 -2 21 1 30c5 12 10 24 16 36c13 18 24 37 31 58c-14 -17 -32 -33 -31 -58c-13 -6 -17 -19 -23 -31
c-7 -15 -14 -30 -23 -48l-16 18c-3 -2 -7 -4 -13 -7c-4 4 -8 8 -13 12c5 18 16 33 11 53c-1 5 4 11 7 17l47 92c2 5 4 11 9 22l-86 -61c-3 0 -6 0 -9 -1c-10 3 -12 2 -20 -11c4 1 10 2 15 2c8 -3 13 1 17 7c9 4 18 7 32 12c-44 -39 -89 -68 -134 -96
c-24 -15 -49 -27 -74 -40c-31 -16 -62 -11 -92 1c-15 6 -21 18 -20 35c1 35 12 67 30 95c22 32 44 63 69 92c53 61 112 116 179 162c24 16 51 27 79 34c12 3 22 11 34 17s24 13 37 16c21 6 35 -8 48 -23c-4 1 -8 3 -14 5c-1 -5 -3 -10 -4 -17zM214 136l-8 -3c1 -1 2 -2 2 -4
zM95 96l-23 -11c6 -2 10 -4 14 -5c2 4 4 8 9 16zM35 65c16 -6 21 -4 18 4c-6 -2 -12 -3 -18 -4z" />
    <glyph glyph-name="acircumflex" unicode="&#xe2;" horiz-adv-x="514" 
d="M493 606c2 -3 2 -6 3 -10c-7 -4 -14 -9 -21 -14v-30c-18 0 -20 17 -29 27c-7 -2 -14 -5 -22 -7l-100 164c-58 -50 -106 -103 -167 -145l-16 14c-8 1 -16 1 -27 2l6 40c3 23 19 38 36 53c31 28 61 58 91 87c12 12 24 23 36 33c15 11 30 10 46 1c37 -20 67 -47 88 -84
c25 -44 51 -87 76 -131zM419 440c9 -1 18 -3 26 -4c20 -20 26 -42 14 -69c-22 -10 -24 -9 -37 10c-4 -2 -9 -4 -14 -7c-3 3 -7 5 -10 8c-2 3 -3 6 -6 12c-13 -6 -26 -10 -37 -17c-38 -24 -77 -49 -114 -74c-21 -13 -40 -29 -60 -43c-37 -26 -62 -63 -91 -97
c-8 -10 -13 -23 -23 -40c24 13 43 24 61 38c65 49 130 98 196 147l49 39c6 4 13 6 20 10l15 -34c13 3 23 17 38 7c18 -25 9 -50 0 -75c-6 -16 -14 -31 -22 -46l-84 -169c-3 -6 -7 -12 -11 -19c-9 11 -2 21 1 30c5 12 10 24 16 36c13 18 24 37 31 58c-14 -17 -32 -33 -31 -58
c-13 -6 -17 -19 -23 -31c-7 -15 -14 -30 -23 -48l-16 18c-3 -2 -7 -4 -13 -7c-4 4 -8 8 -13 12c5 18 16 33 11 53c-1 5 4 11 7 17l47 92c2 5 4 11 9 22l-86 -61c-3 0 -6 0 -9 -1c-10 3 -12 2 -20 -11c4 1 10 2 15 2c8 -3 13 1 17 7c9 4 18 7 32 12c-44 -39 -89 -68 -134 -96
c-24 -15 -49 -27 -74 -40c-31 -16 -62 -11 -92 1c-15 6 -21 18 -20 35c1 35 12 67 30 95c22 32 44 63 69 92c53 61 112 116 179 162c24 16 51 27 79 34c12 3 22 11 34 17s24 13 37 16c21 6 35 -8 48 -23c-4 1 -8 3 -14 5c-1 -5 -3 -10 -4 -17zM214 136l-8 -3c1 -1 2 -2 2 -4
zM95 96l-23 -11c6 -2 10 -4 14 -5c2 4 4 8 9 16zM35 65c16 -6 21 -4 18 4c-6 -2 -12 -3 -18 -4z" />
    <glyph glyph-name="adieresis" unicode="&#xe4;" horiz-adv-x="539" 
d="M135 675c-16 15 -18 34 -20 54c-4 37 10 67 30 97l51 -29c5 -19 16 -33 35 -40l19 -56c1 -20 -21 -30 -33 -46c-3 -4 -11 -6 -16 -5c-23 5 -47 8 -66 25zM440 785c37 -12 47 -53 81 -69c-8 -20 -15 -37 -22 -53c-4 -11 -11 -17 -22 -21c-18 -6 -60 5 -72 19
c-15 19 -10 40 -2 60c10 22 24 42 37 64zM419 440c9 -1 18 -3 26 -4c20 -20 26 -42 14 -69c-22 -10 -24 -9 -37 10c-4 -2 -9 -4 -14 -7c-3 3 -7 5 -10 8c-2 3 -3 6 -6 12c-13 -6 -26 -10 -37 -17c-38 -24 -77 -49 -114 -74c-21 -13 -40 -29 -60 -43c-37 -26 -62 -63 -91 -97
c-8 -10 -13 -23 -23 -40c24 13 43 24 61 38c65 49 130 98 196 147l49 39c6 4 13 6 20 10l15 -34c13 3 23 17 38 7c18 -25 9 -50 0 -75c-6 -16 -14 -31 -22 -46l-84 -169c-3 -6 -7 -12 -11 -19c-9 11 -2 21 1 30c5 12 10 24 16 36c13 18 24 37 31 58c-14 -17 -32 -33 -31 -58
c-13 -6 -17 -19 -23 -31c-7 -15 -14 -30 -23 -48l-16 18c-3 -2 -7 -4 -13 -7c-4 4 -8 8 -13 12c5 18 16 33 11 53c-1 5 4 11 7 17l47 92c2 5 4 11 9 22l-86 -61c-3 0 -6 0 -9 -1c-10 3 -12 2 -20 -11c4 1 10 2 15 2c8 -3 13 1 17 7c9 4 18 7 32 12c-44 -39 -89 -68 -134 -96
c-24 -15 -49 -27 -74 -40c-31 -16 -62 -11 -92 1c-15 6 -21 18 -20 35c1 35 12 67 30 95c22 32 44 63 69 92c53 61 112 116 179 162c24 16 51 27 79 34c12 3 22 11 34 17s24 13 37 16c21 6 35 -8 48 -23c-4 1 -8 3 -14 5c-1 -5 -3 -10 -4 -17zM214 136l-8 -3c1 -1 2 -2 2 -4
zM95 96l-23 -11c6 -2 10 -4 14 -5c2 4 4 8 9 16zM35 65c16 -6 21 -4 18 4c-6 -2 -12 -3 -18 -4z" />
    <glyph glyph-name="agrave" unicode="&#xe0;" horiz-adv-x="483" 
d="M305 642c-45 91 -100 177 -154 262c-5 8 -9 17 -14 27c25 15 -2 44 16 61c41 -11 61 -41 78 -74c9 -19 21 -37 31 -55c24 -40 49 -79 73 -120c4 -7 6 -16 10 -23c7 -16 14 -32 24 -45c14 -18 18 -35 6 -56c-15 -12 -28 -8 -39 8c-4 -1 -8 -3 -15 -6c-5 7 -12 13 -16 21z
M181 256c-37 -26 -62 -63 -91 -97c-8 -10 -13 -23 -23 -40c24 13 43 24 61 38c65 49 130 98 196 147l49 39c6 4 13 6 20 10l15 -34c13 3 23 17 38 7c18 -25 9 -50 0 -75c-6 -16 -14 -31 -22 -46l-84 -169c-3 -6 -7 -12 -11 -19c-9 11 -2 21 1 30c5 12 10 24 16 36
c13 18 24 37 31 58c-14 -17 -32 -33 -31 -58c-13 -6 -17 -19 -23 -31c-7 -15 -14 -30 -23 -48l-16 18c-3 -2 -7 -4 -13 -7c-4 4 -8 8 -13 12c5 18 16 33 11 53c-1 5 4 11 7 17l47 92c2 5 4 11 9 22l-86 -61c-3 0 -6 0 -9 -1c-10 3 -12 2 -20 -11c4 1 10 2 15 2
c8 -3 13 1 17 7c9 4 18 7 32 12c-44 -39 -89 -68 -134 -96c-24 -15 -49 -27 -74 -40c-31 -16 -62 -11 -92 1c-15 6 -21 18 -20 35c1 35 12 67 30 95c22 32 44 63 69 92c53 61 112 116 179 162c24 16 51 27 79 34c12 3 22 11 34 17s24 13 37 16c21 6 35 -8 48 -23
c-4 1 -8 3 -14 5c-1 -5 -3 -10 -4 -17c9 -1 18 -3 26 -4c20 -20 26 -42 14 -69c-22 -10 -24 -9 -37 10c-4 -2 -9 -4 -14 -7c-3 3 -7 5 -10 8c-2 3 -3 6 -6 12c-13 -6 -26 -10 -37 -17c-38 -24 -77 -49 -114 -74c-21 -13 -40 -29 -60 -43zM214 136l-8 -3c1 -1 2 -2 2 -4z
M95 96l-23 -11c6 -2 10 -4 14 -5c2 4 4 8 9 16zM35 65c16 -6 21 -4 18 4c-6 -2 -12 -3 -18 -4z" />
    <glyph glyph-name="aring" unicode="&#xe5;" horiz-adv-x="483" 
d="M278 629c-37 24 -53 82 -37 123c8 20 23 36 25 61c3 24 42 45 68 42c8 -1 15 -3 23 -5l16 14c8 -7 17 -13 27 -21c2 -6 4 -14 6 -23c2 4 4 7 9 15c4 -35 17 -63 16 -95c0 -6 -1 -15 -6 -18c-12 -10 -12 -25 -18 -38c-8 -19 -15 -39 -26 -57c-15 -24 -40 -29 -65 -17
c-13 6 -26 12 -38 19zM343 764c-31 -16 -37 -40 -19 -67c13 16 19 36 19 67zM272 737v-22c10 8 12 13 0 22zM181 256c-37 -26 -62 -63 -91 -97c-8 -10 -13 -23 -23 -40c24 13 43 24 61 38c65 49 130 98 196 147l49 39c6 4 13 6 20 10l15 -34c13 3 23 17 38 7
c18 -25 9 -50 0 -75c-6 -16 -14 -31 -22 -46l-84 -169c-3 -6 -7 -12 -11 -19c-9 11 -2 21 1 30c5 12 10 24 16 36c13 18 24 37 31 58c-14 -17 -32 -33 -31 -58c-13 -6 -17 -19 -23 -31c-7 -15 -14 -30 -23 -48l-16 18c-3 -2 -7 -4 -13 -7c-4 4 -8 8 -13 12c5 18 16 33 11 53
c-1 5 4 11 7 17l47 92c2 5 4 11 9 22l-86 -61c-3 0 -6 0 -9 -1c-10 3 -12 2 -20 -11c4 1 10 2 15 2c8 -3 13 1 17 7c9 4 18 7 32 12c-44 -39 -89 -68 -134 -96c-24 -15 -49 -27 -74 -40c-31 -16 -62 -11 -92 1c-15 6 -21 18 -20 35c1 35 12 67 30 95c22 32 44 63 69 92
c53 61 112 116 179 162c24 16 51 27 79 34c12 3 22 11 34 17s24 13 37 16c21 6 35 -8 48 -23c-4 1 -8 3 -14 5c-1 -5 -3 -10 -4 -17c9 -1 18 -3 26 -4c20 -20 26 -42 14 -69c-22 -10 -24 -9 -37 10c-4 -2 -9 -4 -14 -7c-3 3 -7 5 -10 8c-2 3 -3 6 -6 12
c-13 -6 -26 -10 -37 -17c-38 -24 -77 -49 -114 -74c-21 -13 -40 -29 -60 -43zM214 136l-8 -3c1 -1 2 -2 2 -4zM95 96l-23 -11c6 -2 10 -4 14 -5c2 4 4 8 9 16zM35 65c16 -6 21 -4 18 4c-6 -2 -12 -3 -18 -4z" />
    <glyph glyph-name="atilde" unicode="&#xe3;" horiz-adv-x="643" 
d="M604 781c6 -6 14 -16 21 -24c-11 -46 -39 -76 -81 -90c-64 -22 -130 -25 -195 -11c-43 9 -85 25 -118 57c-21 20 -44 23 -68 10c-27 -13 -52 -28 -77 -44c-20 -14 -27 -14 -41 8l-16 -5c-3 3 -6 6 -11 10c7 18 28 18 39 30c-7 17 -19 -2 -28 6c-2 15 8 25 18 33
c35 29 75 49 121 55c22 3 42 -3 60 -15l51 -37c18 -14 38 -23 60 -26c47 -6 94 -6 141 3c34 6 66 19 86 50c4 -3 6 -6 10 -9c-4 -6 -7 -11 -11 -16l3 -4zM179 760c13 -5 24 -8 35 -12c-9 11 -18 23 -35 12zM419 440c9 -1 18 -3 26 -4c20 -20 26 -42 14 -69
c-22 -10 -24 -9 -37 10c-4 -2 -9 -4 -14 -7c-3 3 -7 5 -10 8c-2 3 -3 6 -6 12c-13 -6 -26 -10 -37 -17c-38 -24 -77 -49 -114 -74c-21 -13 -40 -29 -60 -43c-37 -26 -62 -63 -91 -97c-8 -10 -13 -23 -23 -40c24 13 43 24 61 38c65 49 130 98 196 147l49 39c6 4 13 6 20 10
l15 -34c13 3 23 17 38 7c18 -25 9 -50 0 -75c-6 -16 -14 -31 -22 -46l-84 -169c-3 -6 -7 -12 -11 -19c-9 11 -2 21 1 30c5 12 10 24 16 36c13 18 24 37 31 58c-14 -17 -32 -33 -31 -58c-13 -6 -17 -19 -23 -31c-7 -15 -14 -30 -23 -48l-16 18c-3 -2 -7 -4 -13 -7
c-4 4 -8 8 -13 12c5 18 16 33 11 53c-1 5 4 11 7 17l47 92c2 5 4 11 9 22l-86 -61c-3 0 -6 0 -9 -1c-10 3 -12 2 -20 -11c4 1 10 2 15 2c8 -3 13 1 17 7c9 4 18 7 32 12c-44 -39 -89 -68 -134 -96c-24 -15 -49 -27 -74 -40c-31 -16 -62 -11 -92 1c-15 6 -21 18 -20 35
c1 35 12 67 30 95c22 32 44 63 69 92c53 61 112 116 179 162c24 16 51 27 79 34c12 3 22 11 34 17s24 13 37 16c21 6 35 -8 48 -23c-4 1 -8 3 -14 5c-1 -5 -3 -10 -4 -17zM214 136l-8 -3c1 -1 2 -2 2 -4zM95 96l-23 -11c6 -2 10 -4 14 -5c2 4 4 8 9 16zM35 65
c16 -6 21 -4 18 4c-6 -2 -12 -3 -18 -4z" />
    <glyph glyph-name="b" unicode="b" horiz-adv-x="558" 
d="M529 970c11 -12 38 -14 26 -42c-6 2 -12 3 -19 5l-3 -5c-24 -45 -48 -89 -73 -133c-37 -66 -75 -130 -113 -195c-2 -4 -3 -9 -4 -13v1c-5 -6 -10 -12 -14 -18c-22 -36 -43 -72 -64 -108c-6 -10 -9 -22 -13 -33l-16 -51c13 0 19 7 26 11c30 19 60 34 96 38
c23 2 44 -2 63 -16c5 -3 10 -7 16 -9c30 -14 43 -39 48 -71c9 -49 -4 -94 -24 -138c-39 -84 -95 -153 -181 -193c-15 -7 -31 -12 -47 -16s-32 -6 -49 2c-5 2 -12 1 -18 2c-13 2 -26 3 -37 8c-31 14 -58 35 -81 61c-28 33 -16 86 4 110c6 7 17 11 26 15c6 3 13 4 21 5
c-9 22 -6 42 3 62c7 17 16 34 25 51c95 184 191 368 287 552c21 40 42 79 64 119c8 14 16 29 32 39c14 -12 38 -10 46 -34zM468 899c5 11 13 18 10 29c-4 -8 -14 -14 -10 -29zM377 402l-16 -5c5 0 11 1 17 1c0 2 -1 3 -1 4zM323 391c-42 -12 -74 -41 -107 -66
c-7 -6 -9 -14 -7 -27c5 7 6 11 9 13c29 23 56 47 92 61c15 6 30 15 45 24c-10 -1 -22 -1 -32 -5zM424 369c-8 8 -8 8 -19 5c7 -2 13 -3 19 -5zM198 360l-13 -21l4 -3c6 6 14 10 9 24zM293 346c22 -2 22 -2 30 14c-12 -6 -21 -10 -30 -14zM412 354c-21 2 -41 2 -61 -7
c-51 -23 -98 -53 -137 -95c-17 -19 -34 -38 -51 -56c-5 -5 -10 -8 -15 -12c-2 0 -4 1 -5 2c4 13 8 27 3 43c-15 -20 -32 -35 -43 -55c-3 -5 -6 -10 -14 -10c-5 0 -9 -4 -15 -7h38v-12c14 2 13 22 29 19c11 -13 14 -27 3 -43c-14 -7 -37 2 -46 -20c11 -24 28 -42 54 -49
c5 -1 9 -4 14 -6c17 -8 34 -17 53 -1c4 3 10 4 15 5c21 7 38 19 53 35c22 25 45 48 67 73c19 22 41 43 51 72c0 1 2 2 3 2c2 -1 3 -1 6 -3c-6 14 4 23 9 33l3 -33c3 9 6 15 7 21c4 20 8 39 11 59c4 22 -10 42 -32 45zM157 273c-13 -8 -19 -19 -23 -34c12 10 22 17 23 34z
M72 112c7 3 14 5 20 7c0 1 0 2 -1 3l-21 -6c1 -1 2 -2 2 -4zM89 87l3 25c-14 -11 -14 -11 -3 -25z" />
    <glyph glyph-name="c" unicode="c" horiz-adv-x="449" 
d="M94 43c-18 -1 -35 -2 -51 7c-4 2 -9 3 -13 3c-43 4 -59 26 -50 68c1 6 3 12 3 18c-2 37 12 68 33 98c4 6 6 12 10 18c6 5 14 10 12 20c1 1 1 2 3 3c12 5 21 14 24 28l23 21c3 1 7 2 10 4c19 16 39 31 58 47c9 7 16 14 24 21c2 2 5 3 5 4c-2 20 14 21 25 27
c33 19 68 30 105 38c10 2 21 1 32 2c8 0 15 -2 20 -8c8 -10 20 -13 32 -15c37 -6 61 -46 51 -81c-3 -9 -5 -19 -17 -22c-8 -2 -12 0 -23 14c-3 -2 -5 -3 -10 -7c-3 5 -7 9 -9 14c-2 3 0 7 -1 11c-1 19 -8 26 -27 25c-26 -1 -51 -7 -75 -17c-18 -7 -36 -14 -52 -24
c-51 -31 -102 -63 -142 -109c-25 -29 -45 -61 -59 -97c-4 -10 -5 -22 -8 -35c11 -2 20 -5 28 -4c88 5 168 33 238 88c18 14 31 32 48 50c6 -8 21 -5 28 -17c9 1 10 -7 12 -13c1 -7 2 -14 0 -20c-6 -20 -20 -35 -34 -50c-32 -33 -71 -55 -113 -73c-44 -19 -91 -33 -140 -37z
M13 72c-10 17 -16 29 -24 42c-4 -24 -1 -29 24 -42z" />
    <glyph glyph-name="ccedilla" unicode="&#xe7;" horiz-adv-x="489" 
d="M134 43c-18 -1 -35 -2 -51 7c-4 2 -9 3 -13 3c-43 4 -59 26 -50 68c1 6 3 12 3 18c-2 37 12 68 33 98c4 6 6 12 10 18c6 5 14 10 12 20c1 1 1 2 3 3c12 5 21 14 24 28l23 21c3 1 7 2 10 4c19 16 39 31 58 47c9 7 16 14 24 21c2 2 5 3 5 4c-2 20 14 21 25 27
c33 19 68 30 105 38c10 2 21 1 32 2c8 0 15 -2 20 -8c8 -10 20 -13 32 -15c37 -6 61 -46 51 -81c-3 -9 -5 -19 -17 -22c-8 -2 -12 0 -23 14c-3 -2 -5 -3 -10 -7c-3 5 -7 9 -9 14c-2 3 0 7 -1 11c-1 19 -8 26 -27 25c-26 -1 -51 -7 -75 -17c-18 -7 -36 -14 -52 -24
c-51 -31 -102 -63 -142 -109c-25 -29 -45 -61 -59 -97c-4 -10 -5 -22 -8 -35c11 -2 20 -5 28 -4c88 5 168 33 238 88c18 14 31 32 48 50c6 -8 21 -5 28 -17c9 1 10 -7 12 -13c1 -7 2 -14 0 -20c-6 -20 -20 -35 -34 -50c-32 -33 -71 -55 -113 -73c-44 -19 -91 -33 -140 -37z
M53 72c-10 17 -16 29 -24 42c-4 -24 -1 -29 24 -42zM81 -329c-42 -10 -81 10 -103 51c5 5 9 9 15 14c5 -9 10 -16 15 -26c3 11 5 20 7 30c-17 19 -17 20 -6 36c6 -4 12 -8 19 -12c5 -4 11 -7 18 -12c60 12 117 38 167 78c18 14 18 23 2 40c-7 7 -16 14 -25 19
c-13 9 -28 16 -40 23c-13 25 6 35 19 49c-7 4 -12 6 -18 9c11 24 79 86 116 105c15 -19 42 -29 41 -62c-6 -32 -46 -35 -61 -65c12 -13 24 -28 37 -42c17 -18 23 -39 26 -63c1 -8 -2 -17 -5 -24c-9 -23 -23 -42 -42 -58c-54 -43 -114 -74 -182 -90zM181 -15c5 4 10 7 14 10
c-1 1 -1 3 -2 4c-5 -3 -10 -7 -14 -10c1 -1 1 -2 2 -4z" />
    <glyph glyph-name="d" unicode="d" horiz-adv-x="578" 
d="M728 965c36 1 58 -25 47 -59c-18 -59 -47 -113 -77 -166c-44 -77 -90 -153 -143 -225c-3 -4 -6 -9 -8 -14c-41 -96 -78 -194 -109 -294c0 -1 0 -3 -1 -7c11 -12 22 -25 33 -38c-11 -41 -30 -76 -55 -107c-15 -19 -30 -21 -52 -10c-2 1 -5 4 -7 3c-9 -2 -17 1 -21 8
c-4 8 -6 17 -5 26c3 24 5 49 12 72c9 31 21 62 31 92c4 11 7 21 7 34c-6 -6 -12 -12 -17 -18c-58 -66 -117 -129 -186 -183c-25 -20 -52 -37 -82 -48c-30 -12 -57 -1 -83 11c-16 8 -20 23 -19 42c4 53 27 99 56 142c66 97 151 171 260 218c34 14 70 24 109 22
c27 39 59 74 77 118c22 52 47 103 72 153c13 26 28 51 44 75c6 10 18 14 24 27c16 31 35 60 47 93c8 23 18 33 39 49zM84 126c96 61 168 141 237 223c-73 -26 -195 -132 -237 -223zM290 271c43 47 45 49 47 69c-41 -40 -76 -81 -108 -125l5 -5c19 20 37 41 56 61zM127 262
l-5 -17c4 3 14 4 5 17zM120 243c-5 -1 -11 0 -6 -10c2 4 4 6 6 10zM87 200c-1 1 -3 1 -4 2c-2 -4 -3 -7 -4 -11zM68 164l8 23c-8 -4 -10 -12 -13 -20zM55 142c2 0 3 1 4 1l-3 10c-1 -1 -3 -1 -4 -2z" />
    <glyph glyph-name="e" unicode="e" horiz-adv-x="446" 
d="M207 59c-25 0 -47 11 -70 19c2 3 4 5 6 9c-20 14 -31 37 -56 45c-6 2 -10 10 -15 15c-7 8 -14 17 -20 25c-3 4 -4 9 -5 13c-1 9 -1 17 -2 26c-19 1 -41 -15 -58 9c1 7 1 16 2 26c7 5 14 10 21 16l-1 -1c21 -1 43 -2 62 10c6 3 13 6 17 11c19 21 41 39 65 54
c21 15 41 31 56 52c6 9 13 16 21 22c17 13 34 25 51 36c21 14 43 26 65 38c14 8 28 8 42 0c9 -5 18 -9 26 -13c-4 -3 -14 6 -13 -11l13 11c29 -15 35 -34 22 -63c-8 -18 -20 -32 -34 -45c-39 -36 -84 -64 -130 -91c-45 -26 -94 -42 -140 -62c-5 -2 -11 -4 -15 -6
c1 -53 31 -77 107 -83c-3 3 -4 6 -7 9c21 4 41 6 60 12c19 5 38 14 59 21c8 -5 18 -12 28 -20c19 -15 19 -40 -1 -51c-37 -22 -77 -33 -120 -33h-36zM183 298c38 14 82 42 100 61l-3 12c-37 -21 -69 -45 -97 -73zM94 181c1 8 2 13 3 18c-9 -4 -6 -10 -3 -18z" />
    <glyph glyph-name="eacute" unicode="&#xe9;" horiz-adv-x="519" 
d="M237 634c-5 -1 -11 1 -17 2c0 10 0 17 1 25c2 17 5 34 19 46c60 47 104 110 150 169l53 72l18 21l50 -34c11 -15 4 -30 -11 -47c-39 -44 -73 -92 -112 -135c-29 -33 -61 -64 -94 -92c-16 -13 -36 -24 -57 -27zM286 629c-1 2 -2 4 -4 5c8 7 16 13 25 20l3 -5
c-8 -6 -16 -13 -24 -20zM207 59c-25 0 -47 11 -70 19c2 3 4 5 6 9c-20 14 -31 37 -56 45c-6 2 -10 10 -15 15c-7 8 -14 17 -20 25c-3 4 -4 9 -5 13c-1 9 -1 17 -2 26c-19 1 -41 -15 -58 9c1 7 1 16 2 26c7 5 14 10 21 16l-1 -1c21 -1 43 -2 62 10c6 3 13 6 17 11
c19 21 41 39 65 54c21 15 41 31 56 52c6 9 13 16 21 22c17 13 34 25 51 36c21 14 43 26 65 38c14 8 28 8 42 0c9 -5 18 -9 26 -13c-4 -3 -14 6 -13 -11l13 11c29 -15 35 -34 22 -63c-8 -18 -20 -32 -34 -45c-39 -36 -84 -64 -130 -91c-45 -26 -94 -42 -140 -62
c-5 -2 -11 -4 -15 -6c1 -53 31 -77 107 -83c-3 3 -4 6 -7 9c21 4 41 6 60 12c19 5 38 14 59 21c8 -5 18 -12 28 -20c19 -15 19 -40 -1 -51c-37 -22 -77 -33 -120 -33h-36zM183 298c38 14 82 42 100 61l-3 12c-37 -21 -69 -45 -97 -73zM94 181c1 8 2 13 3 18
c-9 -4 -6 -10 -3 -18z" />
    <glyph glyph-name="ecircumflex" unicode="&#xea;" horiz-adv-x="499" 
d="M475 552c-18 0 -20 17 -29 27c-7 -2 -14 -5 -22 -7l-100 164c-58 -50 -106 -103 -167 -145l-16 14c-8 1 -16 1 -27 2l6 40c3 23 19 38 36 53c31 28 61 58 91 87c12 12 24 23 36 33c15 11 30 10 46 1c37 -20 67 -47 88 -84c25 -44 51 -87 76 -131c2 -3 2 -6 3 -10
c-7 -4 -14 -9 -21 -14v-30zM207 59c-25 0 -47 11 -70 19c2 3 4 5 6 9c-20 14 -31 37 -56 45c-6 2 -10 10 -15 15c-7 8 -14 17 -20 25c-3 4 -4 9 -5 13c-1 9 -1 17 -2 26c-19 1 -41 -15 -58 9c1 7 1 16 2 26c7 5 14 10 21 16l-1 -1c21 -1 43 -2 62 10c6 3 13 6 17 11
c19 21 41 39 65 54c21 15 41 31 56 52c6 9 13 16 21 22c17 13 34 25 51 36c21 14 43 26 65 38c14 8 28 8 42 0c9 -5 18 -9 26 -13c-4 -3 -14 6 -13 -11l13 11c29 -15 35 -34 22 -63c-8 -18 -20 -32 -34 -45c-39 -36 -84 -64 -130 -91c-45 -26 -94 -42 -140 -62
c-5 -2 -11 -4 -15 -6c1 -53 31 -77 107 -83c-3 3 -4 6 -7 9c21 4 41 6 60 12c19 5 38 14 59 21c8 -5 18 -12 28 -20c19 -15 19 -40 -1 -51c-37 -22 -77 -33 -120 -33h-36zM183 298c38 14 82 42 100 61l-3 12c-37 -21 -69 -45 -97 -73zM94 181c1 8 2 13 3 18
c-9 -4 -6 -10 -3 -18z" />
    <glyph glyph-name="edieresis" unicode="&#xeb;" horiz-adv-x="524" 
d="M201 650c-23 5 -47 8 -66 25c-16 15 -18 34 -20 54c-4 37 10 67 30 97l51 -29c5 -19 16 -33 35 -40l19 -56c1 -20 -21 -30 -33 -46c-3 -4 -11 -6 -16 -5zM477 642c-18 -6 -60 5 -72 19c-15 19 -10 40 -2 60c10 22 24 42 37 64c37 -12 47 -53 81 -69
c-8 -20 -15 -37 -22 -53c-4 -11 -11 -17 -22 -21zM207 59c-25 0 -47 11 -70 19c2 3 4 5 6 9c-20 14 -31 37 -56 45c-6 2 -10 10 -15 15c-7 8 -14 17 -20 25c-3 4 -4 9 -5 13c-1 9 -1 17 -2 26c-19 1 -41 -15 -58 9c1 7 1 16 2 26c7 5 14 10 21 16l-1 -1c21 -1 43 -2 62 10
c6 3 13 6 17 11c19 21 41 39 65 54c21 15 41 31 56 52c6 9 13 16 21 22c17 13 34 25 51 36c21 14 43 26 65 38c14 8 28 8 42 0c9 -5 18 -9 26 -13c-4 -3 -14 6 -13 -11l13 11c29 -15 35 -34 22 -63c-8 -18 -20 -32 -34 -45c-39 -36 -84 -64 -130 -91
c-45 -26 -94 -42 -140 -62c-5 -2 -11 -4 -15 -6c1 -53 31 -77 107 -83c-3 3 -4 6 -7 9c21 4 41 6 60 12c19 5 38 14 59 21c8 -5 18 -12 28 -20c19 -15 19 -40 -1 -51c-37 -22 -77 -33 -120 -33h-36zM183 298c38 14 82 42 100 61l-3 12c-37 -21 -69 -45 -97 -73zM94 181
c1 8 2 13 3 18c-9 -4 -6 -10 -3 -18z" />
    <glyph glyph-name="egrave" unicode="&#xe8;" horiz-adv-x="446" 
d="M375 619c-15 -12 -28 -8 -39 8c-4 -1 -8 -3 -15 -6c-5 7 -12 13 -16 21c-45 91 -100 177 -154 262c-5 8 -9 17 -14 27c25 15 -2 44 16 61c41 -11 61 -41 78 -74c9 -19 21 -37 31 -55c24 -40 49 -79 73 -120c4 -7 6 -16 10 -23c7 -16 14 -32 24 -45c14 -18 18 -35 6 -56z
M207 59c-25 0 -47 11 -70 19c2 3 4 5 6 9c-20 14 -31 37 -56 45c-6 2 -10 10 -15 15c-7 8 -14 17 -20 25c-3 4 -4 9 -5 13c-1 9 -1 17 -2 26c-19 1 -41 -15 -58 9c1 7 1 16 2 26c7 5 14 10 21 16l-1 -1c21 -1 43 -2 62 10c6 3 13 6 17 11c19 21 41 39 65 54
c21 15 41 31 56 52c6 9 13 16 21 22c17 13 34 25 51 36c21 14 43 26 65 38c14 8 28 8 42 0c9 -5 18 -9 26 -13c-4 -3 -14 6 -13 -11l13 11c29 -15 35 -34 22 -63c-8 -18 -20 -32 -34 -45c-39 -36 -84 -64 -130 -91c-45 -26 -94 -42 -140 -62c-5 -2 -11 -4 -15 -6
c1 -53 31 -77 107 -83c-3 3 -4 6 -7 9c21 4 41 6 60 12c19 5 38 14 59 21c8 -5 18 -12 28 -20c19 -15 19 -40 -1 -51c-37 -22 -77 -33 -120 -33h-36zM183 298c38 14 82 42 100 61l-3 12c-37 -21 -69 -45 -97 -73zM94 181c1 8 2 13 3 18c-9 -4 -6 -10 -3 -18z" />
    <glyph glyph-name="f" unicode="f" horiz-adv-x="407" 
d="M101 -29c-38 5 -56 27 -64 60c-7 29 -14 58 -27 85c-4 9 -4 19 -15 25c-3 1 -4 5 -5 9c-10 39 -6 77 13 113c3 6 8 10 10 16c20 45 56 70 99 90c9 4 20 8 29 13c10 6 19 14 32 8c3 -1 9 2 13 4c16 6 32 12 48 19c6 2 12 6 15 11c8 11 9 24 20 35c10 9 12 26 17 40
c8 19 14 39 23 58c45 98 93 195 151 287c26 40 49 83 77 122c26 36 56 69 86 102c27 29 60 48 101 53c21 2 41 7 61 -1c6 -3 13 -5 17 -9c15 -17 31 -33 43 -51c7 -10 10 -24 11 -36c5 -47 -9 -90 -27 -132c-27 -61 -61 -118 -100 -172c-10 -13 -22 -24 -32 -37
c-49 -62 -102 -120 -163 -171c-5 -3 -9 -7 -13 -10c-1 -1 -3 -1 -4 -1l-3 24c28 30 59 61 88 93c18 20 32 44 50 69c-26 -9 -35 -29 -46 -44c-34 -44 -75 -81 -115 -120c-7 -7 -15 -3 -24 -7c-3 7 -5 14 -9 23h14l3 33c19 18 41 36 61 57c41 41 83 82 121 126
c51 59 86 128 116 199c13 30 13 61 7 93c-21 6 -38 -1 -53 -11c-21 -15 -44 -30 -61 -49c-32 -34 -60 -70 -90 -106c-11 -13 -21 -27 -34 -45c1 10 2 16 2 21c-30 -27 -181 -315 -199 -378c5 -2 10 -3 16 -5c-7 0 -13 -1 -20 -2c-3 -6 -5 -12 -8 -18c3 -1 5 -2 6 -2
c9 2 18 5 26 7c31 10 56 -23 43 -48c-1 -3 -2 -7 -5 -13c8 -4 16 -9 26 -15c-1 -4 -4 -11 -7 -21c-15 17 -24 34 -33 53l-4 -18l-11 19c-4 0 -10 1 -17 1c6 -14 11 -27 17 -40c-2 -1 -4 -2 -5 -3c-6 8 -11 16 -16 24c-29 6 -41 1 -56 -23c-2 3 -3 7 -6 13
c-20 -31 -29 -65 -44 -98c6 4 11 7 20 12l9 -17c-29 -74 -53 -152 -91 -225c-20 -39 -49 -68 -84 -89zM664 1019c12 6 21 16 31 24c11 9 22 17 34 25c-15 4 -25 -5 -34 -13c-11 -11 -26 -19 -31 -36zM619 964c2 1 4 2 6 4c1 2 1 5 3 14c-7 -8 -10 -12 -12 -15zM734 826
c17 23 30 46 41 76c-21 -22 -41 -58 -41 -76zM555 870l7 12l-4 4l-6 -14zM100 65c18 26 98 223 117 287c-26 -14 -49 -26 -72 -39c-1 0 0 -3 0 -4c5 0 10 -1 18 -1c-23 -19 -44 -35 -64 -52c-9 -8 -19 -17 -26 -27c-16 -23 -21 -48 -7 -74c5 -8 6 -17 9 -26
c8 -20 16 -40 25 -64z" />
    <glyph glyph-name="g" unicode="g" horiz-adv-x="321" 
d="M-171 -630c-27 -14 -53 -10 -81 2c-50 22 -65 61 -67 109c-1 25 3 51 4 71l18 25c5 7 9 13 13 20c-8 27 -3 54 5 78c39 113 94 217 164 313c9 13 19 27 39 29c9 -11 25 -17 24 -37l19 -3c15 -22 15 -47 10 -73c-16 -1 -30 -3 -44 -4c-12 0 -22 -3 -27 -14
c-12 -23 -31 -40 -45 -61c-13 -18 -25 -38 -33 -59c-16 -43 -30 -88 -45 -131c-19 -53 -26 -108 -29 -163c0 -9 3 -17 5 -28c32 3 57 17 77 35c36 31 72 62 99 101c81 119 161 238 223 368c24 52 43 106 64 159c2 3 2 7 3 14c-8 -4 -13 -6 -18 -9c-12 -5 -24 -12 -37 -17
c-44 -16 -82 -7 -114 26c11 5 11 5 0 15v-16c-18 14 -21 32 -16 55c7 32 23 60 41 85c32 44 70 81 117 110c17 10 34 16 54 18c14 1 28 4 43 5c20 2 37 -5 50 -21c5 -7 13 -12 21 -17c29 -17 43 -42 44 -76c0 -11 4 -26 -1 -31c-10 -10 0 -20 -8 -28c-9 -9 -15 -20 -24 -32
c-3 13 7 20 14 33c-21 -13 -37 4 -57 0c-7 8 -3 18 -1 29c3 20 8 41 -8 61c-34 5 -63 -9 -92 -24c-17 -9 -33 -23 -48 -35c-16 -13 -30 -26 -45 -40c-6 -6 -10 -14 -13 -25c6 2 12 3 18 6c22 12 43 24 64 36c26 14 28 13 50 -6l5 -3c40 -22 40 -59 28 -95
c-18 -57 -40 -113 -62 -169c-30 -76 -68 -149 -110 -219c-29 -48 -61 -95 -91 -142c-4 -6 -7 -11 -13 -18c-2 1 -4 3 -7 4c-29 -36 -58 -73 -89 -110c3 -1 6 -2 9 -4c-19 -47 -57 -75 -100 -97zM227 157l1 1c-1 2 -2 3 -2 4l-3 -3c1 -1 2 -1 4 -2zM105 129
c30 -7 38 -5 61 12c-12 4 -39 -1 -61 -12zM-27 -380c2 1 3 1 4 2v4c-2 0 -3 -1 -4 -2s0 -3 0 -4zM-291 -446c1 2 2 5 2 8l-1 7c-1 0 -2 -1 -2 -1c0 -5 0 -9 1 -14zM-238 -585c4 2 5 2 5 3s0 2 -1 2c-4 4 -8 7 -13 10c-1 -1 -2 -2 -3 -4c4 -4 8 -8 12 -11zM-208 -611
c10 3 19 7 29 11c-14 7 -23 1 -29 -11z" />
    <glyph glyph-name="h" unicode="h" horiz-adv-x="392" 
d="M245 596c-21 -54 -41 -109 -62 -163c-1 -5 -2 -9 -5 -19c39 26 64 64 108 71c-4 -5 -9 -8 -18 -17l59 10c14 2 21 0 30 -12c16 -24 24 -51 19 -80c-4 -29 -10 -57 -17 -86c-22 -79 -43 -159 -65 -238c-10 -36 -22 -72 -33 -108c-4 -11 -8 -21 -14 -35c-4 9 -9 14 -15 23
c-4 -10 -8 -17 -13 -24c-1 -1 -3 0 -4 0c0 4 -1 8 0 11c5 11 9 22 17 32c16 23 21 51 30 77c11 32 23 64 33 97c5 19 17 37 16 59c-1 15 9 28 13 42c13 40 27 81 27 123c1 20 -1 41 -2 61c-11 -8 -8 -19 -10 -30c-10 -57 -27 -112 -44 -167c-23 -73 -45 -146 -68 -219
c-2 -10 -7 -19 -12 -34c0 13 0 21 1 35c-10 -21 -19 -39 -29 -61c-1 9 -2 13 -2 17c12 33 23 67 33 101l18 62c14 49 30 98 43 146c10 36 15 74 22 109c3 16 3 32 -5 46c-17 -1 -28 -13 -39 -23c-36 -36 -64 -76 -91 -119c-35 -56 -68 -114 -103 -170l-16 -25
c-2 1 -4 3 -8 5c-6 -12 -12 -24 -18 -35c-19 7 -41 7 -48 37c20 53 42 109 64 164c34 83 70 166 102 250c49 123 95 245 144 368c21 55 45 109 67 163c3 9 9 15 17 21c-5 -14 -10 -26 -14 -40l9 -15c7 19 14 35 22 54c8 -11 10 -19 3 -29c-8 -12 -16 -25 -24 -39
c-3 -5 -5 -11 -9 -23c20 16 18 44 43 47c11 -5 10 -13 6 -23c-9 -25 -17 -51 -27 -77c-23 -59 -47 -119 -71 -177c-6 -17 -16 -32 -24 -49c-12 -31 -23 -62 -36 -94zM345 443c-7 -9 -1 -16 4 -21c8 9 7 14 -4 21z" />
    <glyph glyph-name="i" unicode="i" horiz-adv-x="274" 
d="M206 471c-10 -8 -19 -1 -28 14c-5 0 -10 -3 -12 -1c-4 1 -8 7 -7 11c1 19 6 38 22 51c15 -2 22 -11 26 -27c6 11 13 15 24 10c2 -9 7 -18 3 -28c-7 -13 -18 -22 -28 -30zM112 19c-37 -21 -77 -9 -91 31c-11 29 -8 59 -6 89c6 69 36 130 69 190c7 13 12 26 19 39
c7 15 17 30 30 42c4 -4 19 -8 24 -12c-10 -9 -20 -16 -33 -27l11 -7c4 4 8 8 11 12c4 6 13 -2 15 6c3 6 8 9 14 6c6 -18 5 -23 -7 -34c-5 -5 -9 -10 -13 -17c-7 -11 -13 -24 -21 -36l-4 11c-14 -29 -28 -54 -39 -82c-4 -9 -2 -21 -2 -32c0 -4 1 -9 0 -12
c-8 -18 -8 -37 -10 -56c-3 -24 0 -48 7 -72c0 -3 2 -6 4 -9c14 1 23 6 29 17c-3 2 -6 2 -6 2l30 26c7 -7 -9 -10 -10 -20c11 -3 24 -3 38 -2c-7 -8 -11 -16 -16 -21c-12 -10 -25 -18 -36 -27c-3 -2 -5 -4 -7 -5z" />
    <glyph glyph-name="iacute" unicode="&#xed;" horiz-adv-x="512" 
d="M195 554c-5 -1 -11 1 -17 2c0 10 0 17 1 25c2 17 5 34 19 46c60 47 104 110 150 169l53 72l18 21l50 -34c11 -15 4 -30 -11 -47c-39 -44 -73 -92 -112 -135c-29 -33 -61 -64 -94 -92c-16 -13 -36 -24 -57 -27zM244 549c-1 2 -2 4 -4 5c8 7 16 13 25 20l3 -5
c-8 -6 -16 -13 -24 -20zM112 19c-37 -21 -77 -9 -91 31c-11 29 -8 59 -6 89c6 69 36 130 69 190c7 13 12 26 19 39c7 15 17 30 30 42c4 -4 19 -8 24 -12c-10 -9 -20 -16 -33 -27l11 -7c4 4 8 8 11 12c4 6 13 -2 15 6c3 6 8 9 14 6c6 -18 5 -23 -7 -34c-5 -5 -9 -10 -13 -17
c-7 -11 -13 -24 -21 -36l-4 11c-14 -29 -28 -54 -39 -82c-4 -9 -2 -21 -2 -32c0 -4 1 -9 0 -12c-8 -18 -8 -37 -10 -56c-3 -24 0 -48 7 -72c0 -3 2 -6 4 -9c14 1 23 6 29 17c-3 2 -6 2 -6 2l30 26c7 -7 -9 -10 -10 -20c11 -3 24 -3 38 -2c-7 -8 -11 -16 -16 -21
c-12 -10 -25 -18 -36 -27c-3 -2 -5 -4 -7 -5z" />
    <glyph glyph-name="icircumflex" unicode="&#xee;" horiz-adv-x="433" 
d="M374 502c-18 0 -20 17 -29 27c-7 -2 -14 -5 -22 -7l-100 164c-58 -50 -106 -103 -167 -145l-16 14c-8 1 -16 1 -27 2l6 40c3 23 19 38 36 53c31 28 61 58 91 87c12 12 24 23 36 33c15 11 30 10 46 1c37 -20 67 -47 88 -84c25 -44 51 -87 76 -131c2 -3 2 -6 3 -10
c-7 -4 -14 -9 -21 -14v-30zM151 19c-37 -21 -77 -9 -91 31c-11 29 -8 59 -6 89c6 69 36 130 69 190c7 13 12 26 19 39c7 15 17 30 30 42c4 -4 19 -8 24 -12c-10 -9 -20 -16 -33 -27l11 -7c4 4 8 8 11 12c4 6 13 -2 15 6c3 6 8 9 14 6c6 -18 5 -23 -7 -34
c-5 -5 -9 -10 -13 -17c-7 -11 -13 -24 -21 -36l-4 11c-14 -29 -28 -54 -39 -82c-4 -9 -2 -21 -2 -32c0 -4 1 -9 0 -12c-8 -18 -8 -37 -10 -56c-3 -24 0 -48 7 -72c0 -3 2 -6 4 -9c14 1 23 6 29 17c-3 2 -6 2 -6 2l30 26c7 -7 -9 -10 -10 -20c11 -3 24 -3 38 -2
c-7 -8 -11 -16 -16 -21c-12 -10 -25 -18 -36 -27c-3 -2 -5 -4 -7 -5z" />
    <glyph glyph-name="idieresis" unicode="&#xef;" horiz-adv-x="458" 
d="M100 561c-23 5 -47 8 -66 25c-16 15 -18 34 -20 54c-4 37 10 67 30 97l51 -29c5 -19 16 -33 35 -40l19 -56c1 -20 -21 -30 -33 -46c-3 -4 -11 -6 -16 -5zM376 553c-18 -6 -60 5 -72 19c-15 19 -10 40 -2 60c10 22 24 42 37 64c37 -12 47 -53 81 -69
c-8 -20 -15 -37 -22 -53c-4 -11 -11 -17 -22 -21zM172 19c-37 -21 -77 -9 -91 31c-11 29 -8 59 -6 89c6 69 36 130 69 190c7 13 12 26 19 39c7 15 17 30 30 42c4 -4 19 -8 24 -12c-10 -9 -20 -16 -33 -27l11 -7c4 4 8 8 11 12c4 6 13 -2 15 6c3 6 8 9 14 6
c6 -18 5 -23 -7 -34c-5 -5 -9 -10 -13 -17c-7 -11 -13 -24 -21 -36l-4 11c-14 -29 -28 -54 -39 -82c-4 -9 -2 -21 -2 -32c0 -4 1 -9 0 -12c-8 -18 -8 -37 -10 -56c-3 -24 0 -48 7 -72c0 -3 2 -6 4 -9c14 1 23 6 29 17c-3 2 -6 2 -6 2l30 26c7 -7 -9 -10 -10 -20
c11 -3 24 -3 38 -2c-7 -8 -11 -16 -16 -21c-12 -10 -25 -18 -36 -27c-3 -2 -5 -4 -7 -5z" />
    <glyph glyph-name="igrave" unicode="&#xec;" horiz-adv-x="296" 
d="M251 534c-15 -12 -28 -8 -39 8c-4 -1 -8 -3 -15 -6c-5 7 -12 13 -16 21c-45 91 -100 177 -154 262c-5 8 -9 17 -14 27c25 15 -2 44 16 61c41 -11 61 -41 78 -74c9 -19 21 -37 31 -55c24 -40 49 -79 73 -120c4 -7 6 -16 10 -23c7 -16 14 -32 24 -45c14 -18 18 -35 6 -56z
M116 19c-37 -21 -77 -9 -91 31c-11 29 -8 59 -6 89c6 69 36 130 69 190c7 13 12 26 19 39c7 15 17 30 30 42c4 -4 19 -8 24 -12c-10 -9 -20 -16 -33 -27l11 -7c4 4 8 8 11 12c4 6 13 -2 15 6c3 6 8 9 14 6c6 -18 5 -23 -7 -34c-5 -5 -9 -10 -13 -17c-7 -11 -13 -24 -21 -36
l-4 11c-14 -29 -28 -54 -39 -82c-4 -9 -2 -21 -2 -32c0 -4 1 -9 0 -12c-8 -18 -8 -37 -10 -56c-3 -24 0 -48 7 -72c0 -3 2 -6 4 -9c14 1 23 6 29 17c-3 2 -6 2 -6 2l30 26c7 -7 -9 -10 -10 -20c11 -3 24 -3 38 -2c-7 -8 -11 -16 -16 -21c-12 -10 -25 -18 -36 -27
c-3 -2 -5 -4 -7 -5z" />
    <glyph glyph-name="j" unicode="j" horiz-adv-x="205" 
d="M122 525c2 20 2 20 -29 29c11 12 8 32 31 39c12 -8 27 -17 40 -28c4 -4 6 -13 4 -19c-4 -15 -11 -29 -18 -46c-18 13 -41 13 -52 38c10 -5 17 -9 24 -13zM117 400c43 -18 62 -50 57 -97c-3 -18 -2 -36 -8 -53c-33 -97 -55 -197 -102 -289c-58 -114 -122 -223 -197 -326
c-35 -48 -73 -93 -111 -138c-14 -18 -32 -32 -49 -48l-3 7c-15 -17 -31 -33 -47 -51c-45 -51 -91 -100 -148 -140c-25 -18 -54 -24 -81 -37c-12 -6 -26 -12 -40 -15c-15 -4 -30 -8 -45 -7c-50 4 -103 28 -119 84c-2 9 -8 17 -12 26c-15 36 -12 74 -7 111c7 48 23 95 43 140
c37 87 77 172 128 253c14 22 30 43 45 64c8 11 18 21 34 24c12 -9 26 -18 39 -28c17 -14 23 -38 15 -59c-6 -15 -7 -16 -27 -15c-6 1 -11 -9 -17 0l-6 5c-16 -23 -32 -46 -49 -68c-8 -11 -16 -22 -24 -32c-7 -9 -13 -17 -12 -30c0 -8 -5 -17 -8 -25
c-21 -46 -43 -92 -62 -139c-18 -45 -28 -92 -33 -140c-3 -25 -2 -47 10 -68c5 -10 12 -15 23 -17c24 -5 47 -2 70 4c49 14 94 40 135 69c57 41 112 84 159 136l3 3c3 3 6 6 8 10c0 1 -4 5 -6 7c59 62 111 131 160 200c25 35 46 72 74 105c14 17 28 33 38 53
c11 21 20 43 30 65c39 81 78 162 103 249c9 29 15 58 21 87c2 11 0 23 0 35c-11 -1 -21 -9 -25 7c2 31 15 58 43 78zM-192 -401c15 10 24 25 31 42c-13 -12 -29 -22 -31 -42c-12 -2 -12 -12 -16 -19l5 -3c4 7 7 14 11 22zM-295 -542l6 6c-1 0 -2 1 -2 2c-2 -3 -2 -5 -4 -8z
M-592 -744c14 -2 20 5 20 19c-2 0 -4 2 -5 1c-34 -9 -68 -16 -103 -15c-5 0 -11 -3 -16 -5c-10 12 -25 10 -39 13c18 -29 24 -32 54 -28c-1 3 -1 6 -1 8c22 -8 43 -7 65 3c7 3 15 6 25 4z" />
    <glyph glyph-name="k" unicode="k" horiz-adv-x="420" 
d="M530 1114c0 -3 1 -7 0 -8c-19 -16 -26 -39 -36 -60c-24 -55 -48 -110 -73 -165c-11 -24 -25 -48 -38 -72c-3 -4 -8 -8 -13 -13c2 -26 -8 -51 -20 -76l-90 -190c-4 -7 -7 -16 -12 -25c12 0 22 2 30 -1c26 -10 55 -15 80 -28c18 -9 30 -28 29 -52c-3 -33 -13 -62 -35 -87
c-27 -29 -59 -51 -96 -66c-6 -2 -11 -4 -20 -8c14 -21 25 -42 40 -60c40 -48 81 -96 122 -143c11 -14 25 -27 18 -48c-6 -18 -18 -25 -35 -18c-10 5 -18 12 -30 8c-4 -1 -11 6 -16 10c-12 13 -23 27 -36 41c-15 16 -24 37 -44 50c-2 2 -5 5 -6 9c-4 21 -18 37 -31 53
c-9 11 -13 28 -32 29c-3 0 -6 6 -8 10c-8 14 -16 27 -22 41s-9 29 -14 47c-6 -11 -14 -20 -17 -29c-11 -45 -36 -83 -56 -124c-8 -15 -17 -29 -19 -47c-3 -21 -11 -25 -36 -21l6 23l-34 -19c-8 19 -9 36 2 54c13 22 21 47 29 72c6 20 18 39 26 59c4 9 6 18 9 27
c9 16 8 24 -6 41c6 21 17 40 35 54c27 23 44 52 59 84c65 138 132 275 196 414c36 76 68 155 102 232c8 20 19 38 29 57c17 -6 7 -21 15 -30c6 8 13 16 22 26c4 -20 -14 -38 8 -54c4 1 10 2 18 3zM299 422c-34 -5 -63 -15 -91 -28c-20 -9 -29 -24 -33 -45
c38 -3 93 28 124 73zM21 98c2 3 3 7 5 11c-2 0 -3 1 -5 1v-12z" />
    <glyph glyph-name="l" unicode="l" horiz-adv-x="238" 
d="M-54 -27c-3 8 -4 12 -7 18c-4 -5 -7 -9 -12 -17c-3 8 -7 13 -6 17c4 10 9 19 14 29c-5 3 -9 5 -15 7c10 13 19 25 27 38c25 41 48 83 73 125c17 28 36 56 54 84c2 3 4 6 5 10c10 24 19 49 30 73c33 79 67 159 101 238c15 37 31 73 46 110c11 27 20 54 28 81
c21 70 50 137 64 209c3 12 5 25 7 37c1 5 2 10 0 13c-19 32 0 56 14 83c10 -7 18 -11 25 -16c21 -13 32 -32 34 -57c2 -40 -6 -80 -19 -117c-39 -113 -79 -225 -120 -337c-28 -75 -58 -149 -89 -222c-32 -74 -69 -145 -110 -214c-31 -52 -60 -105 -91 -158
c-4 -7 -9 -13 -16 -19c4 21 20 35 30 53c9 19 22 37 32 56c10 17 18 36 30 58c-8 -5 -11 -7 -19 -11c5 14 8 24 13 34l82 160c4 6 6 12 10 19c-13 0 -14 -11 -18 -17c-27 -53 -53 -106 -82 -159c-37 -69 -75 -137 -115 -208zM288 621c1 1 1 3 2 4l-4 1c-1 -1 -1 -3 -2 -4
c1 -1 3 -2 4 -1z" />
    <glyph glyph-name="m" unicode="m" horiz-adv-x="619" 
d="M518 28c-13 1 -19 10 -20 23l-15 -6c-4 4 -7 8 -12 14l45 141c11 33 22 66 32 99l7 29c-18 -3 -31 -10 -42 -19c-31 -23 -61 -49 -91 -73c-26 -20 -52 -40 -79 -58c-11 -8 -26 -15 -37 -13c-15 3 -29 14 -42 23c-10 6 -8 17 -5 27c9 32 17 65 26 97c1 3 1 7 2 15
c-25 -16 -46 -29 -67 -43c-58 -41 -112 -88 -160 -140c-4 -5 -8 -10 -13 -14c-16 -13 -33 -7 -38 14c-1 7 -3 14 -4 21l-16 6c1 4 1 8 3 11c24 45 49 89 72 134c21 41 41 83 62 124c3 7 8 13 13 20c32 -26 63 -49 31 -98c3 1 5 1 8 1l15 8c19 12 38 25 58 36
c13 7 26 12 40 16c12 3 21 -2 32 -9c33 -22 47 -49 37 -87c-2 -7 0 -14 1 -25l17 10c39 27 77 55 116 82c15 10 33 19 50 26c18 8 36 5 50 -10c3 -3 7 -7 10 -9c25 -18 27 -42 24 -70c-6 -58 -23 -114 -42 -169c-5 -13 -11 -26 -17 -40l-15 -43c-4 -12 -8 -24 -13 -36
c-4 -10 -13 -16 -23 -15zM553 158c20 27 26 55 30 82c-9 -13 -16 -27 -25 -41c-7 -11 -8 -23 -5 -41zM10 176c2 1 4 3 11 8c-8 -2 -10 -3 -12 -4z" />
    <glyph glyph-name="n" unicode="n" horiz-adv-x="395" 
d="M380 347c19 -28 28 -60 19 -95c-18 -68 -35 -135 -52 -203l-12 -47c-2 -9 -4 -19 -1 -27c5 -20 0 -35 -16 -51c-12 -6 -27 -9 -39 5c-3 4 -8 5 -12 7c-19 9 -24 18 -20 38l26 107c7 30 15 59 24 89c4 17 6 36 20 50c3 2 5 8 5 12c4 11 7 24 9 36c1 11 -1 21 -2 32
c-18 3 -31 -2 -44 -8c-83 -38 -154 -92 -214 -161c-5 -6 -12 -14 -20 -17c-15 -6 -23 1 -22 17c3 20 8 40 13 60c9 42 31 80 50 118l27 51c-2 0 -6 -1 -11 -1c18 34 35 68 63 97c6 -5 9 -8 15 -15c-9 -8 -17 -15 -25 -23c11 -18 7 -38 3 -58c15 22 31 40 46 63
c1 -4 2 -9 2 -13s-5 -9 -4 -10c13 -20 -2 -32 -13 -45c-7 -10 -13 -22 -16 -34l54 27c-4 -11 -6 -15 -9 -24c15 5 29 10 44 16c-5 4 -8 6 -12 8c38 53 100 34 124 -1zM121 361c7 3 14 7 8 17c-2 -4 -5 -6 -8 -10c-1 -2 0 -4 0 -7z" />
    <glyph glyph-name="ntilde" unicode="&#xf1;" horiz-adv-x="617" 
d="M604 781c6 -6 14 -16 21 -24c-11 -46 -39 -76 -81 -90c-64 -22 -130 -25 -195 -11c-43 9 -85 25 -118 57c-21 20 -44 23 -68 10c-27 -13 -52 -28 -77 -44c-20 -14 -27 -14 -41 8l-16 -5c-3 3 -6 6 -11 10c7 18 28 18 39 30c-7 17 -19 -2 -28 6c-2 15 8 25 18 33
c35 29 75 49 121 55c22 3 42 -3 60 -15l51 -37c18 -14 38 -23 60 -26c47 -6 94 -6 141 3c34 6 66 19 86 50c4 -3 6 -6 10 -9c-4 -6 -7 -11 -11 -16l3 -4zM179 760c13 -5 24 -8 35 -12c-9 11 -18 23 -35 12zM256 348c38 53 100 34 124 -1c19 -28 28 -60 19 -95
c-18 -68 -35 -135 -52 -203l-12 -47c-2 -9 -4 -19 -1 -27c5 -20 0 -35 -16 -51c-12 -6 -27 -9 -39 5c-3 4 -8 5 -12 7c-19 9 -24 18 -20 38l26 107c7 30 15 59 24 89c4 17 6 36 20 50c3 2 5 8 5 12c4 11 7 24 9 36c1 11 -1 21 -2 32c-18 3 -31 -2 -44 -8
c-83 -38 -154 -92 -214 -161c-5 -6 -12 -14 -20 -17c-15 -6 -23 1 -22 17c3 20 8 40 13 60c9 42 31 80 50 118l27 51c-2 0 -6 -1 -11 -1c18 34 35 68 63 97c6 -5 9 -8 15 -15c-9 -8 -17 -15 -25 -23c11 -18 7 -38 3 -58c15 22 31 40 46 63c1 -4 2 -9 2 -13s-5 -9 -4 -10
c13 -20 -2 -32 -13 -45c-7 -10 -13 -22 -16 -34l54 27c-4 -11 -6 -15 -9 -24c15 5 29 10 44 16c-5 4 -8 6 -12 8zM121 361c7 3 14 7 8 17c-2 -4 -5 -6 -8 -10c-1 -2 0 -4 0 -7z" />
    <glyph glyph-name="o" unicode="o" horiz-adv-x="327" 
d="M94 53c-61 -18 -101 31 -105 71c-1 15 0 31 3 45c12 56 33 108 70 152c18 21 33 43 52 63c12 12 28 23 43 31c12 7 20 15 26 27c13 29 41 38 68 41c17 3 27 -12 32 -23c12 -7 22 -10 26 -16c7 -12 16 -27 9 -41c-8 -16 -4 -29 -1 -45c10 -38 12 -77 8 -116
c-3 -32 -17 -59 -33 -86c-21 -36 -53 -67 -90 -88c-25 6 -49 8 -73 -2c-11 -5 -23 -10 -35 -13zM34 206c16 28 41 47 66 66c17 13 33 26 45 45c8 12 20 21 31 31s23 20 34 31c9 9 17 20 27 33l-8 11c-15 -10 -29 -19 -43 -29c-36 -24 -60 -61 -94 -89
c-30 -25 -42 -64 -58 -99zM102 92c13 3 25 8 39 10c26 5 46 19 62 40c18 24 43 42 55 70c1 2 7 1 12 1c18 24 13 54 11 87c-8 -23 -15 -43 -21 -63c13 51 10 100 -9 154l-4 -19c-2 3 -4 6 -5 9h-5c-36 -23 -68 -54 -99 -85c-24 -23 -40 -51 -57 -79c-18 -28 -28 -60 -20 -96
c17 -3 33 -5 49 -8c0 -1 0 -2 -1 -3h-44c9 -17 20 -23 37 -18z" />
    <glyph glyph-name="oacute" unicode="&#xf3;" horiz-adv-x="516" 
d="M237 634c-5 -1 -11 1 -17 2c0 10 0 17 1 25c2 17 5 34 19 46c60 47 104 110 150 169l53 72l18 21l50 -34c11 -15 4 -30 -11 -47c-39 -44 -73 -92 -112 -135c-29 -33 -61 -64 -94 -92c-16 -13 -36 -24 -57 -27zM286 629c-1 2 -2 4 -4 5c8 7 16 13 25 20l3 -5
c-8 -6 -16 -13 -24 -20zM94 53c-61 -18 -101 31 -105 71c-1 15 0 31 3 45c12 56 33 108 70 152c18 21 33 43 52 63c12 12 28 23 43 31c12 7 20 15 26 27c13 29 41 38 68 41c17 3 27 -12 32 -23c12 -7 22 -10 26 -16c7 -12 16 -27 9 -41c-8 -16 -4 -29 -1 -45
c10 -38 12 -77 8 -116c-3 -32 -17 -59 -33 -86c-21 -36 -53 -67 -90 -88c-25 6 -49 8 -73 -2c-11 -5 -23 -10 -35 -13zM34 206c16 28 41 47 66 66c17 13 33 26 45 45c8 12 20 21 31 31s23 20 34 31c9 9 17 20 27 33l-8 11c-15 -10 -29 -19 -43 -29c-36 -24 -60 -61 -94 -89
c-30 -25 -42 -64 -58 -99zM102 92c13 3 25 8 39 10c26 5 46 19 62 40c18 24 43 42 55 70c1 2 7 1 12 1c18 24 13 54 11 87c-8 -23 -15 -43 -21 -63c13 51 10 100 -9 154l-4 -19c-2 3 -4 6 -5 9h-5c-36 -23 -68 -54 -99 -85c-24 -23 -40 -51 -57 -79c-18 -28 -28 -60 -20 -96
c17 -3 33 -5 49 -8c0 -1 0 -2 -1 -3h-44c9 -17 20 -23 37 -18z" />
    <glyph glyph-name="ocircumflex" unicode="&#xf4;" horiz-adv-x="496" 
d="M475 552c-18 0 -20 17 -29 27c-7 -2 -14 -5 -22 -7l-100 164c-58 -50 -106 -103 -167 -145l-16 14c-8 1 -16 1 -27 2l6 40c3 23 19 38 36 53c31 28 61 58 91 87c12 12 24 23 36 33c15 11 30 10 46 1c37 -20 67 -47 88 -84c25 -44 51 -87 76 -131c2 -3 2 -6 3 -10
c-7 -4 -14 -9 -21 -14v-30zM94 53c-61 -18 -101 31 -105 71c-1 15 0 31 3 45c12 56 33 108 70 152c18 21 33 43 52 63c12 12 28 23 43 31c12 7 20 15 26 27c13 29 41 38 68 41c17 3 27 -12 32 -23c12 -7 22 -10 26 -16c7 -12 16 -27 9 -41c-8 -16 -4 -29 -1 -45
c10 -38 12 -77 8 -116c-3 -32 -17 -59 -33 -86c-21 -36 -53 -67 -90 -88c-25 6 -49 8 -73 -2c-11 -5 -23 -10 -35 -13zM34 206c16 28 41 47 66 66c17 13 33 26 45 45c8 12 20 21 31 31s23 20 34 31c9 9 17 20 27 33l-8 11c-15 -10 -29 -19 -43 -29c-36 -24 -60 -61 -94 -89
c-30 -25 -42 -64 -58 -99zM102 92c13 3 25 8 39 10c26 5 46 19 62 40c18 24 43 42 55 70c1 2 7 1 12 1c18 24 13 54 11 87c-8 -23 -15 -43 -21 -63c13 51 10 100 -9 154l-4 -19c-2 3 -4 6 -5 9h-5c-36 -23 -68 -54 -99 -85c-24 -23 -40 -51 -57 -79c-18 -28 -28 -60 -20 -96
c17 -3 33 -5 49 -8c0 -1 0 -2 -1 -3h-44c9 -17 20 -23 37 -18z" />
    <glyph glyph-name="odieresis" unicode="&#xf6;" horiz-adv-x="521" 
d="M201 650c-23 5 -47 8 -66 25c-16 15 -18 34 -20 54c-4 37 10 67 30 97l51 -29c5 -19 16 -33 35 -40l19 -56c1 -20 -21 -30 -33 -46c-3 -4 -11 -6 -16 -5zM477 642c-18 -6 -60 5 -72 19c-15 19 -10 40 -2 60c10 22 24 42 37 64c37 -12 47 -53 81 -69
c-8 -20 -15 -37 -22 -53c-4 -11 -11 -17 -22 -21zM94 53c-61 -18 -101 31 -105 71c-1 15 0 31 3 45c12 56 33 108 70 152c18 21 33 43 52 63c12 12 28 23 43 31c12 7 20 15 26 27c13 29 41 38 68 41c17 3 27 -12 32 -23c12 -7 22 -10 26 -16c7 -12 16 -27 9 -41
c-8 -16 -4 -29 -1 -45c10 -38 12 -77 8 -116c-3 -32 -17 -59 -33 -86c-21 -36 -53 -67 -90 -88c-25 6 -49 8 -73 -2c-11 -5 -23 -10 -35 -13zM34 206c16 28 41 47 66 66c17 13 33 26 45 45c8 12 20 21 31 31s23 20 34 31c9 9 17 20 27 33l-8 11c-15 -10 -29 -19 -43 -29
c-36 -24 -60 -61 -94 -89c-30 -25 -42 -64 -58 -99zM102 92c13 3 25 8 39 10c26 5 46 19 62 40c18 24 43 42 55 70c1 2 7 1 12 1c18 24 13 54 11 87c-8 -23 -15 -43 -21 -63c13 51 10 100 -9 154l-4 -19c-2 3 -4 6 -5 9h-5c-36 -23 -68 -54 -99 -85c-24 -23 -40 -51 -57 -79
c-18 -28 -28 -60 -20 -96c17 -3 33 -5 49 -8c0 -1 0 -2 -1 -3h-44c9 -17 20 -23 37 -18z" />
    <glyph glyph-name="ograve" unicode="&#xf2;" horiz-adv-x="382" 
d="M375 619c-15 -12 -28 -8 -39 8c-4 -1 -8 -3 -15 -6c-5 7 -12 13 -16 21c-45 91 -100 177 -154 262c-5 8 -9 17 -14 27c25 15 -2 44 16 61c41 -11 61 -41 78 -74c9 -19 21 -37 31 -55c24 -40 49 -79 73 -120c4 -7 6 -16 10 -23c7 -16 14 -32 24 -45c14 -18 18 -35 6 -56z
M94 53c-61 -18 -101 31 -105 71c-1 15 0 31 3 45c12 56 33 108 70 152c18 21 33 43 52 63c12 12 28 23 43 31c12 7 20 15 26 27c13 29 41 38 68 41c17 3 27 -12 32 -23c12 -7 22 -10 26 -16c7 -12 16 -27 9 -41c-8 -16 -4 -29 -1 -45c10 -38 12 -77 8 -116
c-3 -32 -17 -59 -33 -86c-21 -36 -53 -67 -90 -88c-25 6 -49 8 -73 -2c-11 -5 -23 -10 -35 -13zM34 206c16 28 41 47 66 66c17 13 33 26 45 45c8 12 20 21 31 31s23 20 34 31c9 9 17 20 27 33l-8 11c-15 -10 -29 -19 -43 -29c-36 -24 -60 -61 -94 -89
c-30 -25 -42 -64 -58 -99zM102 92c13 3 25 8 39 10c26 5 46 19 62 40c18 24 43 42 55 70c1 2 7 1 12 1c18 24 13 54 11 87c-8 -23 -15 -43 -21 -63c13 51 10 100 -9 154l-4 -19c-2 3 -4 6 -5 9h-5c-36 -23 -68 -54 -99 -85c-24 -23 -40 -51 -57 -79c-18 -28 -28 -60 -20 -96
c17 -3 33 -5 49 -8c0 -1 0 -2 -1 -3h-44c9 -17 20 -23 37 -18z" />
    <glyph glyph-name="otilde" unicode="&#xf5;" horiz-adv-x="625" 
d="M349 656c-43 9 -85 25 -118 57c-21 20 -44 23 -68 10c-27 -13 -52 -28 -77 -44c-20 -14 -27 -14 -41 8l-16 -5c-3 3 -6 6 -11 10c7 18 28 18 39 30c-7 17 -19 -2 -28 6c-2 15 8 25 18 33c35 29 75 49 121 55c22 3 42 -3 60 -15l51 -37c18 -14 38 -23 60 -26
c47 -6 94 -6 141 3c34 6 66 19 86 50c4 -3 6 -6 10 -9c-4 -6 -7 -11 -11 -16l3 -4l36 19c6 -6 14 -16 21 -24c-11 -46 -39 -76 -81 -90c-64 -22 -130 -25 -195 -11zM214 748c-9 11 -18 23 -35 12c13 -5 24 -8 35 -12zM94 53c-61 -18 -101 31 -105 71c-1 15 0 31 3 45
c12 56 33 108 70 152c18 21 33 43 52 63c12 12 28 23 43 31c12 7 20 15 26 27c13 29 41 38 68 41c17 3 27 -12 32 -23c12 -7 22 -10 26 -16c7 -12 16 -27 9 -41c-8 -16 -4 -29 -1 -45c10 -38 12 -77 8 -116c-3 -32 -17 -59 -33 -86c-21 -36 -53 -67 -90 -88
c-25 6 -49 8 -73 -2c-11 -5 -23 -10 -35 -13zM34 206c16 28 41 47 66 66c17 13 33 26 45 45c8 12 20 21 31 31s23 20 34 31c9 9 17 20 27 33l-8 11c-15 -10 -29 -19 -43 -29c-36 -24 -60 -61 -94 -89c-30 -25 -42 -64 -58 -99zM102 92c13 3 25 8 39 10c26 5 46 19 62 40
c18 24 43 42 55 70c1 2 7 1 12 1c18 24 13 54 11 87c-8 -23 -15 -43 -21 -63c13 51 10 100 -9 154l-4 -19c-2 3 -4 6 -5 9h-5c-36 -23 -68 -54 -99 -85c-24 -23 -40 -51 -57 -79c-18 -28 -28 -60 -20 -96c17 -3 33 -5 49 -8c0 -1 0 -2 -1 -3h-44c9 -17 20 -23 37 -18z" />
    <glyph glyph-name="p" unicode="p" horiz-adv-x="460" 
d="M-169 -487c-19 -15 -33 7 -51 7c-10 0 -17 13 -17 25c1 19 1 38 5 57c4 24 10 48 18 71c53 163 123 317 218 459c18 28 36 56 47 88c15 37 34 73 47 111c16 45 29 91 43 136c-9 24 7 41 17 60c8 15 20 19 34 10c6 -4 12 -9 18 -14c-4 -21 11 -41 2 -64
c-8 -20 -12 -42 -18 -63c-5 -15 -11 -31 -13 -49c5 3 10 6 14 10c25 21 53 39 83 52c19 9 39 13 61 12c26 -2 35 -8 51 -33c24 0 34 -15 42 -36c12 -31 10 -60 0 -90c-22 -59 -57 -107 -107 -144c-41 -30 -85 -53 -132 -72c-44 -18 -85 -19 -127 8
c-24 -62 -47 -122 -71 -182c-31 -77 -62 -154 -94 -230c-16 -37 -35 -72 -54 -108c-4 -8 -10 -16 -16 -21zM261 372l87 20c-33 6 -59 -1 -87 -20zM146 123c52 19 101 46 144 81c29 23 53 51 69 84c7 15 10 31 -3 48c-42 -2 -74 -24 -105 -48c-55 -42 -101 -95 -143 -149
c-3 -4 -5 -10 -7 -15c16 -12 31 -6 45 -1z" />
    <glyph glyph-name="q" unicode="q" horiz-adv-x="459" 
d="M61 -378c-22 -48 -45 -95 -67 -143c-1 -2 -1 -5 -2 -9c20 7 38 13 56 20c41 16 84 25 127 29c27 2 52 10 76 21c29 14 60 26 93 29c24 2 42 -9 56 -28c8 -11 11 -24 3 -38c-5 -10 -16 -8 -25 -13c-17 14 -36 18 -58 14c-13 -2 -26 1 -40 4c-38 6 -74 -4 -108 -18
c-54 -23 -107 -47 -161 -72c-10 -4 -18 -11 -24 -22c-7 -12 -20 -21 -31 -31c-14 9 -32 10 -41 30c7 10 15 22 23 35c-19 25 16 36 18 60c-17 -14 -33 -25 -42 -45c-3 13 -5 25 0 38c10 23 19 47 30 70c76 160 149 320 233 475c17 30 34 60 52 90c1 2 5 4 7 7v-40
c9 14 15 24 21 34c1 -5 1 -9 1 -13c2 4 3 9 6 13c9 21 22 41 23 67c-13 -12 -27 -23 -40 -34c-16 -8 -31 -17 -48 -24c-14 -6 -29 -10 -43 -15c-7 -2 -14 -5 -20 -8c-17 -8 -35 -9 -53 -4c-7 2 -14 6 -21 7c-35 4 -52 40 -55 68c-4 37 8 70 26 101c14 27 32 53 51 77
c47 56 100 106 163 143c19 11 40 20 60 26c41 13 69 2 95 -32c2 -3 5 -6 7 -8c22 -14 27 -33 18 -57c-4 -13 -8 -27 -13 -41l-6 9c-1 0 -2 -1 -3 -1c2 -7 4 -15 5 -22c0 -8 -1 -16 -2 -24c12 3 23 15 23 26c-1 8 5 17 20 30c2 -3 4 -5 5 -8c5 -10 -4 -20 2 -32
c3 -6 -7 -19 -12 -28c-38 -65 -77 -129 -114 -193c-98 -169 -187 -343 -271 -520zM252 239c33 21 55 52 84 78c13 11 23 26 31 46c-17 -14 -30 -26 -43 -37l-4 4c12 13 25 25 36 38c6 8 11 16 16 24h1c-11 11 -4 24 -3 37l-11 3c-2 7 -3 13 -5 21c-5 -1 -9 -1 -12 -2
c-34 -16 -66 -33 -95 -57c-28 -23 -57 -45 -85 -67c-4 -4 -10 -5 -15 -8c18 14 11 41 30 54c18 10 30 28 46 41s35 24 53 35c16 10 34 13 52 18c9 -9 9 -9 24 -6l-17 6l14 3c-6 6 -11 9 -17 10c-22 2 -42 -5 -59 -17c-33 -22 -65 -45 -98 -69c-24 -17 -43 -40 -60 -65
c-2 -4 -3 -10 -5 -18c7 5 11 7 14 9c-26 -44 -60 -81 -66 -134c22 -9 43 -3 62 4c20 7 39 17 59 26c0 -1 1 -2 2 -3l-61 -46c25 8 48 20 71 32c13 7 22 25 42 19c3 -1 8 6 12 10c3 3 4 9 7 11zM400 471c-2 -4 -3 -7 -6 -11c6 -2 10 -5 15 -7c4 10 2 16 -9 18zM394 451
c-13 -17 -13 -17 -16 -36c-1 -8 -3 -15 -5 -22c15 8 25 19 30 35c4 10 4 20 -9 23zM249 76c7 8 14 14 9 25c-3 -8 -7 -16 -9 -25zM246 74c-16 -15 -20 -36 -25 -56c8 19 17 37 25 56z" />
    <glyph glyph-name="r" unicode="r" horiz-adv-x="408" 
d="M397 382c8 -3 11 -8 11 -17c0 -23 -18 -48 -44 -56c-4 6 -9 12 -13 19c-2 0 -3 1 -5 1c-9 1 -19 -9 -28 1c-1 1 -8 -2 -12 -4c-14 -6 -28 -13 -42 -21c-32 -17 -59 -40 -85 -64v1c-9 -13 -17 -27 -28 -39c-14 -18 -31 -33 -46 -50c-10 -12 -19 -25 -25 -38
c-12 -27 -28 -51 -43 -77l-36 20c-4 15 -9 32 -13 50c42 114 103 221 138 340l31 -15c-1 -6 -1 -13 -2 -21c9 -2 18 -3 30 -5c-5 -22 -10 -42 -16 -65c7 5 13 9 18 13c36 31 78 53 125 62c12 3 24 4 35 3c6 0 12 -4 16 -9c7 -7 12 -17 19 -25c3 -3 10 -2 15 -4zM204 352
c54 18 103 33 156 50c-15 12 -26 7 -37 5c-42 -10 -81 -25 -119 -55zM162 232c4 4 11 6 17 10c-1 3 -2 5 -3 10c-27 -16 -46 -39 -66 -61c-4 -4 -4 -12 -7 -25c23 25 40 46 59 66z" />
    <glyph glyph-name="s" unicode="s" horiz-adv-x="345" 
d="M-77 29c-29 -2 -50 13 -72 29c9 13 6 28 14 41c6 10 10 17 22 17c31 1 62 6 92 2c34 -5 63 5 93 16c58 24 61 39 54 97c-3 22 -11 44 -15 66c-5 28 -16 56 -9 89c2 -8 3 -12 5 -18c36 57 91 86 153 105c-2 2 -3 4 -5 7l1 4c24 7 52 17 74 1c20 -13 47 -27 45 -61
c-5 -16 -17 -27 -38 -27c-2 4 -3 9 -5 12c-55 -3 -109 -7 -160 -36c0 -1 -1 -5 -1 -8l15 -146c2 -18 5 -36 7 -54c1 -8 2 -16 0 -23c-17 -45 -45 -77 -93 -92c-42 -13 -85 -18 -128 -17c-17 1 -33 -2 -49 -4zM139 384c0 1 1 2 2 4c0 0 0 1 -1 2l-3 -3c0 -1 1 -2 2 -3z" />
    <glyph glyph-name="t" unicode="t" horiz-adv-x="478" 
d="M160 -13c-3 2 -5 5 -7 8l-10 -7c-18 5 -17 19 -17 33c1 43 -9 85 -31 122c-15 26 -34 49 -52 74c-8 11 -17 21 -26 31c-25 30 -26 62 -7 96c1 1 3 3 3 4c6 38 36 55 65 68c43 19 89 33 133 49c2 1 5 0 10 0c-21 -22 -49 -29 -70 -47c24 8 49 16 73 25c4 1 6 4 10 5
c40 8 57 39 71 73l11 12c-1 1 -2 1 -2 2c-3 -1 -6 -3 -9 -4c6 14 11 29 18 42c49 91 98 182 148 273c5 9 11 16 18 27c6 -9 11 -15 16 -23c5 5 10 11 15 17c16 -5 29 -15 28 -33c-1 -13 -6 -27 -12 -38c-19 -33 -42 -65 -60 -98c-31 -56 -59 -114 -89 -171
c-4 -8 -7 -17 -12 -27c17 -2 32 -4 47 -7c46 -6 76 -35 102 -71c2 -3 3 -8 3 -12c0 -5 -2 -10 -2 -15s2 -9 4 -14c-11 -11 -22 -14 -34 -3c-5 4 -9 6 -16 4c-5 -1 -13 6 -17 12c-10 16 -24 21 -42 19c-29 -2 -59 -5 -91 -8c-19 -48 -37 -94 -54 -140
c-29 -81 -57 -162 -71 -246c-1 -8 -4 -16 -7 -24c-8 -19 -21 -22 -37 -8zM167 173l66 202c-67 -11 -140 -47 -158 -78c30 -41 61 -82 92 -124zM35 278c3 10 7 21 -4 32c-13 -13 -3 -22 4 -32z" />
    <glyph glyph-name="u" unicode="u" horiz-adv-x="485" 
d="M420 292c-5 4 -7 6 -12 9c-18 -39 -36 -76 -53 -115c15 16 30 33 45 50l15 15c12 -8 7 -17 3 -25c-13 -25 -27 -49 -40 -74c-13 -26 -28 -51 -40 -77c-10 -22 -28 -34 -42 -54l-16 15c-2 -1 -5 -2 -9 -5l-15 10c3 8 5 15 9 23c4 9 11 18 8 30c-1 6 3 14 6 21
c12 27 25 54 38 81c4 8 7 16 7 27c-6 -5 -12 -10 -17 -15c-41 -36 -81 -73 -123 -109c-29 -24 -60 -46 -97 -58c-19 -7 -37 -11 -54 5c-3 3 -10 3 -15 4c-18 3 -26 14 -26 32c-1 41 14 77 34 110c10 17 23 31 34 46c7 10 16 20 13 34c-1 3 2 7 3 10c21 35 44 68 74 97
c7 -1 11 1 6 9c17 35 46 58 75 81c15 11 25 7 43 -14c-23 -11 -51 -6 -71 -31c2 -1 7 -5 10 -4c19 6 38 13 61 21c3 -1 10 -5 18 -8c0 -8 1 -15 2 -20c-7 -1 -13 -1 -21 -2l13 -27c-10 2 -18 2 -29 4c-34 -39 -75 -76 -106 -120s-52 -94 -81 -147c31 9 50 26 76 40
c-8 1 -12 2 -17 2c1 2 1 4 1 5c47 39 92 80 140 117c28 23 58 43 84 69c21 20 44 38 66 57c7 6 14 13 21 20l-1 -1c8 0 16 1 23 2c11 -12 9 -23 4 -34c-16 -35 -31 -70 -47 -106zM375 308c1 1 -1 4 -1 6c-1 -1 -4 -2 -4 -3v-7c2 1 4 2 5 4zM317 241c33 7 46 31 52 62
c-5 -2 -9 -3 -13 -6l-65 -63c10 0 17 6 26 7zM84 194l-16 -27c2 -1 4 -2 6 -4c5 10 10 19 15 28zM346 170c1 0 2 -1 3 -1l2 10zM113 99c25 12 44 27 62 45c-19 -2 -44 -21 -62 -45z" />
    <glyph glyph-name="uacute" unicode="&#xfa;" horiz-adv-x="530" 
d="M511 935c11 -15 4 -30 -11 -47c-39 -44 -73 -92 -112 -135c-29 -33 -61 -64 -94 -92c-16 -13 -36 -24 -57 -27c-5 -1 -11 1 -17 2c0 10 0 17 1 25c2 17 5 34 19 46c60 47 104 110 150 169l53 72l18 21zM310 649c-8 -6 -16 -13 -24 -20c-1 2 -2 4 -4 5c8 7 16 13 25 20z
M440 430c8 0 16 1 23 2c11 -12 9 -23 4 -34c-16 -35 -31 -70 -47 -106c-5 4 -7 6 -12 9c-18 -39 -36 -76 -53 -115c15 16 30 33 45 50l15 15c12 -8 7 -17 3 -25c-13 -25 -27 -49 -40 -74c-13 -26 -28 -51 -40 -77c-10 -22 -28 -34 -42 -54l-16 15c-2 -1 -5 -2 -9 -5l-15 10
c3 8 5 15 9 23c4 9 11 18 8 30c-1 6 3 14 6 21c12 27 25 54 38 81c4 8 7 16 7 27c-6 -5 -12 -10 -17 -15c-41 -36 -81 -73 -123 -109c-29 -24 -60 -46 -97 -58c-19 -7 -37 -11 -54 5c-3 3 -10 3 -15 4c-18 3 -26 14 -26 32c-1 41 14 77 34 110c10 17 23 31 34 46
c7 10 16 20 13 34c-1 3 2 7 3 10c21 35 44 68 74 97c7 -1 11 1 6 9c17 35 46 58 75 81c15 11 25 7 43 -14c-23 -11 -51 -6 -71 -31c2 -1 7 -5 10 -4c19 6 38 13 61 21c3 -1 10 -5 18 -8c0 -8 1 -15 2 -20c-7 -1 -13 -1 -21 -2l13 -27c-10 2 -18 2 -29 4
c-34 -39 -75 -76 -106 -120s-52 -94 -81 -147c31 9 50 26 76 40c-8 1 -12 2 -17 2c1 2 1 4 1 5c47 39 92 80 140 117c28 23 58 43 84 69c21 20 44 38 66 57c7 6 14 13 21 20zM375 308c1 1 -1 4 -1 6c-1 -1 -4 -2 -4 -3v-7c2 1 4 2 5 4zM317 241c33 7 46 31 52 62
c-5 -2 -9 -3 -13 -6l-65 -63c10 0 17 6 26 7zM84 194l-16 -27c2 -1 4 -2 6 -4c5 10 10 19 15 28zM346 170c1 0 2 -1 3 -1l2 10zM113 99c25 12 44 27 62 45c-19 -2 -44 -21 -62 -45z" />
    <glyph glyph-name="ucircumflex" unicode="&#xfb;" horiz-adv-x="510" 
d="M493 606c2 -3 2 -6 3 -10c-7 -4 -14 -9 -21 -14v-30c-18 0 -20 17 -29 27c-7 -2 -14 -5 -22 -7l-100 164c-58 -50 -106 -103 -167 -145l-16 14c-8 1 -16 1 -27 2l6 40c3 23 19 38 36 53c31 28 61 58 91 87c12 12 24 23 36 33c15 11 30 10 46 1c37 -20 67 -47 88 -84
c25 -44 51 -87 76 -131zM440 430c8 0 16 1 23 2c11 -12 9 -23 4 -34c-16 -35 -31 -70 -47 -106c-5 4 -7 6 -12 9c-18 -39 -36 -76 -53 -115c15 16 30 33 45 50l15 15c12 -8 7 -17 3 -25c-13 -25 -27 -49 -40 -74c-13 -26 -28 -51 -40 -77c-10 -22 -28 -34 -42 -54l-16 15
c-2 -1 -5 -2 -9 -5l-15 10c3 8 5 15 9 23c4 9 11 18 8 30c-1 6 3 14 6 21c12 27 25 54 38 81c4 8 7 16 7 27c-6 -5 -12 -10 -17 -15c-41 -36 -81 -73 -123 -109c-29 -24 -60 -46 -97 -58c-19 -7 -37 -11 -54 5c-3 3 -10 3 -15 4c-18 3 -26 14 -26 32c-1 41 14 77 34 110
c10 17 23 31 34 46c7 10 16 20 13 34c-1 3 2 7 3 10c21 35 44 68 74 97c7 -1 11 1 6 9c17 35 46 58 75 81c15 11 25 7 43 -14c-23 -11 -51 -6 -71 -31c2 -1 7 -5 10 -4c19 6 38 13 61 21c3 -1 10 -5 18 -8c0 -8 1 -15 2 -20c-7 -1 -13 -1 -21 -2l13 -27c-10 2 -18 2 -29 4
c-34 -39 -75 -76 -106 -120s-52 -94 -81 -147c31 9 50 26 76 40c-8 1 -12 2 -17 2c1 2 1 4 1 5c47 39 92 80 140 117c28 23 58 43 84 69c21 20 44 38 66 57c7 6 14 13 21 20zM375 308c1 1 -1 4 -1 6c-1 -1 -4 -2 -4 -3v-7c2 1 4 2 5 4zM317 241c33 7 46 31 52 62
c-5 -2 -9 -3 -13 -6l-65 -63c10 0 17 6 26 7zM84 194l-16 -27c2 -1 4 -2 6 -4c5 10 10 19 15 28zM346 170c1 0 2 -1 3 -1l2 10zM113 99c25 12 44 27 62 45c-19 -2 -44 -21 -62 -45z" />
    <glyph glyph-name="udieresis" unicode="&#xfc;" horiz-adv-x="535" 
d="M135 675c-16 15 -18 34 -20 54c-4 37 10 67 30 97l51 -29c5 -19 16 -33 35 -40l19 -56c1 -20 -21 -30 -33 -46c-3 -4 -11 -6 -16 -5c-23 5 -47 8 -66 25zM440 785c37 -12 47 -53 81 -69c-8 -20 -15 -37 -22 -53c-4 -11 -11 -17 -22 -21c-18 -6 -60 5 -72 19
c-15 19 -10 40 -2 60c10 22 24 42 37 64zM440 430c8 0 16 1 23 2c11 -12 9 -23 4 -34c-16 -35 -31 -70 -47 -106c-5 4 -7 6 -12 9c-18 -39 -36 -76 -53 -115c15 16 30 33 45 50l15 15c12 -8 7 -17 3 -25c-13 -25 -27 -49 -40 -74c-13 -26 -28 -51 -40 -77
c-10 -22 -28 -34 -42 -54l-16 15c-2 -1 -5 -2 -9 -5l-15 10c3 8 5 15 9 23c4 9 11 18 8 30c-1 6 3 14 6 21c12 27 25 54 38 81c4 8 7 16 7 27c-6 -5 -12 -10 -17 -15c-41 -36 -81 -73 -123 -109c-29 -24 -60 -46 -97 -58c-19 -7 -37 -11 -54 5c-3 3 -10 3 -15 4
c-18 3 -26 14 -26 32c-1 41 14 77 34 110c10 17 23 31 34 46c7 10 16 20 13 34c-1 3 2 7 3 10c21 35 44 68 74 97c7 -1 11 1 6 9c17 35 46 58 75 81c15 11 25 7 43 -14c-23 -11 -51 -6 -71 -31c2 -1 7 -5 10 -4c19 6 38 13 61 21c3 -1 10 -5 18 -8c0 -8 1 -15 2 -20
c-7 -1 -13 -1 -21 -2l13 -27c-10 2 -18 2 -29 4c-34 -39 -75 -76 -106 -120s-52 -94 -81 -147c31 9 50 26 76 40c-8 1 -12 2 -17 2c1 2 1 4 1 5c47 39 92 80 140 117c28 23 58 43 84 69c21 20 44 38 66 57c7 6 14 13 21 20zM375 308c1 1 -1 4 -1 6c-1 -1 -4 -2 -4 -3v-7
c2 1 4 2 5 4zM317 241c33 7 46 31 52 62c-5 -2 -9 -3 -13 -6l-65 -63c10 0 17 6 26 7zM84 194l-16 -27c2 -1 4 -2 6 -4c5 10 10 19 15 28zM346 170c1 0 2 -1 3 -1l2 10zM113 99c25 12 44 27 62 45c-19 -2 -44 -21 -62 -45z" />
    <glyph glyph-name="ugrave" unicode="&#xf9;" horiz-adv-x="485" 
d="M305 642c-45 91 -100 177 -154 262c-5 8 -9 17 -14 27c25 15 -2 44 16 61c41 -11 61 -41 78 -74c9 -19 21 -37 31 -55c24 -40 49 -79 73 -120c4 -7 6 -16 10 -23c7 -16 14 -32 24 -45c14 -18 18 -35 6 -56c-15 -12 -28 -8 -39 8c-4 -1 -8 -3 -15 -6c-5 7 -12 13 -16 21z
M420 292c-5 4 -7 6 -12 9c-18 -39 -36 -76 -53 -115c15 16 30 33 45 50l15 15c12 -8 7 -17 3 -25c-13 -25 -27 -49 -40 -74c-13 -26 -28 -51 -40 -77c-10 -22 -28 -34 -42 -54l-16 15c-2 -1 -5 -2 -9 -5l-15 10c3 8 5 15 9 23c4 9 11 18 8 30c-1 6 3 14 6 21
c12 27 25 54 38 81c4 8 7 16 7 27c-6 -5 -12 -10 -17 -15c-41 -36 -81 -73 -123 -109c-29 -24 -60 -46 -97 -58c-19 -7 -37 -11 -54 5c-3 3 -10 3 -15 4c-18 3 -26 14 -26 32c-1 41 14 77 34 110c10 17 23 31 34 46c7 10 16 20 13 34c-1 3 2 7 3 10c21 35 44 68 74 97
c7 -1 11 1 6 9c17 35 46 58 75 81c15 11 25 7 43 -14c-23 -11 -51 -6 -71 -31c2 -1 7 -5 10 -4c19 6 38 13 61 21c3 -1 10 -5 18 -8c0 -8 1 -15 2 -20c-7 -1 -13 -1 -21 -2l13 -27c-10 2 -18 2 -29 4c-34 -39 -75 -76 -106 -120s-52 -94 -81 -147c31 9 50 26 76 40
c-8 1 -12 2 -17 2c1 2 1 4 1 5c47 39 92 80 140 117c28 23 58 43 84 69c21 20 44 38 66 57c7 6 14 13 21 20l-1 -1c8 0 16 1 23 2c11 -12 9 -23 4 -34c-16 -35 -31 -70 -47 -106zM375 308c1 1 -1 4 -1 6c-1 -1 -4 -2 -4 -3v-7c2 1 4 2 5 4zM317 241c33 7 46 31 52 62
c-5 -2 -9 -3 -13 -6l-65 -63c10 0 17 6 26 7zM84 194l-16 -27c2 -1 4 -2 6 -4c5 10 10 19 15 28zM346 170c1 0 2 -1 3 -1l2 10zM113 99c25 12 44 27 62 45c-19 -2 -44 -21 -62 -45z" />
    <glyph glyph-name="v" unicode="v" horiz-adv-x="413" 
d="M125 56c-38 -23 -76 -20 -111 7c-7 6 -13 14 -15 22c-10 48 -10 95 4 142c19 63 43 124 73 182c4 10 14 18 22 28c7 -15 11 -26 17 -40c9 3 16 6 24 9c14 -14 7 -31 6 -48c-2 -17 -3 -34 -21 -44c-3 -2 -5 -7 -7 -11c-23 -48 -39 -98 -48 -150v-8c0 -2 1 -3 4 -8
c14 11 29 19 41 31c33 32 65 65 97 99c14 13 27 27 39 41c4 4 7 8 11 13l137 176c1 1 3 2 6 3l35 -29c10 -7 17 -23 13 -33c-4 -11 -9 -22 -16 -31c-48 -61 -96 -121 -144 -181c-5 -7 -11 -13 -17 -19c-21 -19 -39 -42 -56 -66c-25 -35 -57 -63 -94 -85zM12 85c0 0 1 0 3 1
c-1 6 -3 12 -4 18c-3 -1 -5 -1 -7 -2c3 -6 5 -12 8 -17z" />
    <glyph glyph-name="w" unicode="w" horiz-adv-x="695" 
d="M292 -8c-22 3 -37 16 -38 38c-1 17 -6 32 -10 48c-5 21 -8 44 1 66c11 30 22 59 35 92c-7 -3 -12 -5 -18 -7c0 6 -1 12 -2 19c23 23 53 39 56 78c-78 -71 -158 -137 -243 -196c-1 -1 0 -5 -1 -11c21 9 39 19 55 31c26 20 50 41 76 61c11 9 23 17 35 25
c-4 -18 -24 -53 -43 -72c-17 -17 -34 -35 -53 -51c-12 -10 -26 -19 -41 -27c-22 -11 -35 -4 -39 22l-3 11c-15 -8 -28 -16 -41 -23c-20 9 -27 23 -22 41c6 23 10 47 20 68c51 104 115 200 198 282c5 5 9 9 14 13c10 7 23 10 31 3c17 -13 39 -23 47 -47
c-11 -16 -23 -29 -44 -30c-5 0 -11 -6 -15 -10c-30 -28 -56 -58 -77 -92c-20 -33 -35 -68 -49 -105l74 62l106 94c9 8 18 16 27 23c20 14 23 14 42 -3c5 -4 10 -7 16 -11c2 -7 3 -15 4 -24c17 -3 22 -15 20 -30c-2 -16 -7 -32 -13 -47c-20 -50 -42 -100 -65 -154
c14 5 22 12 29 19c35 35 71 68 103 105c66 76 131 154 194 232c38 48 72 98 109 147c7 10 16 20 23 29c24 -8 27 -10 41 -35c-5 -7 -10 -16 -15 -25c9 -4 18 -7 29 -11c-4 -8 -8 -15 -12 -21c-68 -100 -141 -197 -222 -287c-13 -14 -24 -31 -36 -47c-21 -26 -42 -53 -65 -77
c-41 -42 -84 -83 -126 -124c-12 -11 -26 -20 -40 -29c-15 -10 -33 -14 -52 -13zM683 477c21 11 33 30 45 48c-2 2 -4 3 -5 5c-14 -18 -27 -35 -40 -53zM322 89c9 3 19 4 25 10c19 17 33 40 59 49c34 37 69 72 102 109c31 34 60 70 90 105c15 17 29 36 44 54c6 9 18 14 19 33
c-9 -11 -16 -18 -22 -25c-43 -47 -86 -95 -129 -141c-18 -19 -37 -38 -56 -56c-38 -36 -77 -71 -115 -107c-8 -7 -14 -16 -21 -24c1 -2 3 -4 4 -7zM280 93c16 3 20 13 22 25c9 45 19 89 42 129c7 11 8 25 12 38c-23 -32 -40 -66 -59 -98c-18 -30 -13 -61 -17 -94zM277 50
l14 32c-14 -5 -19 -14 -14 -32z" />
    <glyph glyph-name="wacute" unicode="&#x1e83;" horiz-adv-x="695" 
d="M507 634c-5 -1 -11 1 -17 2c0 10 0 17 1 25c2 17 5 34 19 46c60 47 104 110 150 169l53 72l18 21l50 -34c11 -15 4 -30 -11 -47c-39 -44 -73 -92 -112 -135c-29 -33 -61 -64 -94 -92c-16 -13 -36 -24 -57 -27zM292 -8c-22 3 -37 16 -38 38c-1 17 -6 32 -10 48
c-5 21 -8 44 1 66c11 30 22 59 35 92c-7 -3 -12 -5 -18 -7c0 6 -1 12 -2 19c23 23 53 39 56 78c-78 -71 -158 -137 -243 -196c-1 -1 0 -5 -1 -11c21 9 39 19 55 31c26 20 50 41 76 61c11 9 23 17 35 25c-4 -18 -24 -53 -43 -72c-17 -17 -34 -35 -53 -51
c-12 -10 -26 -19 -41 -27c-22 -11 -35 -4 -39 22l-3 11c-15 -8 -28 -16 -41 -23c-20 9 -27 23 -22 41c6 23 10 47 20 68c51 104 115 200 198 282c5 5 9 9 14 13c10 7 23 10 31 3c17 -13 39 -23 47 -47c-11 -16 -23 -29 -44 -30c-5 0 -11 -6 -15 -10c-30 -28 -56 -58 -77 -92
c-20 -33 -35 -68 -49 -105l74 62l106 94c9 8 18 16 27 23c20 14 23 14 42 -3c5 -4 10 -7 16 -11c2 -7 3 -15 4 -24c17 -3 22 -15 20 -30c-2 -16 -7 -32 -13 -47c-20 -50 -42 -100 -65 -154c14 5 22 12 29 19c35 35 71 68 103 105c66 76 131 154 194 232c38 48 72 98 109 147
c7 10 16 20 23 29c24 -8 27 -10 41 -35c-5 -7 -10 -16 -15 -25c9 -4 18 -7 29 -11c-4 -8 -8 -15 -12 -21c-68 -100 -141 -197 -222 -287c-13 -14 -24 -31 -36 -47c-21 -26 -42 -53 -65 -77c-41 -42 -84 -83 -126 -124c-12 -11 -26 -20 -40 -29c-15 -10 -33 -14 -52 -13z
M556 629c-1 2 -2 4 -4 5c8 7 16 13 25 20l3 -5c-8 -6 -16 -13 -24 -20zM683 477c21 11 33 30 45 48c-2 2 -4 3 -5 5c-14 -18 -27 -35 -40 -53zM322 89c9 3 19 4 25 10c19 17 33 40 59 49c34 37 69 72 102 109c31 34 60 70 90 105c15 17 29 36 44 54c6 9 18 14 19 33
c-9 -11 -16 -18 -22 -25c-43 -47 -86 -95 -129 -141c-18 -19 -37 -38 -56 -56c-38 -36 -77 -71 -115 -107c-8 -7 -14 -16 -21 -24c1 -2 3 -4 4 -7zM280 93c16 3 20 13 22 25c9 45 19 89 42 129c7 11 8 25 12 38c-23 -32 -40 -66 -59 -98c-18 -30 -13 -61 -17 -94zM277 50
l14 32c-14 -5 -19 -14 -14 -32z" />
    <glyph glyph-name="wcircumflex" unicode="&#x175;" horiz-adv-x="695" 
d="M702 552c-18 0 -20 17 -29 27c-7 -2 -14 -5 -22 -7l-100 164c-58 -50 -106 -103 -167 -145l-16 14c-8 1 -16 1 -27 2l6 40c3 23 19 38 36 53c31 28 61 58 91 87c12 12 24 23 36 33c15 11 30 10 46 1c37 -20 67 -47 88 -84c25 -44 51 -87 76 -131c2 -3 2 -6 3 -10
c-7 -4 -14 -9 -21 -14v-30zM292 -8c-22 3 -37 16 -38 38c-1 17 -6 32 -10 48c-5 21 -8 44 1 66c11 30 22 59 35 92c-7 -3 -12 -5 -18 -7c0 6 -1 12 -2 19c23 23 53 39 56 78c-78 -71 -158 -137 -243 -196c-1 -1 0 -5 -1 -11c21 9 39 19 55 31c26 20 50 41 76 61
c11 9 23 17 35 25c-4 -18 -24 -53 -43 -72c-17 -17 -34 -35 -53 -51c-12 -10 -26 -19 -41 -27c-22 -11 -35 -4 -39 22l-3 11c-15 -8 -28 -16 -41 -23c-20 9 -27 23 -22 41c6 23 10 47 20 68c51 104 115 200 198 282c5 5 9 9 14 13c10 7 23 10 31 3c17 -13 39 -23 47 -47
c-11 -16 -23 -29 -44 -30c-5 0 -11 -6 -15 -10c-30 -28 -56 -58 -77 -92c-20 -33 -35 -68 -49 -105l74 62l106 94c9 8 18 16 27 23c20 14 23 14 42 -3c5 -4 10 -7 16 -11c2 -7 3 -15 4 -24c17 -3 22 -15 20 -30c-2 -16 -7 -32 -13 -47c-20 -50 -42 -100 -65 -154
c14 5 22 12 29 19c35 35 71 68 103 105c66 76 131 154 194 232c38 48 72 98 109 147c7 10 16 20 23 29c24 -8 27 -10 41 -35c-5 -7 -10 -16 -15 -25c9 -4 18 -7 29 -11c-4 -8 -8 -15 -12 -21c-68 -100 -141 -197 -222 -287c-13 -14 -24 -31 -36 -47c-21 -26 -42 -53 -65 -77
c-41 -42 -84 -83 -126 -124c-12 -11 -26 -20 -40 -29c-15 -10 -33 -14 -52 -13zM683 477c21 11 33 30 45 48c-2 2 -4 3 -5 5c-14 -18 -27 -35 -40 -53zM322 89c9 3 19 4 25 10c19 17 33 40 59 49c34 37 69 72 102 109c31 34 60 70 90 105c15 17 29 36 44 54c6 9 18 14 19 33
c-9 -11 -16 -18 -22 -25c-43 -47 -86 -95 -129 -141c-18 -19 -37 -38 -56 -56c-38 -36 -77 -71 -115 -107c-8 -7 -14 -16 -21 -24c1 -2 3 -4 4 -7zM280 93c16 3 20 13 22 25c9 45 19 89 42 129c7 11 8 25 12 38c-23 -32 -40 -66 -59 -98c-18 -30 -13 -61 -17 -94zM277 50
l14 32c-14 -5 -19 -14 -14 -32z" />
    <glyph glyph-name="wdieresis" unicode="&#x1e85;" horiz-adv-x="695" 
d="M448 650c-23 5 -47 8 -66 25c-16 15 -18 34 -20 54c-4 37 10 67 30 97l51 -29c5 -19 16 -33 35 -40l19 -56c1 -20 -21 -30 -33 -46c-3 -4 -11 -6 -16 -5zM724 642c-18 -6 -60 5 -72 19c-15 19 -10 40 -2 60c10 22 24 42 37 64c37 -12 47 -53 81 -69
c-8 -20 -15 -37 -22 -53c-4 -11 -11 -17 -22 -21zM292 -8c-22 3 -37 16 -38 38c-1 17 -6 32 -10 48c-5 21 -8 44 1 66c11 30 22 59 35 92c-7 -3 -12 -5 -18 -7c0 6 -1 12 -2 19c23 23 53 39 56 78c-78 -71 -158 -137 -243 -196c-1 -1 0 -5 -1 -11c21 9 39 19 55 31
c26 20 50 41 76 61c11 9 23 17 35 25c-4 -18 -24 -53 -43 -72c-17 -17 -34 -35 -53 -51c-12 -10 -26 -19 -41 -27c-22 -11 -35 -4 -39 22l-3 11c-15 -8 -28 -16 -41 -23c-20 9 -27 23 -22 41c6 23 10 47 20 68c51 104 115 200 198 282c5 5 9 9 14 13c10 7 23 10 31 3
c17 -13 39 -23 47 -47c-11 -16 -23 -29 -44 -30c-5 0 -11 -6 -15 -10c-30 -28 -56 -58 -77 -92c-20 -33 -35 -68 -49 -105l74 62l106 94c9 8 18 16 27 23c20 14 23 14 42 -3c5 -4 10 -7 16 -11c2 -7 3 -15 4 -24c17 -3 22 -15 20 -30c-2 -16 -7 -32 -13 -47
c-20 -50 -42 -100 -65 -154c14 5 22 12 29 19c35 35 71 68 103 105c66 76 131 154 194 232c38 48 72 98 109 147c7 10 16 20 23 29c24 -8 27 -10 41 -35c-5 -7 -10 -16 -15 -25c9 -4 18 -7 29 -11c-4 -8 -8 -15 -12 -21c-68 -100 -141 -197 -222 -287
c-13 -14 -24 -31 -36 -47c-21 -26 -42 -53 -65 -77c-41 -42 -84 -83 -126 -124c-12 -11 -26 -20 -40 -29c-15 -10 -33 -14 -52 -13zM683 477c21 11 33 30 45 48c-2 2 -4 3 -5 5c-14 -18 -27 -35 -40 -53zM322 89c9 3 19 4 25 10c19 17 33 40 59 49c34 37 69 72 102 109
c31 34 60 70 90 105c15 17 29 36 44 54c6 9 18 14 19 33c-9 -11 -16 -18 -22 -25c-43 -47 -86 -95 -129 -141c-18 -19 -37 -38 -56 -56c-38 -36 -77 -71 -115 -107c-8 -7 -14 -16 -21 -24c1 -2 3 -4 4 -7zM280 93c16 3 20 13 22 25c9 45 19 89 42 129c7 11 8 25 12 38
c-23 -32 -40 -66 -59 -98c-18 -30 -13 -61 -17 -94zM277 50l14 32c-14 -5 -19 -14 -14 -32z" />
    <glyph glyph-name="wgrave" unicode="&#x1e81;" horiz-adv-x="695" 
d="M631 619c-15 -12 -28 -8 -39 8c-4 -1 -8 -3 -15 -6c-5 7 -12 13 -16 21c-45 91 -100 177 -154 262c-5 8 -9 17 -14 27c25 15 -2 44 16 61c41 -11 61 -41 78 -74c9 -19 21 -37 31 -55c24 -40 49 -79 73 -120c4 -7 6 -16 10 -23c7 -16 14 -32 24 -45c14 -18 18 -35 6 -56z
M292 -8c-22 3 -37 16 -38 38c-1 17 -6 32 -10 48c-5 21 -8 44 1 66c11 30 22 59 35 92c-7 -3 -12 -5 -18 -7c0 6 -1 12 -2 19c23 23 53 39 56 78c-78 -71 -158 -137 -243 -196c-1 -1 0 -5 -1 -11c21 9 39 19 55 31c26 20 50 41 76 61c11 9 23 17 35 25
c-4 -18 -24 -53 -43 -72c-17 -17 -34 -35 -53 -51c-12 -10 -26 -19 -41 -27c-22 -11 -35 -4 -39 22l-3 11c-15 -8 -28 -16 -41 -23c-20 9 -27 23 -22 41c6 23 10 47 20 68c51 104 115 200 198 282c5 5 9 9 14 13c10 7 23 10 31 3c17 -13 39 -23 47 -47
c-11 -16 -23 -29 -44 -30c-5 0 -11 -6 -15 -10c-30 -28 -56 -58 -77 -92c-20 -33 -35 -68 -49 -105l74 62l106 94c9 8 18 16 27 23c20 14 23 14 42 -3c5 -4 10 -7 16 -11c2 -7 3 -15 4 -24c17 -3 22 -15 20 -30c-2 -16 -7 -32 -13 -47c-20 -50 -42 -100 -65 -154
c14 5 22 12 29 19c35 35 71 68 103 105c66 76 131 154 194 232c38 48 72 98 109 147c7 10 16 20 23 29c24 -8 27 -10 41 -35c-5 -7 -10 -16 -15 -25c9 -4 18 -7 29 -11c-4 -8 -8 -15 -12 -21c-68 -100 -141 -197 -222 -287c-13 -14 -24 -31 -36 -47c-21 -26 -42 -53 -65 -77
c-41 -42 -84 -83 -126 -124c-12 -11 -26 -20 -40 -29c-15 -10 -33 -14 -52 -13zM683 477c21 11 33 30 45 48c-2 2 -4 3 -5 5c-14 -18 -27 -35 -40 -53zM322 89c9 3 19 4 25 10c19 17 33 40 59 49c34 37 69 72 102 109c31 34 60 70 90 105c15 17 29 36 44 54c6 9 18 14 19 33
c-9 -11 -16 -18 -22 -25c-43 -47 -86 -95 -129 -141c-18 -19 -37 -38 -56 -56c-38 -36 -77 -71 -115 -107c-8 -7 -14 -16 -21 -24c1 -2 3 -4 4 -7zM280 93c16 3 20 13 22 25c9 45 19 89 42 129c7 11 8 25 12 38c-23 -32 -40 -66 -59 -98c-18 -30 -13 -61 -17 -94zM277 50
l14 32c-14 -5 -19 -14 -14 -32z" />
    <glyph glyph-name="x" unicode="x" horiz-adv-x="476" 
d="M254 -69c-11 9 -23 15 -30 25s-13 25 -10 35c12 44 -20 77 -25 120l-10 -15c-7 19 -13 37 -20 57c-34 -15 -62 -45 -102 -44c-5 9 -9 16 -13 25l-38 3c-16 15 -16 36 -16 57c0 3 5 6 7 9c3 4 5 9 8 13l-1 2c-1 5 -3 11 -2 16c5 37 11 75 19 112c7 31 17 61 26 92
c4 13 7 26 22 33c3 2 6 8 7 13c3 19 16 28 31 34c28 -22 42 -48 37 -67c32 -54 44 -113 61 -174c22 18 48 24 63 46c3 4 8 7 13 10c61 40 121 80 182 119c9 6 19 11 32 18l5 -32l24 -11c5 -24 2 -42 -12 -59c-18 -23 -20 -25 -49 -16c-78 -51 -156 -100 -236 -151l30 -101
c8 -29 17 -58 25 -87c4 -15 10 -30 1 -46c-15 -1 -18 14 -27 23c-5 -20 9 -39 -2 -59zM401 383c15 9 35 11 43 30c-15 -9 -33 -13 -43 -30zM53 199c33 4 56 25 82 41c-12 43 -23 85 -36 133c-23 -59 -45 -113 -46 -174zM360 360c2 2 4 5 6 8l-3 2c-2 -2 -4 -5 -7 -7zM11 153
c1 15 2 28 2 42c0 3 -2 6 -3 10c-11 -26 -11 -37 1 -52zM71 147c35 -2 57 17 81 33l-8 17c-24 -16 -47 -32 -73 -50zM252 34l4 3c-11 37 -21 75 -34 118c-5 -25 5 -84 17 -109c2 -5 8 -8 13 -12z" />
    <glyph glyph-name="y" unicode="y" horiz-adv-x="382" 
d="M-178 -393c-11 11 -22 4 -34 9v29c-11 -13 -20 -23 -28 -33c0 21 22 31 23 54c-8 -4 -13 -7 -20 -11c1 4 0 7 2 9c40 54 80 108 121 161l173 228c27 35 54 69 80 103l7 10l-23 -3c-18 -1 -33 5 -48 15c-37 23 -49 57 -47 98c2 29 3 58 5 86c1 12 25 57 32 64
c7 6 13 13 24 8c8 -4 11 -9 11 -24c10 -7 20 -14 29 -19c5 -21 0 -35 -13 -48c-4 -4 -7 -11 -8 -16c-2 -24 -3 -47 -4 -73c25 2 41 13 59 23c79 45 141 110 204 173c11 11 23 20 35 31c14 -16 29 -28 35 -44c5 -13 9 -30 -4 -45c-20 -23 -38 -47 -56 -71l-415 -537
l-110 -143c-9 -12 -20 -23 -30 -34zM62 220c6 12 4 21 -1 30c-9 20 -13 41 -12 63c1 11 0 23 0 35c-6 -43 -5 -86 13 -128z" />
    <glyph glyph-name="yacute" unicode="&#xfd;" horiz-adv-x="456" 
d="M237 634c-5 -1 -11 1 -17 2c0 10 0 17 1 25c2 17 5 34 19 46c60 47 104 110 150 169l53 72l18 21l50 -34c11 -15 4 -30 -11 -47c-39 -44 -73 -92 -112 -135c-29 -33 -61 -64 -94 -92c-16 -13 -36 -24 -57 -27zM286 629c-1 2 -2 4 -4 5c8 7 16 13 25 20l3 -5
c-8 -6 -16 -13 -24 -20zM-178 -393c-11 11 -22 4 -34 9v29c-11 -13 -20 -23 -28 -33c0 21 22 31 23 54c-8 -4 -13 -7 -20 -11c1 4 0 7 2 9c40 54 80 108 121 161l173 228c27 35 54 69 80 103l7 10l-23 -3c-18 -1 -33 5 -48 15c-37 23 -49 57 -47 98c2 29 3 58 5 86
c1 12 25 57 32 64c7 6 13 13 24 8c8 -4 11 -9 11 -24c10 -7 20 -14 29 -19c5 -21 0 -35 -13 -48c-4 -4 -7 -11 -8 -16c-2 -24 -3 -47 -4 -73c25 2 41 13 59 23c79 45 141 110 204 173c11 11 23 20 35 31c14 -16 29 -28 35 -44c5 -13 9 -30 -4 -45c-20 -23 -38 -47 -56 -71
l-415 -537l-110 -143c-9 -12 -20 -23 -30 -34zM62 220c6 12 4 21 -1 30c-9 20 -13 41 -12 63c1 11 0 23 0 35c-6 -43 -5 -86 13 -128z" />
    <glyph glyph-name="ycircumflex" unicode="&#x177;" horiz-adv-x="436" 
d="M475 552c-18 0 -20 17 -29 27c-7 -2 -14 -5 -22 -7l-100 164c-58 -50 -106 -103 -167 -145l-16 14c-8 1 -16 1 -27 2l6 40c3 23 19 38 36 53c31 28 61 58 91 87c12 12 24 23 36 33c15 11 30 10 46 1c37 -20 67 -47 88 -84c25 -44 51 -87 76 -131c2 -3 2 -6 3 -10
c-7 -4 -14 -9 -21 -14v-30zM-178 -393c-11 11 -22 4 -34 9v29c-11 -13 -20 -23 -28 -33c0 21 22 31 23 54c-8 -4 -13 -7 -20 -11c1 4 0 7 2 9c40 54 80 108 121 161l173 228c27 35 54 69 80 103l7 10l-23 -3c-18 -1 -33 5 -48 15c-37 23 -49 57 -47 98c2 29 3 58 5 86
c1 12 25 57 32 64c7 6 13 13 24 8c8 -4 11 -9 11 -24c10 -7 20 -14 29 -19c5 -21 0 -35 -13 -48c-4 -4 -7 -11 -8 -16c-2 -24 -3 -47 -4 -73c25 2 41 13 59 23c79 45 141 110 204 173c11 11 23 20 35 31c14 -16 29 -28 35 -44c5 -13 9 -30 -4 -45c-20 -23 -38 -47 -56 -71
l-415 -537l-110 -143c-9 -12 -20 -23 -30 -34zM62 220c6 12 4 21 -1 30c-9 20 -13 41 -12 63c1 11 0 23 0 35c-6 -43 -5 -86 13 -128z" />
    <glyph glyph-name="ydieresis" unicode="&#xff;" horiz-adv-x="461" 
d="M201 650c-23 5 -47 8 -66 25c-16 15 -18 34 -20 54c-4 37 10 67 30 97l51 -29c5 -19 16 -33 35 -40l19 -56c1 -20 -21 -30 -33 -46c-3 -4 -11 -6 -16 -5zM477 642c-18 -6 -60 5 -72 19c-15 19 -10 40 -2 60c10 22 24 42 37 64c37 -12 47 -53 81 -69
c-8 -20 -15 -37 -22 -53c-4 -11 -11 -17 -22 -21zM-178 -393c-11 11 -22 4 -34 9v29c-11 -13 -20 -23 -28 -33c0 21 22 31 23 54c-8 -4 -13 -7 -20 -11c1 4 0 7 2 9c40 54 80 108 121 161l173 228c27 35 54 69 80 103l7 10l-23 -3c-18 -1 -33 5 -48 15c-37 23 -49 57 -47 98
c2 29 3 58 5 86c1 12 25 57 32 64c7 6 13 13 24 8c8 -4 11 -9 11 -24c10 -7 20 -14 29 -19c5 -21 0 -35 -13 -48c-4 -4 -7 -11 -8 -16c-2 -24 -3 -47 -4 -73c25 2 41 13 59 23c79 45 141 110 204 173c11 11 23 20 35 31c14 -16 29 -28 35 -44c5 -13 9 -30 -4 -45
c-20 -23 -38 -47 -56 -71l-415 -537l-110 -143c-9 -12 -20 -23 -30 -34zM62 220c6 12 4 21 -1 30c-9 20 -13 41 -12 63c1 11 0 23 0 35c-6 -43 -5 -86 13 -128z" />
    <glyph glyph-name="ygrave" unicode="&#x1ef3;" horiz-adv-x="382" 
d="M375 619c-15 -12 -28 -8 -39 8c-4 -1 -8 -3 -15 -6c-5 7 -12 13 -16 21c-45 91 -100 177 -154 262c-5 8 -9 17 -14 27c25 15 -2 44 16 61c41 -11 61 -41 78 -74c9 -19 21 -37 31 -55c24 -40 49 -79 73 -120c4 -7 6 -16 10 -23c7 -16 14 -32 24 -45c14 -18 18 -35 6 -56z
M-178 -393c-11 11 -22 4 -34 9v29c-11 -13 -20 -23 -28 -33c0 21 22 31 23 54c-8 -4 -13 -7 -20 -11c1 4 0 7 2 9c40 54 80 108 121 161l173 228c27 35 54 69 80 103l7 10l-23 -3c-18 -1 -33 5 -48 15c-37 23 -49 57 -47 98c2 29 3 58 5 86c1 12 25 57 32 64c7 6 13 13 24 8
c8 -4 11 -9 11 -24c10 -7 20 -14 29 -19c5 -21 0 -35 -13 -48c-4 -4 -7 -11 -8 -16c-2 -24 -3 -47 -4 -73c25 2 41 13 59 23c79 45 141 110 204 173c11 11 23 20 35 31c14 -16 29 -28 35 -44c5 -13 9 -30 -4 -45c-20 -23 -38 -47 -56 -71l-415 -537l-110 -143
c-9 -12 -20 -23 -30 -34zM62 220c6 12 4 21 -1 30c-9 20 -13 41 -12 63c1 11 0 23 0 35c-6 -43 -5 -86 13 -128z" />
    <glyph glyph-name="z" unicode="z" horiz-adv-x="427" 
d="M464 89c-39 2 -76 4 -113 7c-78 7 -156 6 -232 23c-16 4 -31 8 -46 14c-29 14 -44 38 -49 67c16 28 38 44 64 58c45 23 89 47 136 73c-6 2 -10 4 -15 4c-40 -3 -80 -7 -120 -11c-16 -2 -31 -6 -41 -20c-3 -3 -8 -5 -14 -8c-5 2 -13 3 -16 8c-9 13 -17 28 -24 41
c11 25 28 42 52 42c28 1 54 7 80 15c4 1 9 0 16 0c1 3 2 8 4 13c24 4 49 7 74 4c18 -2 37 0 56 0c5 0 11 1 17 -1c12 -3 29 -3 35 -11c12 -16 23 -34 22 -56c0 -16 -7 -30 -20 -39c-19 -14 -39 -29 -60 -41c-30 -17 -61 -32 -92 -48c-10 -5 -20 -10 -30 -16c0 -2 0 -4 1 -6
c102 -11 204 -22 307 -34c6 -28 34 -51 8 -78zM121 187h27c-8 4 -17 15 -27 0z" />
    <glyph glyph-name="a.ss01" horiz-adv-x="440" 
d="M409 383c2 -5 3 -10 4 -15v-11c-1 -5 -3 -11 -5 -16c-16 5 -33 4 -50 -2c-23 -7 -45 -15 -65 -28c-80 -53 -146 -122 -200 -202c-14 -19 -13 -21 -11 -42c13 0 25 7 35 15c31 23 62 47 91 73c38 34 74 71 111 107c9 9 19 17 29 25c27 -18 34 -45 44 -71
c-35 -64 -69 -128 -108 -192c-6 7 -9 11 -13 15c-5 -2 -10 -5 -13 -6c-5 17 -9 35 -14 55l14 24l-3 3c-4 -4 -9 -7 -14 -11c-38 -29 -75 -58 -114 -86c-13 -10 -27 -20 -51 -18c8 9 14 14 19 19c-6 4 -12 9 -19 14c-10 -5 -20 -11 -30 -15c-24 -8 -43 4 -46 30
c0 6 -1 13 1 19c8 29 17 57 24 80c19 12 32 21 45 30c7 4 13 9 19 12c2 0 6 -3 10 -5c26 27 53 55 79 84c23 25 42 53 64 78c28 32 64 56 105 68c11 3 23 5 34 5c2 -2 3 -3 5 -4l3 -3c2 -2 4 -4 6 -7c1 0 1 -1 2 -1c0 -1 1 -1 1 -2c2 -2 4 -5 5 -8l5 -8v-2c1 0 1 -1 1 -1z
M136 264c-10 -10 -20 -22 -31 -34l-10 15c51 69 136 143 170 149c-17 -28 -41 -49 -67 -69c-23 -17 -42 -40 -62 -61zM57 181c1 19 1 19 21 39c-1 -14 -15 -21 -21 -39zM50 74c-1 -11 2 -20 19 -17c-3 16 -5 32 -9 54c-5 -16 -9 -27 -10 -37z" />
    <glyph glyph-name="b.ss01" horiz-adv-x="520" 
d="M514 325c4 -4 3 -14 3 -21c-2 -52 -26 -95 -59 -134c-59 -67 -132 -115 -214 -149c-27 -11 -53 -22 -81 -32c-21 -8 -43 -12 -71 -4l48 3c-21 7 -46 3 -55 25c-23 5 -43 9 -65 13c-9 33 3 61 23 88l26 -18c1 -10 1 -20 2 -31c21 -4 39 -1 57 3c43 10 84 28 124 47l60 31
c66 34 111 86 137 154c10 27 8 54 0 80c-1 7 -4 13 -6 19l9 -5l4 4c-5 8 -10 16 -15 26c-9 -2 -16 -4 -23 -5c-65 2 -118 -28 -171 -59c-51 -30 -96 -68 -143 -103c-10 -8 -21 -16 -33 -25c-12 6 -25 12 -36 18c0 25 8 45 18 64l210 447c45 98 89 197 133 295
c11 26 20 53 31 79c6 16 14 32 23 49c16 -12 28 -22 41 -32c2 -10 5 -19 8 -31c-9 -15 -18 -32 -27 -50c-8 -14 -13 -28 -16 -44c-3 -21 -13 -41 -22 -61c-33 -74 -67 -147 -100 -221c-28 -32 -36 -74 -53 -113c-28 -66 -60 -131 -90 -197c-6 -14 -16 -27 -13 -47
c13 3 24 5 37 7c12 13 24 28 39 39c33 27 70 42 114 35c14 -2 26 -6 41 -3c7 1 16 -4 22 -9c13 -9 25 -21 37 -31c23 -19 30 -45 36 -73c2 -10 1 -19 10 -28zM171 497c16 16 23 37 25 58c-16 -15 -22 -36 -25 -58zM144 440c15 15 29 31 26 54zM291 113c43 6 118 68 127 102
c-36 -42 -79 -71 -127 -102zM182 48c34 9 60 24 86 45c-21 -4 -65 -28 -86 -45z" />
    <glyph glyph-name="c.ss01" horiz-adv-x="410" 
d="M93 34c-9 4 -18 9 -28 14c-36 17 -50 40 -43 79c3 23 8 47 18 67c47 99 113 182 198 250c23 19 49 32 77 41c25 8 47 7 68 -12c16 -15 33 -27 37 -51c5 -30 -12 -59 -42 -66c-9 7 -16 20 -32 15l-6 26c-81 -7 -259 -219 -244 -283c9 0 19 -2 29 0c14 3 29 6 43 11
c50 21 97 46 141 77c6 3 10 8 15 12c0 19 7 33 21 48l44 -35c2 -13 0 -20 -8 -27c-8 -8 -14 -16 -21 -25c-3 0 -6 1 -8 -1c-43 -27 -84 -56 -127 -82c-34 -20 -71 -35 -106 -52c10 -15 26 9 39 -1c-20 -12 -42 -14 -65 -5z" />
    <glyph glyph-name="d.ss01" horiz-adv-x="630" 
d="M100 -6c-28 -3 -50 11 -63 37c-2 5 -4 9 -7 12c-23 31 -25 64 -13 99c19 57 49 108 86 155s79 90 130 124c22 15 46 25 72 31c22 5 43 2 60 -16c5 -6 13 -11 20 -14c22 -8 35 -24 42 -46c2 -7 5 -14 10 -26c26 29 50 52 71 79c56 74 113 147 166 224
c47 68 88 140 132 210c15 24 31 47 46 71c21 -16 48 -24 49 -57c-52 -104 -107 -210 -157 -318c-51 -107 -97 -216 -146 -324c-1 1 -3 2 -6 3c-15 -28 -32 -55 -44 -84c-12 -28 -19 -59 -29 -88c-15 -2 -21 6 -24 20l-18 -4c-2 5 -6 11 -6 16c2 14 5 28 10 41
c29 72 60 144 89 217c5 11 9 22 10 36c-10 -11 -19 -21 -29 -31c-15 -17 -31 -33 -46 -50c-11 -12 -22 -26 -32 -39c-12 -13 -22 -28 -34 -41c-61 -63 -124 -123 -196 -174c-33 -23 -68 -45 -107 -56c-12 -3 -24 -6 -36 -7zM88 61c13 -9 24 -5 33 0c36 17 66 42 90 74
c7 8 15 17 23 24c35 30 70 60 104 91c31 28 36 79 14 118c-26 3 -42 -1 -72 -18c-61 -36 -108 -87 -149 -144c-21 -30 -39 -62 -47 -98c-2 -8 -2 -16 -3 -28c23 6 41 12 60 17c0 -1 1 -2 1 -3c-17 -11 -34 -21 -54 -33z" />
    <glyph glyph-name="e.ss01" horiz-adv-x="420" 
d="M149 3c-32 9 -62 24 -85 48c-31 32 -41 70 -28 114c4 14 9 28 15 45c-5 7 -11 17 -17 28l20 48h57c42 51 93 92 150 125c34 20 68 36 107 44c24 5 46 5 63 -18c7 -9 17 -16 23 -22c12 -45 -8 -73 -38 -97c-61 -49 -132 -74 -207 -89c-16 -3 -34 -1 -52 -1
c-16 -23 -33 -44 -48 -67c-16 -26 -1 -64 29 -72c34 -9 67 -1 99 8c36 10 67 29 97 52l39 -36c-4 -13 -17 -14 -25 -23c4 -6 9 -12 14 -19c-25 -25 -53 -42 -88 -47c-27 -3 -53 -9 -78 -19c-16 -6 -32 -6 -47 -2z" />
    <glyph glyph-name="f.ss01" horiz-adv-x="420" 
d="M149 15c-32 -8 -44 3 -40 32c1 4 2 8 2 11c-5 35 4 69 11 102c-20 41 -60 69 -61 122c-5 -5 -7 -8 -9 -11c-25 20 -27 34 -13 60c21 40 56 65 96 83c23 11 47 20 72 31c13 32 26 67 42 99c27 58 53 117 86 171c44 74 82 152 133 221c49 67 101 132 169 181
c39 28 84 40 130 45c43 6 88 -29 102 -62c15 -35 14 -70 5 -105c-17 -63 -45 -121 -79 -177c-10 -17 -21 -33 -31 -49c-9 -15 -17 -31 -36 -36c-3 -1 -6 -5 -8 -8c-14 -23 -28 -46 -40 -71c4 3 9 6 12 9c23 22 46 44 70 65c20 19 35 41 49 64c12 23 23 47 36 69
c16 27 31 56 35 86c4 25 21 49 10 76c-2 3 2 8 4 18c7 -47 3 -88 -13 -128c-35 -91 -85 -173 -151 -245c-42 -45 -81 -94 -121 -140c-9 -12 -16 -23 -11 -37c-13 -11 -23 -20 -33 -29c-10 3 -20 6 -31 10c-9 24 -1 45 12 65c3 5 9 8 10 13c7 37 35 61 57 89
c38 48 84 89 115 142c26 44 63 82 75 134c0 1 1 2 1 3c24 29 21 64 21 99v38c-2 19 -14 28 -31 32c-19 4 -38 3 -56 -5c-34 -14 -68 -30 -94 -60c-14 -16 -32 -28 -47 -44c-72 -79 -133 -165 -183 -260c-38 -71 -71 -145 -106 -217c-5 -10 -9 -21 -15 -36c46 5 89 14 135 5
c-3 -5 -4 -8 -4 -8c14 -9 29 -18 41 -25c3 -24 -11 -32 -25 -40v-14c-14 4 -26 10 -38 10c-19 1 -38 1 -56 -3c-30 -8 -60 -18 -91 -27c-18 -44 -35 -87 -46 -133l-13 -46c-7 -21 -12 -43 -12 -66c-1 -38 -14 -73 -37 -103zM559 984c28 21 55 43 77 70
c-48 -28 -71 -50 -77 -70zM144 224c4 48 29 88 21 134c-16 -4 -31 -6 -45 -9c21 16 47 24 71 42c-37 2 -87 -25 -102 -54l31 12l-7 -14h17c-8 -21 -32 -28 -36 -50c17 -18 26 -43 50 -61zM173 199l38 147c-13 1 -16 -9 -20 -17c-17 -39 -29 -80 -18 -130z" />
    <glyph glyph-name="g.ss01" horiz-adv-x="400" 
d="M-163 -579c-59 -35 -135 23 -137 79c-1 57 6 112 23 166c17 55 37 110 56 165c10 27 20 55 31 81c7 18 16 34 26 50c6 10 14 17 21 26c20 -16 40 -27 43 -57c-1 -2 -6 -8 -5 -14c2 -17 -8 -28 -16 -40c-9 -13 -18 -26 -24 -41c-29 -74 -58 -149 -73 -228
c-6 -30 -7 -61 -9 -92c-1 -9 2 -18 3 -29c27 4 50 8 69 27c41 40 76 85 110 131c31 41 61 85 91 128c4 5 8 10 11 16c63 125 135 245 187 376l10 26c-25 -14 -46 -26 -67 -36c-12 -6 -26 -8 -40 -13c-35 -12 -62 6 -88 25c-16 11 -24 30 -20 50c5 22 10 46 19 67
c20 49 50 93 88 129c13 12 27 21 40 31c10 -7 18 -12 29 -20c10 8 21 16 32 23c12 8 24 17 37 21c10 3 24 3 32 -2c18 -12 40 -22 42 -52l17 11c13 -10 26 -21 40 -32l6 -25c-14 -28 -30 -56 -43 -85c-34 -73 -65 -148 -99 -221c-49 -108 -106 -212 -169 -313
c-55 -87 -111 -174 -180 -251c-18 -20 -38 -37 -57 -55c-11 -9 -24 -15 -36 -22zM117 229c53 -4 173 75 210 136c-14 30 -14 30 -30 30v-18l-4 -1c-2 7 -5 14 -8 20c-80 -13 -164 -115 -168 -167zM-228 -338c12 41 24 82 37 123c-20 -39 -43 -77 -37 -123z" />
    <glyph glyph-name="h.ss01" horiz-adv-x="480" 
d="M261 15c8 24 14 45 20 66h6c5 1 13 0 16 3c19 19 41 37 43 68c0 5 4 9 8 14c41 56 68 119 83 187c2 6 2 14 2 25c-12 -3 -21 -4 -30 -7c-13 -6 -27 -13 -40 -20c-62 -32 -113 -78 -162 -126l-15 -12s-1 0 -3 1c9 16 30 25 34 48c-23 -3 -36 -16 -47 -31
c-50 -62 -99 -126 -147 -188c0 0 -2 4 -3 9l-11 -12l-15 24l10 20c-2 2 -5 4 -8 6c1 3 1 6 3 8c56 100 114 199 169 300c33 62 61 127 91 190c24 49 47 99 72 147c16 31 34 61 51 91l12 22l131 278c9 19 20 39 39 53l36 -33c7 -16 4 -32 -3 -48c-13 -28 -25 -57 -36 -85
c-8 -20 -14 -41 -22 -61c-5 -12 -11 -23 -18 -35l-12 7c-2 -2 -3 -5 -5 -7c-15 -31 -31 -62 -47 -93c-8 -16 -18 -30 -31 -43c-17 -18 -30 -42 -32 -70c-1 -13 -7 -27 -13 -39l-131 -270l-15 -34l24 16l97 63l7 3c66 29 78 17 120 -34c18 -23 18 -56 7 -84
c-14 -40 -30 -79 -47 -117c-22 -51 -52 -97 -85 -141c-20 -27 -48 -44 -79 -57c-6 -2 -14 -1 -24 -2zM187 316c22 23 84 152 85 174c-38 -57 -58 -117 -85 -174zM245 342c18 12 36 25 55 37c31 14 61 29 88 50c-3 1 -5 3 -7 2c-30 -12 -59 -27 -83 -49c-3 1 -5 3 -8 5
c-19 -11 -38 -23 -61 -36z" />
    <glyph glyph-name="i.ss01" horiz-adv-x="270" 
d="M313 551c-3 8 -7 16 -13 28c-7 -10 -11 -15 -15 -19c-15 6 -6 62 14 92c10 -5 22 -9 32 -14c31 -15 40 -37 29 -72c-15 -4 -24 -29 -47 -15zM127 15c-21 3 -38 5 -53 10c-9 3 -18 11 -23 19c-9 17 -19 35 -24 54c-4 18 -2 39 0 58c5 49 23 93 48 135c26 44 55 87 84 130
c10 15 23 30 44 35l47 -19l5 -20c-8 0 -16 -1 -24 -2c-7 -6 -15 -11 -22 -17l3 -6l45 6c-2 -4 -4 -8 -6 -10c-20 -9 -34 -24 -45 -42c-33 -50 -65 -101 -95 -153c-17 -29 -19 -64 -12 -95c27 2 29 4 75 38c11 -4 22 -10 34 -12c16 -4 19 -16 24 -29l-22 -9
c-26 -4 -43 -18 -55 -42c24 7 39 25 55 41c3 -5 5 -10 9 -17c-21 -21 -42 -42 -81 -33zM75 59c12 -23 23 -23 59 0h-59z" />
    <glyph glyph-name="j.ss01" horiz-adv-x="280" 
d="M276 597c-21 -15 -36 2 -52 8c-13 5 -24 10 -39 17l8 11c6 -5 11 -8 17 -13c5 19 9 37 13 55c32 -5 47 -18 62 -51c-3 -8 -6 -18 -9 -27zM-457 -584c-41 16 -56 54 -63 94c-9 50 -5 100 5 149c16 79 47 152 90 221l29 -10c0 -2 1 -4 0 -5c-40 -61 -68 -127 -87 -196
c-6 -26 -14 -52 -6 -80c2 8 3 17 4 26c1 0 2 0 3 -1v-84c0 -17 6 -32 22 -45c-3 31 -8 59 -8 86c0 26 6 51 10 77c6 31 13 62 20 93c7 37 24 72 48 103c11 -14 14 -27 6 -43c-8 -15 -16 -30 -23 -46c-29 -63 -52 -129 -48 -201c1 -16 5 -33 10 -49c8 -35 44 -59 89 -33
c27 16 52 36 70 64c15 23 29 48 44 71c22 33 45 65 80 86c9 6 16 18 25 29c2 -1 4 -3 9 -7c25 35 56 65 62 112c2 11 10 21 16 31c10 16 22 30 32 46c25 37 50 74 74 112c6 10 7 22 12 33c19 41 37 82 57 122c38 78 65 160 94 242l6 19c8 -3 16 -5 22 -7c4 9 8 16 12 23
c13 -9 12 -21 9 -30c-10 -30 -21 -59 -32 -88c-3 -10 -7 -19 -12 -33c8 3 12 4 18 7c7 -12 6 -25 1 -37c-29 -80 -65 -156 -110 -228c-8 -13 -16 -26 -24 -38c-3 -6 -8 -12 -7 -18c1 -20 -8 -37 -17 -53c-97 -162 -206 -316 -338 -453c-17 -18 -35 -34 -55 -49
c-47 -37 -99 -32 -149 -12zM270 392l9 47c2 0 4 0 5 -1c4 -17 -8 -31 -14 -46z" />
    <glyph glyph-name="k.ss01" horiz-adv-x="540" 
d="M495 -120c-4 0 -11 0 -13 3c-10 16 -32 6 -42 26c-18 35 -44 65 -72 93c-12 12 -26 23 -32 38c-12 28 -37 41 -60 56l-72 47c-14 9 -26 18 -40 28c4 8 9 14 10 20c1 24 18 33 38 38c59 15 114 39 166 69c27 16 49 35 63 64l-11 20c-75 13 -141 -18 -209 -42
c18 13 37 25 56 37l-3 5c-56 -25 -115 -47 -147 -106l-11 -11c-19 -12 -34 -31 -61 -31c-10 3 -13 11 -12 25c2 39 23 69 49 95c13 12 22 25 30 40c73 151 137 306 202 460c38 91 77 181 116 272c5 12 12 23 19 36l46 -30c-3 -8 -5 -16 -8 -24c4 -2 8 -4 12 -7v-6
c-31 -71 -59 -145 -95 -214c-17 -34 -28 -68 -41 -103c-29 -74 -61 -148 -92 -221c-15 -37 -31 -73 -48 -110c16 -5 37 8 43 -15l116 15v2c-15 1 -30 3 -52 4c20 5 34 9 48 12l-6 6l4 1c25 4 47 -5 67 -18c12 -7 23 -16 34 -24c14 -11 23 -25 23 -43c0 -3 0 -6 1 -9
c16 -47 -8 -82 -36 -115c-23 -27 -53 -48 -85 -64c-31 -16 -64 -31 -97 -46c1 -9 11 -12 18 -18l105 -81c24 -20 45 -42 58 -71c9 -19 21 -36 33 -52s12 -31 1 -48c-4 -1 -9 -3 -13 -3zM243 585c26 34 30 76 54 115c-18 -5 -21 -15 -25 -26c-9 -30 -19 -59 -29 -89zM458 416
c-7 20 -18 19 -34 16c12 -6 21 -10 34 -16zM342 239c52 17 89 46 93 67c-30 -21 -62 -44 -93 -67z" />
    <glyph glyph-name="l.ss01" horiz-adv-x="270" 
d="M72 19c-19 5 -16 23 -26 32c8 21 15 41 22 62c-1 0 -3 1 -5 2c-7 -13 -14 -27 -22 -40s-6 -31 -20 -40c-11 7 -4 14 -2 20c16 45 31 91 49 135c39 96 82 190 135 279c8 14 12 31 19 46c13 29 27 58 41 87c54 103 109 206 163 310c20 38 39 77 60 115c5 9 13 17 20 25
c45 -38 45 -38 50 -67c-38 -37 -59 -84 -87 -126c-10 -14 -19 -29 -26 -44c-6 -13 -10 -28 -14 -42c-2 -5 -2 -11 -5 -16c-16 -24 -24 -51 -38 -76c-15 -24 -26 -50 -39 -75l-39 -78c-65 -132 -132 -263 -188 -398c-11 -27 -21 -55 -32 -82c-4 -10 -10 -19 -16 -29z" />
    <glyph glyph-name="m.ss01" horiz-adv-x="730" 
d="M743 294l-28 -44c6 -1 10 -2 13 -2c-20 -53 -118 -174 -153 -187c-5 8 -11 16 -17 25c-10 -5 -17 -18 -30 -7c-4 10 2 17 8 25c-4 4 -9 8 -15 15c8 37 29 72 46 108c17 35 34 70 52 105l-5 3c-11 -9 -22 -19 -33 -29c-34 -31 -67 -63 -101 -94c-18 -17 -38 -31 -56 -47
c-12 -11 -23 -22 -34 -33c-15 -15 -31 -25 -56 -18c2 11 4 23 5 34l-3 2c-6 -8 -13 -16 -20 -25c-14 0 -20 10 -25 21l37 153c-8 -4 -13 -5 -16 -8l-75 -56c-6 -4 -12 -7 -18 -12c-6 -4 -13 -8 -17 -14c-40 -61 -89 -114 -135 -169c-5 -6 -10 -12 -16 -17
c-16 -12 -28 -8 -39 13c-9 -3 -20 -9 -26 6c1 27 13 49 27 72c13 19 23 40 36 60s26 38 45 54c18 14 26 40 38 61c15 26 30 53 50 78c-6 -14 -12 -28 -18 -44c14 12 22 30 32 62c6 22 15 44 24 69c12 -7 22 -14 31 -20c11 -22 9 -40 -7 -57c-9 -9 -13 -21 -19 -32
c-3 2 -6 4 -10 6c-18 -36 -42 -69 -59 -113c40 34 76 62 103 99c8 10 4 26 19 33c13 5 24 15 37 21c15 8 28 6 44 -5c43 -27 55 -63 42 -110c-1 -3 0 -6 0 -13c9 7 15 11 20 16c55 49 108 99 163 148c17 14 37 26 56 38c6 5 15 6 23 8c20 -20 50 -27 58 -59
c7 -29 -7 -53 -16 -79c2 -22 26 -24 38 -41zM177 317c-4 -25 -40 -31 -34 -67c17 23 31 42 34 67zM224 264c15 15 30 30 46 45c-32 -11 -39 -17 -46 -45zM337 182v42c-3 -8 -2 -15 -5 -22c-2 -6 -8 -12 5 -20zM353 141c10 -13 16 -5 22 1l-10 13zM540 87l14 10
c-4 12 -10 9 -17 7c1 -4 2 -9 3 -17z" />
    <glyph glyph-name="n.ss01" horiz-adv-x="390" 
d="M259 -40c-15 23 4 43 -1 67c-7 -9 -13 -17 -19 -24c-12 12 -9 26 -5 40l45 160c6 23 12 45 17 68c2 10 2 20 3 31c-48 -7 -83 -33 -114 -65c-55 -55 -112 -109 -158 -172c-7 -9 -15 -14 -27 -10c-10 4 -13 12 -8 29c3 12 7 25 11 38c-6 11 -5 23 0 37c18 45 35 91 52 137
c4 12 8 25 8 37c1 18 4 35 12 51c9 22 17 44 26 66c7 17 14 35 32 46c4 -7 7 -13 10 -21c8 -3 17 -7 26 -11c3 -9 5 -17 7 -25l-66 -166c1 -1 3 -2 5 -3c16 14 33 29 50 42c24 18 47 37 73 53c19 11 41 18 62 26c11 5 21 1 30 -8c4 -4 10 -8 14 -12c27 -22 38 -52 33 -85
c-6 -40 -16 -79 -26 -118c-14 -50 -29 -99 -44 -149c-6 -19 -15 -38 -23 -59h-25z" />
    <glyph glyph-name="o.ss01" horiz-adv-x="420" 
d="M65 31c-19 2 -35 9 -42 27c-9 25 -22 49 -22 77c0 29 13 52 24 77c7 17 16 33 25 49c12 21 23 42 36 63c22 33 44 67 68 99c22 29 51 50 84 65c11 5 23 7 35 11l20 -35l-7 -12c2 -1 3 -3 4 -3c31 -3 61 -11 87 -30c9 -7 18 -14 19 -27c0 -4 2 -9 5 -12
c32 -32 25 -69 11 -105c-8 -22 -22 -42 -36 -60c-62 -75 -138 -132 -228 -170c-27 -11 -54 -17 -83 -14zM102 118c37 8 71 24 103 44c64 38 117 87 148 156c3 6 3 14 5 21c-25 19 -54 26 -81 26c-37 1 -61 -29 -84 -49c-19 -6 -25 6 -33 19c-40 -48 -71 -96 -95 -149
c-9 -19 -18 -38 -14 -60c16 -10 33 -11 51 -8zM362 286c5 11 17 19 9 38l-14 -34c2 -2 3 -3 5 -4z" />
    <glyph glyph-name="p.ss01" horiz-adv-x="430" 
d="M414 470c35 -25 39 -62 38 -100c-1 -23 -6 -48 -15 -71c-28 -78 -72 -148 -125 -212c-5 -6 -11 -9 -18 -8c2 -3 5 -6 8 -10c-17 -18 -34 -36 -52 -53c-26 -23 -55 -32 -88 -15c-5 3 -13 0 -18 3c-11 5 -21 12 -21 26c9 -6 17 -12 25 -18l4 3c-7 13 -16 26 -22 40
c-5 13 -6 28 -8 40c24 24 38 21 60 -13c18 3 30 17 42 30c21 23 42 48 60 74c22 29 43 60 60 92c14 26 24 55 33 84c6 18 3 30 -8 51c-10 -4 -21 -6 -29 -12c-24 -19 -48 -37 -68 -59c-46 -49 -82 -106 -117 -162c-25 -41 -44 -83 -58 -128c-25 -86 -54 -170 -82 -254
c-20 -61 -41 -121 -63 -181c-6 -19 -16 -36 -26 -53c-4 -7 -11 -13 -18 -16c-14 -7 -17 -3 -27 9c-16 17 -9 37 -13 57c-3 -1 -6 -3 -11 -4c-8 14 -4 28 -2 43c11 74 34 146 61 216c29 76 59 151 100 221c14 25 26 52 39 78c2 5 5 11 6 16c16 71 32 141 47 212
c5 25 5 52 7 80l25 21c22 -8 18 -32 33 -47v38c19 -5 17 -24 24 -31c-6 -28 -12 -53 -17 -79l4 -3c34 36 63 79 116 90c1 6 1 12 1 17c49 33 78 13 113 -12zM223 371c15 10 23 20 28 32c-11 -7 -22 -13 -28 -32zM54 116l21 49c-2 0 -3 1 -5 1c-7 -16 -14 -32 -20 -48
c1 -1 3 -1 4 -2zM292 79c2 5 5 9 7 14c-35 -23 -58 -54 -83 -86c5 1 10 3 14 6c13 12 27 24 39 36c9 9 16 20 23 30zM-16 -59c12 35 21 70 31 105c-1 1 -2 2 -2 3c-6 -10 -11 -19 -16 -29c-38 -75 -68 -154 -95 -235c-14 -44 -29 -88 -35 -135c0 -4 1 -9 2 -14c2 0 4 0 6 -1
l36 103c12 33 28 65 33 100c23 31 28 68 40 103z" />
    <glyph glyph-name="q.ss01" horiz-adv-x="420" 
d="M455 435l6 -21c-5 -15 -9 -30 -15 -45c-4 -11 -9 -23 -16 -33c-44 -66 -72 -140 -103 -212c-83 -192 -166 -384 -248 -576c-16 -37 -34 -73 -51 -110c-4 -8 -7 -17 -13 -30l33 10c32 10 64 21 97 30c16 4 33 5 50 7c3 0 5 -5 8 -8c17 3 33 7 50 10c44 7 71 -8 88 -43v-44
c-1 -15 -4 -29 -20 -34c-6 -2 -12 0 -20 0l9 30l-40 -20v43c-27 -5 -52 -9 -77 -13c0 0 -1 0 -1 1c0 0 1 1 1 2s0 3 -1 5c-80 -27 -158 -57 -226 -97l-6 -6c9 -25 -16 -28 -23 -41c-31 -4 -56 8 -80 21c0 22 28 34 18 60c18 15 30 36 40 58c48 103 95 206 143 309
c16 36 31 73 48 108c11 24 25 46 37 69c8 16 16 33 22 51c19 50 37 100 55 150c2 5 4 11 7 22c-14 -10 -23 -17 -32 -23c-22 -15 -47 -28 -74 -34c-38 -8 -55 2 -67 41c-7 2 -15 3 -25 5c3 -7 5 -13 8 -21c-18 9 -22 23 -23 37c-3 26 4 50 13 74c0 1 3 2 6 2
c-6 15 0 27 5 40c39 99 98 184 183 250c27 20 57 37 90 46c30 8 60 9 82 -20c26 -9 38 -36 62 -50zM376 388c-2 2 -5 5 -8 7c4 11 8 21 12 33c-25 5 -44 -3 -64 -12c-33 -15 -60 -38 -87 -61c-10 -8 -21 -15 -31 -23c4 11 18 18 11 34c-6 -3 -11 -7 -16 -10
c-6 -2 -12 -3 -18 -5l23 32c0 19 26 11 28 27c29 5 44 30 71 46c-8 0 -13 2 -15 0c-20 -10 -41 -19 -58 -33c-16 -13 -38 -22 -43 -45c-4 -6 -8 -10 -12 -16c-4 -5 -4 -10 4 -11c5 -19 -8 -32 -14 -50c9 4 16 7 22 9c-2 -4 -3 -9 -5 -12c-38 -47 -68 -98 -87 -156
c-4 -14 -7 -28 6 -44c13 7 30 10 38 20c24 29 56 45 83 69c4 4 12 4 16 5c12 15 23 29 35 43c3 -3 5 -5 8 -7c33 33 103 143 101 160zM60 157c2 26 7 52 20 75c12 21 23 43 34 64c-2 1 -4 2 -5 3c-16 -20 -32 -38 -42 -63c-10 -23 -22 -44 -33 -67c1 -2 3 -6 2 -8
c-12 -20 -7 -41 -7 -62c8 -6 15 -11 26 -20c2 30 3 54 5 78zM204 -554c-10 -4 -20 -9 -29 -13c0 -1 1 -3 2 -5c10 3 20 6 32 9z" />
    <glyph glyph-name="r.ss01" horiz-adv-x="290" 
d="M-9 38c-7 4 -11 7 -15 9c-4 28 2 52 18 75c15 21 27 45 40 67c2 4 4 7 8 10c1 -19 -14 -32 -20 -53c1 -4 1 -12 2 -22l7 3c14 7 19 20 23 34l51 168c2 6 3 13 0 21l-26 -52c-2 25 20 100 35 122c6 -4 11 -8 17 -14c-2 -5 -5 -9 -8 -16c2 -6 4 -14 7 -22c2 -8 5 -15 9 -24
c38 40 82 65 142 57l-60 -13c-21 -5 -38 -16 -52 -31c-6 -5 -8 -13 -10 -22c21 20 45 29 73 32c7 0 14 4 21 7c5 3 16 -1 13 11c8 2 16 5 24 6c41 0 77 -15 106 -44c13 -14 20 -31 7 -52c-8 -8 -19 -5 -32 -2c-19 4 -33 20 -50 24c-33 7 -66 6 -94 -17
c-14 -12 -29 -24 -41 -38c-33 -43 -66 -87 -97 -131c-12 -19 -19 -41 -29 -61c-6 -11 -13 -22 -20 -32c-30 2 -17 25 -23 38c-8 -12 -16 -24 -26 -38zM347 353c1 1 1 2 2 4c-11 2 -21 6 -32 7s-22 -1 -38 -2c27 -3 47 -6 68 -9z" />
    <glyph glyph-name="s.ss01" horiz-adv-x="430" 
d="M243 30c-65 1 -131 4 -197 7c-31 2 -60 18 -76 38l6 24c2 -2 4 -3 8 -5l2 17c8 -3 15 -6 23 -8l2 3c-4 4 -9 7 -13 12c-3 4 -5 9 -7 15c15 -3 28 -8 42 -9c35 -2 69 -4 104 -5c34 -1 68 0 102 -2l-58 -15c37 -5 72 -7 107 7c34 14 44 31 35 66c-5 17 -12 34 -20 49
c-19 34 -40 66 -67 94c-29 31 -30 72 -3 104c7 9 19 16 30 19c34 9 69 17 104 23c21 4 43 5 64 6c3 0 7 -4 10 -6c-14 -11 -27 -27 -42 -29c-19 -1 -35 -10 -52 -15c-20 -6 -39 -14 -58 -22c-6 -3 -11 -7 -18 -11c3 -5 4 -9 7 -13c40 -46 60 -103 89 -155
c7 -15 13 -27 29 -29c18 -58 -8 -118 -62 -141c-29 -12 -59 -20 -91 -19zM47 100h58v3h-58v-3z" />
    <glyph glyph-name="t.ss01" horiz-adv-x="430" 
d="M207 0c-13 16 -39 9 -44 31c-3 17 -15 34 -1 51c-19 48 -45 92 -78 134c-2 -6 -3 -9 -6 -15c-10 19 -21 36 -29 54c-24 57 0 129 62 148c43 14 87 23 132 28c8 1 17 1 28 2c23 103 62 201 79 307c4 -3 7 -5 10 -8c12 4 9 14 10 23l4 28c13 -10 22 -18 31 -24
c19 -13 22 -31 18 -52c-4 -19 -9 -38 -15 -57c-17 -65 -34 -131 -52 -196l-3 -17c26 -2 50 -4 74 -5c53 0 100 -17 137 -59c-4 -3 -10 -6 -13 -11c-20 -24 -42 -33 -72 -18c-2 1 -5 2 -8 2h-140c-17 -55 -30 -111 -43 -166s-20 -112 -48 -167c-7 7 -11 11 -15 16
c-5 -9 -11 -17 -18 -29zM203 137c9 36 18 68 25 101c7 32 12 65 18 100c-48 -1 -90 -17 -136 -30c3 -10 4 -18 8 -25c27 -47 55 -95 85 -146z" />
    <glyph glyph-name="u.ss01" horiz-adv-x="490" 
d="M371 0c-13 -1 -18 9 -23 18c-9 -3 -18 -8 -24 8c7 59 37 115 51 182c-10 -9 -15 -13 -20 -18c-39 -37 -77 -75 -117 -111c-29 -26 -61 -49 -99 -63c-17 -6 -37 -11 -55 -10s-36 8 -53 16c-19 9 -31 25 -30 47c0 21 2 41 7 61c5 -34 -1 -72 34 -100c-6 74 5 142 34 206
c15 32 36 62 62 87c3 4 9 5 15 8c5 -12 9 -21 13 -32l26 22c15 -17 15 -17 4 -40c-19 0 -29 -14 -39 -28c-28 -37 -55 -74 -71 -118c-8 -19 -15 -38 -9 -62c16 5 29 10 43 14c-1 2 -1 3 -2 4c6 7 12 16 19 21c33 20 61 47 97 63c13 6 22 20 34 31l13 -6c20 21 40 41 59 62
c-3 9 -5 16 -8 24c36 32 64 74 114 92c9 -5 20 -12 31 -20v-17c4 -3 9 -5 16 -9c-3 -14 -4 -28 -9 -40c-33 -85 -63 -171 -86 -260l-4 -10c-5 -11 -10 -21 -23 -22z" />
    <glyph glyph-name="v.ss01" horiz-adv-x="340" 
d="M153 17c-25 -25 -54 -22 -71 10c-18 34 -32 70 -32 109c0 40 2 81 3 121c1 15 0 30 2 45c2 26 9 51 32 68c9 -7 16 -13 20 -17c3 -17 7 -32 8 -46c0 -13 -4 -25 -4 -38c-2 -29 -1 -58 -5 -87c-3 -25 4 -52 6 -82c7 7 13 10 16 15c69 90 123 189 170 292c3 6 4 12 6 19
l-13 16c3 3 6 6 9 10c-1 3 -3 6 -6 10l21 37c44 -19 50 -29 39 -66c17 -29 11 -58 -1 -88c-31 -71 -68 -138 -108 -204c-6 -10 -13 -19 -20 -28c-14 -20 -29 -41 -43 -62c-9 -12 -18 -24 -29 -34zM235 152c15 20 33 38 32 65c0 3 2 7 3 10c21 50 41 100 62 150l12 33
c-2 1 -4 2 -5 2c-13 -18 -25 -36 -37 -55c-7 -10 -19 -22 -19 -32c2 -20 -9 -34 -16 -49c-15 -32 -31 -64 -47 -96c-5 -11 -5 -11 2 -27c5 8 10 18 16 27c1 -1 2 -1 2 -2c-1 -9 -3 -17 -5 -26z" />
    <glyph glyph-name="w.ss01" horiz-adv-x="620" 
d="M365 5c-16 8 -34 10 -48 23c-12 12 -18 25 -21 42l-21 127c0 1 -1 1 -4 3c-25 -19 -47 -44 -67 -70c-28 -37 -63 -67 -100 -94c-9 -7 -19 -11 -30 -16c-11 -4 -22 -5 -32 1c-4 2 -7 4 -11 5c-39 14 -43 18 -40 58c3 24 7 49 15 72c24 75 63 144 103 213c2 3 4 6 8 10
c14 -9 28 -19 43 -29c3 -6 6 -14 10 -24c-4 -12 -6 -26 -13 -38c-11 -21 -25 -41 -37 -63c-11 -20 -19 -42 -36 -59c-6 -6 -8 -16 -7 -28c4 3 9 4 13 8l102 97c17 16 34 32 53 47c23 18 34 15 60 0c42 -25 53 -64 57 -107c2 -28 4 -55 7 -84c16 0 26 8 36 16
c35 27 62 61 85 98c40 65 73 133 97 206c5 15 9 30 14 48l-53 26c18 16 35 7 52 2c-8 30 -33 8 -47 16c1 4 1 6 1 7c25 39 51 43 90 17c33 -22 39 -53 33 -91c-2 5 -4 8 -7 14c-2 -9 -6 -15 -6 -22c-2 -40 -18 -76 -30 -113c-19 -55 -41 -108 -70 -158
c-24 -42 -51 -82 -85 -116c-11 -11 -22 -23 -40 -25c-7 0 -14 -8 -21 -13c-16 -12 -33 -15 -53 -6zM657 470c5 11 9 21 1 30c-3 0 -5 -1 -8 -1c2 -10 5 -20 7 -29zM619 450c-2 6 14 16 -5 22c2 -9 3 -16 5 -22zM483 74c20 18 37 39 48 64c-22 -17 -37 -39 -48 -64zM93 68
l40 31c-38 -14 -38 -14 -40 -31zM376 44c6 4 11 8 19 13c-13 6 -20 6 -26 -5z" />
    <glyph glyph-name="x.ss01" horiz-adv-x="500" 
d="M503 -121c-18 15 -40 24 -49 48c-2 6 -5 14 -15 13c-3 0 -7 6 -11 9l-161 156c-32 -19 -64 -37 -94 -54c-17 7 -32 13 -46 20c-11 6 -19 16 -20 29c-1 14 -3 28 -2 42c4 44 3 87 -13 128c-3 8 -9 16 -14 23c-16 21 -32 42 -47 64c-7 11 -12 23 -16 36
c-13 37 -10 48 19 74c-4 17 -8 35 14 49c27 -16 57 -32 70 -65c16 -39 31 -79 44 -119c4 -14 10 -26 20 -37c23 -24 46 -48 71 -73c79 70 157 139 235 207l4 -3c-2 -9 -4 -19 -6 -31l18 -5l34 24c11 -37 5 -52 -22 -72c-10 -7 -18 -16 -27 -24c-23 -22 -45 -45 -69 -66
c-32 -30 -65 -60 -99 -91c5 -7 9 -13 14 -18c40 -37 80 -74 119 -112c20 -21 40 -43 57 -66c11 -14 18 -32 26 -47c-5 -13 -9 -22 -14 -33zM46 473l3 12c0 4 -2 8 -3 11h-3v-21zM189 141c6 8 10 12 15 18c-5 5 -9 10 -15 18v-36z" />
    <glyph glyph-name="y.ss01" horiz-adv-x="400" 
d="M-47 -513c-6 3 -11 6 -18 9c2 7 6 15 3 19c-11 17 -3 33 3 48c15 38 30 77 47 115c11 26 23 51 35 76c11 22 22 44 38 63c12 14 17 35 27 52c16 24 33 47 50 70c6 7 16 10 27 18c26 57 62 112 91 170c-2 1 -3 3 -5 5c-11 -5 -22 -10 -35 -15c-26 -51 -53 -101 -79 -152
c5 55 36 100 58 150c-30 3 -54 13 -69 39c0 1 -1 2 -2 2c-56 44 -73 107 -84 174c-1 8 -2 16 -4 24c-10 34 -10 35 4 71c18 6 33 -3 46 -13c6 -5 12 -18 9 -24c-9 -23 -2 -45 1 -67s7 -44 12 -66c9 -40 40 -58 79 -45c11 4 22 10 32 16c38 26 70 58 95 96c9 14 16 31 35 44
c-13 -60 -55 -100 -75 -151c41 37 81 75 94 135c16 -11 32 -16 38 -37c-7 -11 -14 -21 -19 -33c-11 -20 -21 -42 -32 -62c-117 -213 -220 -433 -320 -653c-7 -16 -13 -32 -24 -47c6 17 11 35 18 51l39 92c6 15 12 30 7 49c-3 11 5 27 9 40c4 15 9 30 9 47
c-11 -23 -23 -45 -33 -68c-20 -40 -39 -81 -57 -121c-9 -18 -15 -37 -24 -54c-6 -10 -16 -17 -18 -30c-2 -12 -5 -24 -8 -37z" />
    <glyph glyph-name="z.ss01" horiz-adv-x="540" 
d="M659 0c2 12 2 12 14 16c-10 9 -20 18 -30 28l3 8c-2 1 -4 2 -5 1l-48 -18c-6 -2 -11 -4 -16 -4c-33 -1 -66 -2 -99 -1c-16 0 -32 2 -47 3c-11 1 -22 -1 -31 2c-37 13 -74 7 -111 4c-55 -5 -111 -9 -166 -13c-30 -2 -57 12 -83 24c-8 4 -14 12 -20 17c2 53 31 87 71 114
c63 43 125 86 188 130c9 6 17 13 32 24c-65 9 -122 10 -176 1l-13 -37c-30 -8 -60 6 -83 37l3 33c7 6 15 11 20 18c5 8 7 17 12 30c15 5 29 11 43 13c69 11 139 7 208 -4c34 -5 57 -27 79 -50c14 -14 20 -37 8 -58c-9 -15 -17 -32 -29 -44c-26 -24 -55 -46 -83 -67
c-33 -25 -68 -47 -107 -74c13 -1 20 -3 27 -3c80 1 161 3 242 1c49 -1 98 -6 146 -11c35 -3 38 -5 65 -35l-13 -17c16 -6 36 0 44 -22l-22 -39c-5 -2 -13 -4 -23 -7zM586 37c-4 8 -6 14 -8 19c-11 -2 -20 -3 -29 -4c0 -1 -1 -3 -2 -4c12 -4 24 -7 39 -11z" />
    </font>
</defs>
</svg>
